<?xml version="1.0" encoding="UTF-8" standalone="no"?>
<!-- Created with Inkscape (http://www.inkscape.org/) -->

<svg
   width="190.39534mm"
   height="178.8297mm"
   viewBox="0 0 190.39534 178.82969"
   version="1.1"
   id="svg1"
   inkscape:version="1.4.4 (dcaf3e7d9e, 2026-05-05)"
   sodipodi:docname="SmeggTunerStacked.svg"
   xml:space="preserve"
   inkscape:export-filename="thethughunterhoodie.png"
   inkscape:export-xdpi="256"
   inkscape:export-ydpi="256"
   xmlns:inkscape="http://www.inkscape.org/namespaces/inkscape"
   xmlns:sodipodi="http://sodipodi.sourceforge.net/DTD/sodipodi-0.dtd"
   xmlns="http://www.w3.org/2000/svg"
   xmlns:svg="http://www.w3.org/2000/svg">
  <sodipodi:namedview
   id="namedview1"
   pagecolor="#505050"
   bordercolor="#ffffff"
   borderopacity="1"
   inkscape:showpageshadow="0"
   inkscape:pageopacity="0"
   inkscape:pagecheckerboard="1"
   inkscape:deskcolor="#505050"
   inkscape:document-units="mm"
   inkscape:zoom="0.64"
   inkscape:cx="303.90625"
   inkscape:cy="431.25"
   inkscape:window-width="1920"
   inkscape:window-height="1044"
   inkscape:window-x="0"
   inkscape:window-y="0"
   inkscape:window-maximized="1"
   inkscape:current-layer="g1" />
  <defs
   id="defs1" />
  <g
   inkscape:label="Layer 1"
   inkscape:groupmode="layer"
   id="layer1"
   transform="translate(5179.0982,2981.1647)">
    
    
    
  <g
   id="g1"
   transform="translate(-5180.2308,-2834.1023)"><path
     style="fill:#ffffff;stroke:none;stroke-width:0.146289"
     d="m 49.973944,-16.412433 c -9.534528,-0.83326 -14.580233,-4.217635 -14.580233,-9.779613 0,-6.192156 7.49733,-10.098147 16.482001,-8.586861 6.109654,1.027683 11.182357,0.531604 13.214453,-1.292241 0.02661,-0.0239 -0.213004,-0.855526 -0.532499,-1.848054 -1.959189,-6.086646 -1.405973,-12.005192 1.729829,-18.506375 0.877946,-1.820204 1.904058,-4.454497 2.11294,-5.424496 l 0.102369,-0.475448 -0.706487,-0.0026 c -4.720823,-0.01701 -8.190186,-3.695234 -8.489115,-9.000241 -0.206876,-3.671354 1.260663,-7.219577 5.186543,-12.54009 l 0.94577,-1.281796 -0.325187,-1.274947 c -0.945529,-3.706967 0.132007,-5.592422 3.78622,-6.625229 l 1.371886,-0.387734 0.324641,-0.791562 c 0.845495,-2.061449 2.589826,-5.362233 5.134095,-9.71519 0.658377,-1.12643 1.596186,-2.75363 2.083977,-3.616 l 0.886931,-1.56795 -0.142039,-0.48009 c -1.056295,-3.57068 -1.099084,-9.23954 -0.09875,-13.08506 l 0.310706,-1.19437 -0.521987,-1.14625 c -2.581648,-5.66923 -3.20319,-14.91813 -1.10748,-16.47991 1.392888,-1.03804 6.379862,1.23098 11.064461,5.03421 0.832911,0.67622 1.602489,1.29249 1.71018,1.36951 0.13639,0.0976 0.520089,-0.0209 1.265112,-0.39087 3.823838,-1.89858 9.208319,-2.86485 13.832159,-2.48227 1.22387,0.10128 2.1755,0.12259 2.19993,0.0493 0.83437,-2.50307 6.10675,-8.27225 8.25145,-9.02897 2.28771,-0.80715 3.7696,3.38264 3.78113,10.6906 l 0.004,2.48872 1.09562,1.15025 c 2.5751,2.70347 4.40379,6.2674 5.3867,10.4982 l 0.0901,0.38776 1.35404,-0.42265 c 2.66457,-0.83171 6.55898,-1.49689 6.88063,-1.17524 0.38737,0.38734 -0.0916,0.66337 -1.47174,0.84824 -1.67501,0.22437 -3.52308,0.65735 -5.26168,1.23271 l -1.35313,0.44781 0.0934,1.48743 c 0.0514,0.81808 0.10581,1.5035 0.12101,1.52315 0.0153,0.0196 0.51623,-0.0277 1.11344,-0.1052 2.56531,-0.33295 7.33186,-0.0416 7.65077,0.46774 0.31587,0.50446 -0.0276,0.5554 -2.82289,0.41868 -2.36152,-0.11547 -5.33768,-0.012 -5.97298,0.2078 -0.10058,0.0348 -0.18389,0.27925 -0.18516,0.54327 -0.002,0.26401 -0.0957,0.87502 -0.20988,1.35777 -0.25333,1.07098 -0.31989,1.01314 1.41683,1.23103 2.74905,0.34484 6.1471,1.45085 6.2298,2.02771 0.0746,0.52022 -0.25002,0.51357 -1.95544,-0.0401 -3.02879,-0.98322 -6.13552,-1.48038 -6.30057,-1.00827 -0.31661,0.9057 -1.14869,2.66201 -1.65949,3.50281 l -0.59343,0.97678 1.74902,1.80944 c 0.96195,0.99518 2.42499,2.64977 3.25121,3.67687 1.5421,1.91707 4.01505,4.619014 4.28583,4.682717 0.0836,0.01963 0.67864,-0.356504 1.32231,-0.83592 0.64368,-0.479439 1.37697,-0.983826 1.62954,-1.120887 l 0.45922,-0.24919 6.82595,0.760725 c 10.78481,1.201976 10.96401,1.375659 9.9823,9.674866 -0.21413,1.810347 -0.38934,3.489013 -0.38934,3.73039 l 2e-5,0.438852 1.01937,0.245804 c 3.38263,0.815617 4.80653,3.807461 4.02557,8.458278 -0.70317,4.187474 -2.5039,6.335853 -5.48964,6.549489 l -0.98219,0.07027 -0.24825,1.920043 c -0.93972,7.26821 -1.85106,13.849735 -1.97912,14.293036 -0.56623,1.959844 -3.01171,3.57701 -5.0049,3.30966 -0.68095,-0.09133 -0.68324,-0.05138 -0.0677,1.180844 2.6588,5.322498 1.66545,11.591659 -2.77921,17.540171 -0.43138,0.577336 -0.78432,1.087525 -0.78432,1.133737 0,0.04623 0.83934,0.08527 1.86519,0.08675 6.72228,0.0096 10.78089,2.347643 10.78699,6.213921 0.007,4.514558 -3.45386,5.386113 -14.55395,3.665073 -1.81033,-0.280697 -4.21312,-0.614913 -5.33955,-0.742711 -6.90525,-0.78347 -9.10615,-2.703077 -7.96958,-6.951005 0.42202,-1.577257 0.49999,-2.041778 0.34255,-2.041276 -0.0695,1.31e-4 -0.88335,0.191391 -1.80864,0.42483 -2.49651,0.629829 -4.60869,0.906885 -7.38762,0.969017 l -2.48693,0.05559 -1.3166,0.588001 c -0.72413,0.323398 -1.76095,0.702976 -2.30405,0.843531 -1.22858,0.317903 -1.22612,0.359405 0.0595,1.006834 4.07492,2.052094 4.74865,7.137904 1.15899,8.748855 -1.87721,0.842419 -5.4588,1.07082 -9.52042,0.607062 -17.68884,-2.019665 -19.602777,-2.594472 -19.602777,-5.887164 0,-0.401866 0.08654,-0.371268 -1.960847,-0.69338 -1.903207,-0.299431 -3.663044,-0.889155 -5.34592,-1.791373 l -1.235757,-0.662543 -0.373428,0.240134 c -0.932466,0.599647 -2.662993,1.395483 -3.664942,1.685405 -0.603441,0.174621 -1.172818,0.342198 -1.265308,0.372402 -0.111812,0.03653 -0.05055,0.28724 0.182865,0.748272 2.460654,4.860419 -5.856938,8.120683 -18.008313,7.058696 z m 10.386565,-1.717813 c 5.86686,-0.90887 8.205845,-3.14747 5.801108,-5.552185 -1.477854,-1.477854 -2.5596,-1.684838 -8.946331,-1.711641 -6.22114,-0.02615 -8.085898,-0.298602 -8.687726,-1.269386 -0.330137,-0.532542 0.0878,-0.601261 1.467146,-0.241224 l 1.295862,0.338228 2.925786,-0.06331 c 7.894637,-0.170804 9.555617,-0.03738 11.512102,0.924877 l 0.686663,0.337727 1.415699,-0.340584 c 1.275253,-0.30678 3.867107,-1.361811 3.867107,-1.574073 0,-0.04663 -0.816816,-0.890223 -1.815144,-1.874703 -1.758464,-1.733995 -2.888341,-3.22356 -3.743474,-4.935157 -0.180902,-0.362065 -0.345229,-0.67722 -0.36514,-0.700315 -0.01985,-0.02314 -0.494312,0.187837 -1.054158,0.468818 -3.026302,1.518788 -6.808487,1.886239 -11.527696,1.119954 -8.202508,-1.33189 -13.646392,0.208904 -15.805064,4.47334 l -0.433051,0.855504 v 1.609185 1.609184 l 0.455667,0.950873 c 2.292467,4.78409 12.324753,7.220994 22.950644,5.574888 z m 44.124681,-0.857053 c 0.50548,-1.291369 0.21287,-2.458822 -0.85099,-3.395279 -0.89925,-0.79154 -0.74733,-1.324933 0.23294,-0.818016 1.37288,0.709954 2.17773,2.982161 1.55263,4.383336 l -0.12479,0.27976 1.54223,-0.09437 c 1.81842,-0.111245 1.92458,-0.143238 2.15512,-0.649217 0.52482,-1.151882 0.27799,-2.62472 -0.60924,-3.635217 -0.77625,-0.884139 -0.15349,-1.322185 0.65351,-0.45968 0.82838,0.885338 1.25846,2.348319 1.01235,3.443586 -0.22805,1.015033 1.06251,0.47283 1.52837,-0.642086 1.80561,-4.321466 -6.00999,-7.811722 -13.88365,-6.200138 -1.236498,0.253109 -1.739708,0.197737 -1.685296,-0.185438 0.09362,-0.659315 3.424656,-1.424641 6.205416,-1.425753 h 1.4774 l 0.68576,-1.457943 c 3.58323,-7.617844 -0.15067,-15.158049 -9.163845,-18.505394 l -1.427171,-0.530034 -6.838189,1.787796 c -9.106188,2.380727 -10.074834,2.354316 -11.440811,-0.312036 -0.195164,-0.380994 -3.233504,-11.85624 -4.039132,-15.25514 -0.07862,-0.331751 -0.153968,-0.389522 -0.408561,-0.313323 -0.899644,0.269313 -1.027072,0.406881 -1.209085,1.305239 -0.25034,1.235758 -1.048096,3.346909 -2.072965,5.485866 -3.424045,7.146082 -3.823119,13.175219 -1.284477,19.405213 2.547517,6.251758 8.429207,11.01742 14.257488,11.552186 l 0.96856,0.08887 0.26035,-0.743191 c 0.143173,-0.408757 0.757845,-1.47432 1.36591,-2.367902 0.608065,-0.893582 1.305196,-2.051287 1.54919,-2.572663 0.363766,-0.777365 0.499676,-0.939969 0.755272,-0.903505 0.725984,0.103569 0.04264,2.278815 -1.368833,4.357297 -2.854385,4.203285 -1.553202,6.103679 4.752576,6.941104 1.707083,0.226721 13.091083,1.627765 14.116933,1.737418 1.14156,0.121997 1.17225,0.115084 1.33503,-0.300761 z m 39.98095,-2.85264 c 0.61788,-0.944112 0.40263,-2.257421 -0.53712,-3.276903 -1.03534,-1.123204 -0.34704,-1.527185 0.71447,-0.419334 0.97517,1.017759 1.21678,2.091676 0.8316,3.696237 l -0.079,0.329156 h 0.94845 c 1.90582,0 2.25707,-0.241224 2.40247,-1.649945 0.0939,-0.909589 -0.11687,-1.711118 -0.63096,-2.39983 -0.4469,-0.598666 -0.45698,-0.960251 -0.025,-0.89766 0.88024,0.127536 1.74451,2.235067 1.46124,3.563249 -0.23902,1.120739 0.77172,0.757256 1.31606,-0.473289 1.61236,-3.645031 -2.33709,-5.98853 -10.55866,-6.265236 -3.59973,-0.121146 -3.61526,-0.136914 -1.99639,-2.02649 5.31482,-6.203584 6.46033,-12.746312 3.20558,-18.309052 l -0.60204,-1.028991 -3.77896,-0.332646 c -2.07844,-0.182951 -4.60183,-0.428188 -5.60758,-0.544972 l -1.82862,-0.21235 -0.36573,-0.407187 c -0.20114,-0.223929 -0.70387,-0.851993 -1.11716,-1.395701 l -0.75143,-0.988536 -1.06853,1.177638 c -1.39398,1.5363 -1.50593,1.53678 -2.51134,0.01069 -0.93434,-1.418273 -0.77285,-1.417989 -1.95705,-0.0033 -1.2051,1.439667 -1.28736,1.442502 -2.31297,0.0798 -1.02254,-1.358627 -1.01431,-1.354134 -1.41782,-0.776405 -1.5216,2.17854 -1.79497,2.256658 -2.94995,0.842899 -1.01553,-1.243107 -0.9481,-1.239901 -1.77307,-0.08383 -1.24426,1.7437 -1.23476,1.742435 -2.58147,0.339842 -0.81741,-0.851338 -1.04494,-1.017301 -1.15324,-0.841176 -1.62672,2.645678 -1.83366,2.729074 -3.28334,1.323406 l -1.07125,-1.038739 -0.85182,1.318891 c -0.46851,0.725395 -0.97501,1.357994 -1.1256,1.405799 -0.29365,0.09319 -0.30146,0.08824 -1.68663,-1.071016 -1.15397,-0.965768 -0.94631,-1.031172 -2.439824,0.768423 -1.76902,2.131542 -1.624669,2.017723 -2.410691,1.900764 -0.88656,-0.131941 -0.732876,-0.0096 0.925596,0.737498 8.063059,3.631728 11.461159,11.676997 8.050239,19.059505 -0.60833,1.316645 -0.6075,1.19611 -0.008,1.19611 8.93212,0 17.07031,-9.58181 18.14034,-21.358253 0,0 0.0273,-1.790937 0.67609,-1.8286 0.40954,-0.02379 0.55751,1.097164 0.55751,1.097164 0.29627,6.831604 -4.01891,16.116098 -9.00781,19.38105 -1.62796,1.065411 2.00746,0.769949 7.53236,-0.612165 2.79022,-0.698025 3.07218,-0.283009 2.16205,3.182254 -0.87454,3.329833 0.45706,4.685188 5.23459,5.327885 0.90106,0.121211 3.54735,0.491455 5.88068,0.822748 2.33332,0.331293 4.86777,0.686444 5.63214,0.789184 0.76437,0.102784 1.4376,0.194445 1.49609,0.203735 0.0585,0.0092 0.20327,-0.131221 0.32176,-0.312254 z M 86.765731,-48.36284 c 7.991511,-2.064589 7.906632,-2.036238 8.247499,-2.754567 l 0.24757,-0.521682 -1.697334,-6.623244 c -0.933535,-3.642785 -2.158389,-8.433591 -2.721921,-10.646218 -0.563532,-2.212626 -1.583559,-6.195361 -2.266711,-8.850504 -0.683173,-2.655164 -1.901004,-7.423661 -2.706283,-10.59669 -1.602097,-6.312779 -1.675112,-6.520679 -2.395513,-6.82168 l -0.493788,-0.206309 -3.409739,0.877008 c -13.593877,3.496471 -12.572061,3.136085 -13.27303,4.681414 -0.500549,1.103533 -0.499677,1.109508 1.054921,7.165558 0.444065,1.729872 0.843815,3.30979 0.888326,3.510952 l 0.08098,0.365728 1.28631,0.0041 c 1.086521,0.0035 1.419734,0.06606 2.145172,0.402302 1.038129,0.481161 0.969781,0.478871 0.969781,0.03234 0,-0.201162 0.01875,-0.365729 0.04154,-0.365729 0.02285,0 2.39922,-0.592363 5.2808,-1.31634 5.971454,-1.500316 5.402012,-1.493338 5.737514,-0.07029 0.331097,1.40449 0.771607,1.171488 -4.915704,2.600011 -3.72341,0.935236 -4.887527,1.279985 -4.845895,1.435087 0.03012,0.112292 0.06305,0.556597 0.07312,0.987359 l 0.01832,0.783165 0.543642,0.313999 0.543621,0.313999 4.712754,-1.199119 c 2.592028,-0.659511 4.762433,-1.168413 4.82317,-1.130881 0.185699,0.114757 0.612187,2.271357 0.475578,2.404803 -0.0982,0.09594 -6.959532,1.892346 -9.160425,2.398348 -0.256773,0.05904 -0.402302,0.188338 -0.402302,0.357485 0,0.145746 -0.165395,0.588851 -0.36756,0.984654 -0.843139,1.650795 -0.804189,1.652322 4.887331,0.190628 5.611918,-1.441237 5.742639,-1.472467 5.824137,-1.390969 0.231759,0.23176 0.601304,2.227216 0.439747,2.374533 -0.214988,0.196015 -9.506744,2.58867 -10.118735,2.605615 l -0.432266,0.01199 -0.204324,-0.717369 -0.204324,-0.717391 -0.252783,0.746658 c -0.356569,1.053307 -0.971394,1.876557 -1.863799,2.495657 -0.921017,0.638968 -0.914518,0.568308 -0.276684,3.002683 0.276553,1.055488 1.031717,3.992724 1.678143,6.5272 1.821883,7.143007 1.861814,7.253227 2.836328,7.828863 1.132494,0.668976 0.467072,0.77586 9.17279,-1.47323 z m -7.224898,-3.403261 c -0.04067,-0.06584 -0.183344,-0.60065 -0.317052,-1.188455 -0.281439,-1.237415 -0.335895,-1.164204 1.141087,-1.533989 0.583726,-0.146161 2.831791,-0.721491 4.995719,-1.278502 4.650926,-1.197222 4.294772,-1.209347 4.649618,0.158155 0.36719,1.415133 0.749755,1.211899 -5.073794,2.695336 -5.198146,1.324104 -5.276133,1.3407 -5.395578,1.147455 z m -1.245375,-5.037003 c -0.640712,-1.693322 -0.551581,-2.203205 0.414885,-2.373595 0.286804,-0.05057 2.548499,-0.617377 5.025924,-1.259572 5.135992,-1.331323 4.682724,-1.339348 5.019382,0.08876 0.329635,1.398144 0.794876,1.154107 -4.98885,2.616695 -5.620533,1.421304 -5.304833,1.367786 -5.471341,0.927712 z m -1.346719,-5.120115 c -0.09524,-0.341957 -0.180073,-0.885055 -0.188491,-1.206905 l -0.01527,-0.585144 0.950873,-0.239567 c 0.52299,-0.131745 2.788458,-0.710521 5.034364,-1.286135 4.797109,-1.229498 4.44344,-1.233249 4.794993,0.05081 0.337727,1.233664 0.30412,1.336818 -0.493439,1.514601 -0.347453,0.07742 -2.593926,0.643264 -4.99223,1.257414 -5.172041,1.324452 -4.867921,1.29488 -5.090739,0.494922 z m -5.036676,-19.163924 c -0.271996,-0.718045 -0.60451,-2.144322 -0.527373,-2.26224 0.132399,-0.202449 10.728435,-2.853644 10.852787,-2.715443 0.198,0.220026 0.614978,2.256744 0.487159,2.379417 -0.350616,0.336484 -10.72499,2.829458 -10.812573,2.598266 z m -1.456634,-5.571856 c -0.414645,-1.531786 -0.7942,-1.317692 4.901397,-2.764578 6.023162,-1.530107 5.692938,-1.518766 6.042441,-0.207508 0.349569,1.311455 0.365096,1.291369 -1.309034,1.691185 -0.793961,0.189625 -3.07415,0.763995 -5.06712,1.276408 -4.546072,1.168849 -4.252595,1.168566 -4.567684,0.0046 z m 27.151923,35.244669 c 0.152747,-0.194183 0.73824,-0.886865 1.301074,-1.539267 1.240384,-1.437747 1.971034,2.286056 -5.12537,-26.12206 l -3.763975,-15.067805 -2.32156,-0.96941 c -1.276844,-0.533175 -2.374031,-0.921759 -2.438191,-0.863486 -0.124069,0.112662 0.442931,2.447569 2.908645,11.977975 2.208896,8.537683 5.087096,19.742722 6.637987,25.842104 1.843037,7.248364 2.03661,7.714216 2.80139,6.741949 z m 47.936218,-1.110228 c 0.65905,-0.370417 1.40414,-1.208627 1.65062,-1.856951 0.1548,-0.407121 2.1834,-15.263973 2.1834,-15.990458 0,-0.298406 -0.10568,-0.417786 -0.49426,-0.558298 -1.8777,-0.678986 -3.033,-2.617196 -2.49848,-4.191596 0.2158,-0.635609 0.19264,-0.954864 -0.0693,-0.954864 -0.0654,0 -0.15929,0.252216 -0.20858,0.560479 -0.16443,1.028315 -1.19759,1.479686 -2.0976,0.916394 -1.18652,-0.742624 -0.42627,-2.92101 0.90599,-2.595998 0.16112,0.03932 0.43547,0.115912 0.60965,0.170237 l 0.31671,0.09877 -0.13554,-0.603289 c -0.21176,-0.942433 0.0941,-2.000189 0.79522,-2.750228 0.50251,-0.53758 0.42043,-0.841634 -0.0962,-0.356307 -1.09776,1.031303 -2.77459,-0.369502 -2.13161,-1.780687 0.29435,-0.646055 1.31494,-0.868349 2.19385,-0.47789 0.17431,0.07746 0.28597,-0.01832 0.43189,-0.370679 0.4657,-1.124272 1.48682,-1.875118 3.0253,-2.224512 l 0.83669,-0.190017 0.48017,-4.231528 c 0.86203,-7.596624 1.20013,-7.310082 -9.90985,-8.398065 -1.64942,-0.161513 -3.24742,-0.327978 -3.55114,-0.369916 l -0.55219,-0.07624 0.0887,1.136049 c 0.0888,1.136812 -0.2844,4.68654 -1.765,16.78902 -0.28546,2.333315 -0.74378,6.118553 -1.01848,8.41163 -0.2747,2.2931 -0.80304,6.670809 -1.17406,9.728254 -0.37105,3.057444 -0.7389,6.113274 -0.81745,6.790734 -0.0984,0.848198 -0.26271,1.45201 -0.52781,1.939082 -0.48511,0.89127 -1.12332,0.730323 5.29445,1.335204 6.28866,0.592712 7.33811,0.605666 8.23485,0.101671 z m -3.94403,-4.026854 c -0.80456,-0.436934 -0.85168,-1.940107 -0.0778,-2.482158 0.80018,-0.560456 2.05715,-0.06215 2.23502,0.88608 0.24505,1.30609 -0.99787,2.22569 -2.15721,1.596078 z m -4.10835,-3.723738 c -0.99578,-0.783296 -0.36889,-2.489245 0.91472,-2.489245 0.95569,0 1.67402,1.03887 1.31599,1.903229 -0.35406,0.854784 -1.50475,1.15705 -2.23071,0.586016 z m 4.99443,-2.416056 c -1.22193,-0.664091 -0.66808,-2.560101 0.74784,-2.560101 0.84589,0 1.3166,0.489841 1.3166,1.370098 0,1.112627 -1.07095,1.72996 -2.06444,1.190003 z m -4.3058,-3.650635 c -1.0901,-1.090099 0.33642,-2.997995 1.69707,-2.269787 0.35862,0.191915 0.72334,0.892514 0.72334,1.389399 0,1.055815 -1.64621,1.654611 -2.42041,0.880388 z m 4.82755,-2.486912 c -0.88972,-0.8897 -0.11329,-2.543701 1.11662,-2.378742 0.71645,0.09609 0.94954,0.279062 1.15722,0.908347 0.44793,1.357209 -1.27372,2.470511 -2.27384,1.470395 z m -4.06809,-3.510603 c -0.88172,-0.817165 -0.21752,-2.420767 1.00266,-2.420767 0.39572,0 0.64556,0.111027 0.96213,0.427621 1.27804,1.278044 -0.63853,3.222273 -1.96479,1.993146 z m 0.97002,-5.773891 c -1.25846,-0.78744 -0.4922,-2.800278 0.98352,-2.583523 0.69602,0.102216 1.17031,0.670284 1.17031,1.401676 0,1.152842 -1.17221,1.796062 -2.15383,1.181847 z m 0.73468,-5.936713 c -0.49725,-0.348304 -0.68694,-1.113455 -0.42906,-1.730701 0.50044,-1.197702 2.16759,-1.126585 2.57567,0.109893 0.41886,1.269168 -1.05732,2.383779 -2.14661,1.620808 z m 4.62626,-2.694638 c -0.90745,-0.907452 -0.22425,-2.351895 1.11241,-2.351895 0.54831,0 1.23949,0.731959 1.23949,1.312633 0,1.388526 -1.3889,2.002261 -2.3519,1.039262 z m -3.42653,-3.507397 c -1.07084,-0.463213 -1.15055,-2.163841 -0.12335,-2.631851 1.46691,-0.668366 2.81485,1.044562 1.76909,2.248108 -0.35655,0.410349 -1.15426,0.596354 -1.64574,0.383743 z m -37.89148,36.399604 c 0.80604,-1.246007 0.81095,-0.840325 -0.0639,-5.294954 -0.39859,-2.029609 -0.99084,-5.138455 -1.31612,-6.908565 -0.32527,-1.770088 -1.24915,-6.7732 -2.05309,-11.117979 -0.803932,-4.344801 -1.863412,-10.170792 -2.354408,-12.946623 -0.801485,-4.53111 -0.927407,-5.07508 -1.232116,-5.321821 -0.556531,-0.450673 -2.957736,-1.670554 -3.094213,-1.571914 -0.06948,0.0502 -0.691853,0.684482 -1.383074,1.409506 l -1.256759,1.318215 0.8311,3.289901 c 1.772443,7.016343 8.05234,32.225434 8.56359,34.376385 l 0.53896,2.267497 0.97242,0.825823 c 1.12937,0.959181 1.00208,0.981601 1.84761,-0.325471 z m 4.58293,-0.661539 0.75889,-1.11206 -0.79871,-6.312124 c -0.43929,-3.471675 -0.93563,-7.529999 -1.10297,-9.018474 -0.16734,-1.488496 -0.52981,-4.549604 -0.8055,-6.802467 -0.27568,-2.252863 -0.79784,-6.860979 -1.16036,-10.240252 -0.66278,-6.177893 -0.92824,-8.438847 -0.99617,-8.485124 -0.17896,-0.121823 -2.59794,-1.536737 -2.84924,-1.666563 l -0.32562,-0.168231 -1.405297,1.423703 -1.405297,1.423703 0.09803,0.664179 c 0.213374,1.445773 2.241694,12.495273 5.210734,28.386023 0.56374,3.017208 1.25505,6.769536 1.53623,8.338484 l 0.51126,2.852641 0.90119,0.914321 c 1.09952,1.115506 0.92365,1.134479 1.83283,-0.197759 z m 22.32877,0.02656 c 0.27097,-0.474575 0.40361,-1.121263 0.6475,-3.156891 0.16869,-1.408045 0.60804,-5.094534 0.97634,-8.192215 0.36831,-3.097659 1.06171,-8.85781 1.54088,-12.800309 0.47918,-3.942499 1.06642,-8.879772 1.30498,-10.971709 0.23859,-2.091938 0.50618,-4.376554 0.59465,-5.076934 0.49087,-3.885252 0.14507,-4.518942 -1.73292,-3.175603 -0.68477,0.489797 -1.32692,0.921976 -1.427,0.960381 -0.10487,0.04024 -0.22371,0.48428 -0.28046,1.04779 -0.0541,0.537863 -0.45355,4.203634 -0.88751,8.146133 -0.43399,3.942499 -1.02498,9.373495 -1.31336,12.068874 -0.28835,2.695379 -0.78615,7.303496 -1.10621,10.240252 -0.32006,2.936756 -0.64771,5.997864 -0.7281,6.802467 -0.0804,0.804581 -0.17307,1.720495 -0.20592,2.035366 l -0.0597,0.572474 0.95602,1.22433 c 1.06303,1.361374 1.09769,1.366913 1.72084,0.275594 z m -17.85534,-0.575505 0.71532,-0.979573 -0.17177,-3.178111 c -0.34204,-6.328568 -0.60647,-11.153483 -0.81958,-14.954401 -0.11954,-2.132175 -0.41866,-8.089802 -0.66471,-13.239184 -0.52401,-10.966998 -0.26708,-9.491544 -1.84914,-10.618913 -1.62602,-1.158664 -1.55907,-1.163636 -3.13356,0.232348 l -1.31998,1.170332 0.0855,1.17031 c 0.12032,1.647001 1.67596,15.55732 2.73215,24.43033 0.48845,4.103424 1.09954,9.256732 1.35797,11.451802 l 0.46991,3.991067 0.79124,0.801179 c 0.9421,0.95397 0.90326,0.959923 1.80666,-0.277186 z m 4.27279,-0.07703 0.74574,-0.990455 0.0998,-18.787116 c 0.0549,-10.332917 0.13733,-19.581448 0.18326,-20.552298 l 0.0835,-1.76518 -1.29472,-1.126475 c -1.52534,-1.327092 -1.32127,-1.33045 -2.96526,0.04872 l -1.30788,1.097164 -0.0102,0.66601 c -0.01,0.645401 0.70404,14.999741 1.3021,26.178086 0.16142,3.01723 0.38919,7.474889 0.50615,9.905928 l 0.21263,4.42004 0.76616,0.956085 c 0.92202,1.150595 0.77104,1.155131 1.67882,-0.05051 z m 9.76929,-1.699755 c 0.16627,-1.43428 1.26586,-11.798296 1.84699,-17.408448 0.32503,-3.137917 0.85537,-7.993953 1.17853,-10.791222 0.32314,-2.797268 0.7416,-6.582506 0.92987,-8.411651 0.38937,-3.782512 0.47754,-3.336921 -0.97085,-4.906239 l -0.91868,-0.995363 -1.47877,1.105452 -1.47877,1.105473 -0.0988,1.791679 c -0.0543,0.985417 -0.22884,3.898227 -0.3878,6.47294 -0.84236,13.64323 -1.19895,19.374769 -1.60018,25.719628 l -0.44232,6.9946 0.33821,0.466157 c 0.186,0.256402 0.52471,0.720924 0.75265,1.032306 l 0.41447,0.566149 0.91531,-1.005002 c 0.80233,-0.880955 0.92579,-1.095311 1.00011,-1.736459 z m -5.35067,1.592326 0.7757,-0.943654 0.28474,-4.713015 c 0.1566,-2.59216 0.41606,-6.753769 0.57659,-9.248008 0.16051,-2.49424 0.42503,-6.970677 0.58778,-9.947669 0.30109,-5.507216 0.79964,-13.816172 0.9574,-15.956568 l 0.0871,-1.181345 -1.19347,-1.122724 c -1.44082,-1.355421 -1.19079,-1.349947 -2.84067,-0.06211 l -1.35873,1.060592 -0.0923,2.048059 c -0.0507,1.126431 -0.13655,10.380262 -0.19068,20.564052 l -0.0985,18.516036 0.71835,0.966946 c 0.87635,1.179622 0.8333,1.179164 1.78662,0.01941 z M 70.527615,-64.17449 c 2.585792,-0.855766 4.291501,-2.939678 3.453269,-4.218944 -0.291427,-0.444806 -1.398929,-0.512892 -2.42925,-0.149388 -0.887803,0.313236 -1.462893,0.290729 -1.462893,-0.05725 0,-0.41506 1.640043,-0.96675 3.20391,-1.077755 1.416048,-0.100494 1.599109,-2.810746 0.245607,-3.636133 -0.633101,-0.386054 -2.137081,-0.368498 -3.379817,0.03945 -0.739309,0.242707 -1.000335,0.275463 -1.133519,0.142278 -0.486832,-0.486831 0.886145,-1.162132 2.673003,-1.314748 l 1.097187,-0.09371 -0.0079,-0.65829 c -0.02916,-2.44035 -3.968189,-3.040172 -7.675352,-1.168805 -0.948845,0.47898 -1.425972,0.54964 -1.548884,0.229338 -0.207966,-0.542007 1.124228,-1.513249 2.831944,-2.064611 0.422409,-0.136391 0.768008,-0.278255 0.768008,-0.315286 0,-0.144874 -1.206207,-4.660719 -1.275623,-4.775737 -0.263643,-0.436846 -3.894193,5.720242 -4.600789,7.802518 -2.471668,7.283803 2.612943,13.510678 9.241073,11.317069 z m 82.250315,-7.868183 c 3.36822,-1.617472 4.36628,-9.070967 1.51779,-11.334691 -2.45904,-1.954173 -7.13291,-0.661299 -6.4329,1.779466 l 0.13248,0.462013 1.38602,0.0061 c 1.59231,0.007 2.51995,0.335 2.60309,0.920406 0.0558,0.392684 0.0959,0.389805 -1.28902,0.09219 -2.81308,-0.604489 -5.01074,1.45177 -3.4682,3.245062 l 0.36727,0.426989 1.29388,0.01461 c 1.53434,0.01723 2.39102,0.305886 2.39102,0.805388 v 0.320171 l -0.84115,-0.123327 c -2.12572,-0.311687 -2.96236,-0.03393 -2.96236,0.983455 0,1.973147 3.18788,3.417459 5.30208,2.402207 z M 76.641086,-95.03253 c 5.590241,-1.425753 6.832018,-1.77458 7.546857,-2.119961 0.808921,-0.390831 1.01824,-0.365228 2.588125,0.316616 4.073743,1.76928 3.429367,1.780163 5.165717,-0.08708 1.711575,-1.840573 1.537194,-1.813814 3.899929,-0.598818 l 1.82258,0.937243 1.56234,-1.522387 c 1.904666,-1.855992 1.831846,-1.845633 3.990546,-0.56881 1.97009,1.165251 1.62046,1.209479 3.49043,-0.441578 1.87764,-1.657845 1.74893,-1.644085 3.63947,-0.389588 0.82902,0.550098 1.58848,1.047027 1.68771,1.104296 0.1109,0.06401 0.77726,-0.406074 1.72887,-1.219597 1.93392,-1.653236 1.86081,-1.651716 3.71626,-0.07873 l 1.46861,1.244982 1.06102,-0.851905 c 2.56375,-2.058373 2.38152,-2.040803 4.13313,-0.398834 0.72413,0.678789 1.38733,1.237196 1.47376,1.240926 0.18068,0.0076 2.30734,-1.552785 2.37396,-1.742025 0.0912,-0.25908 -3.6073,-4.62334 -5.5196,-6.51315 -1.3684,-1.3523 -1.33433,-1.22987 -0.65461,-2.35266 0.73118,-1.20782 1.77378,-3.27658 1.89183,-3.75386 l 0.0984,-0.39783 -1.87994,-0.041 -1.87991,-0.041 v -0.29259 -0.29258 l 2.04557,-0.0732 2.04555,-0.0731 0.23824,-1.17031 c 0.33236,-1.63285 0.5719,-1.56679 -2.54868,-0.70304 -1.88944,0.52299 -2.45694,0.52201 -2.02082,-0.003 0.26388,-0.31795 2.36845,-1.01733 4.44595,-1.47746 l 0.4023,-0.0891 v -1.28943 c 0,-0.70921 -0.0407,-1.3301 -0.0904,-1.3798 -0.12427,-0.12424 -2.34372,1.00657 -3.92867,2.00171 l -1.30814,0.82133 -0.22563,-0.23149 -0.22563,-0.23148 0.51199,-0.43665 c 0.84914,-0.72417 2.19619,-1.57006 3.51096,-2.20475 1.70675,-0.82388 1.61557,-0.7064 1.37179,-1.76769 -0.83705,-3.64392 -2.59898,-6.97388 -5.04221,-9.52956 l -1.26821,-1.32654 -0.0722,-3.43774 c -0.10977,-5.22792 -0.91997,-9.0699 -1.9127,-9.0699 -1.60659,0 -7.57298,6.94599 -7.31769,8.51914 0.1194,0.73574 -0.23994,0.91618 -1.37836,0.6921 -4.54359,-0.8943 -12.336989,0.30573 -16.232752,2.49954 -1.018697,0.57365 -1.375681,0.55169 -2.126701,-0.13079 -3.478719,-3.16127 -8.753914,-6.31356 -10.565394,-6.31356 h -0.504584 l -0.260088,0.84115 c -0.899122,2.90784 0.0048,9.17759 2.02178,14.02399 l 0.587215,1.41094 -0.378225,1.58177 c -0.775488,3.2433 -0.861719,7.32003 -0.227179,10.74172 0.617072,3.32743 0.914736,2.35545 -2.553733,8.3385 -1.892019,3.26369 -4.903229,8.953817 -4.903229,9.265352 0,0.227964 -0.371116,0.305275 4.504286,-0.938181 z m 13.586833,-7.32753 c -0.73475,-0.73475 6.547526,-6.63177 8.18962,-6.63177 0.937984,0 0.556924,0.49566 -1.085519,1.41204 -1.673171,0.93351 -3.740116,2.48553 -5.39499,4.05099 -1.302731,1.23238 -1.50627,1.37158 -1.709111,1.16874 z m -4.117447,-3.46624 c -1.227971,-0.89793 8.091699,-5.20016 11.289198,-5.21143 1.276845,-0.005 0.917506,0.61655 -0.508313,0.87856 -2.462115,0.45239 -6.269205,1.99299 -9.098074,3.68166 -0.685835,0.40942 -1.286659,0.76612 -1.335139,0.79266 -0.04848,0.0266 -0.204935,-0.0371 -0.347672,-0.14145 z m 18.246218,-2.40814 c -1.17796,-0.41977 -1.62508,-0.93452 -1.15244,-1.32675 0.15357,-0.12744 0.3842,-0.0807 0.98746,0.2001 2.58222,1.20204 6.35978,-2.53143 3.89509,-3.84964 -2.53716,-1.35701 -2.34032,-2.39676 0.55749,-2.94465 2.80632,-0.5306 3.27376,0.2598 1.49236,2.52344 -1.33937,1.70194 1.21942,3.90484 3.34213,2.87726 0.34078,-0.16498 0.7928,-0.52704 1.0045,-0.8046 0.55605,-0.72899 1.09265,-0.63336 0.89369,0.15931 -0.50096,1.99605 -3.7809,2.5719 -5.54678,0.97379 l -0.26964,-0.24403 -0.31598,0.43549 c -1.38316,1.90637 -3.13716,2.62415 -4.88788,2.00028 z m -19.784983,-2.58566 c -0.8405,-1.01275 5.53487,-2.71769 10.089839,-2.69828 2.591723,0.0109 3.14904,0.10869 3.14904,0.5518 v 0.3358 l -2.998932,0.0425 c -3.468011,0.0492 -4.922595,0.2851 -8.124608,1.31763 -1.537849,0.4959 -1.996591,0.59362 -2.115339,0.45052 z m 8.131086,-7.18916 c -0.273217,-0.71205 1.353654,-1.81776 3.097375,-2.10513 1.923838,-0.31705 5.300272,1.24642 4.576102,2.119 -0.26007,0.31335 -0.509207,0.28417 -1.142482,-0.13384 -1.616404,-1.06693 -3.666993,-1.09873 -5.170144,-0.0802 -0.717348,0.48609 -1.222585,0.56039 -1.360851,0.20013 z m 18.692337,-2.17404 c -0.73648,-1.91926 3.8813,-4.26714 5.98085,-3.04094 0.94804,0.55368 0.44631,1.49672 -0.54484,1.02406 -1.29946,-0.61966 -3.10137,-0.003 -4.18466,1.43158 -0.60805,0.80534 -1.08186,1.02694 -1.25135,0.5853 z"
     id="path15"
     sodipodi:nodetypes="sssscsscssscsscssscsscssssssssscsscsssscsssssscsssssscssssscssscssscssssssssssscsscsssssssscssssssssssscsscsssssssscccsssssscssssssssscsscsssssssscssssssssssssscssssssssscsscsscsssssssssscsssssssssssssssssssssscssssscsssscssssssssscccssssscsssscccsssssssssssssssssssssscsssssssssssssssssssscssssssssssssssscssssssscssscsssssssssssssssssssssssssssssssssssssssssssssssssssssssscsscssscsssssscccssscsssssssssssssssscssscssssscssscssccsscsscssscsscssssscccssscsscssscsssscsscsscssssssssssscsssssssssssscsssscsscsssscsssscssssssscssssssscccccccsssscssscccsssscssscssscsscssssccssssscsssscsscssssssscssscscssssssssssssss"
     inkscape:label="cat" /><g
     id="g17"
     font-family="'Noto Sans Display', 'Noto Sans', 'DejaVu Sans', sans-serif"
     font-kerning="normal"
     transform="matrix(0.18050215,0,0,0.18050215,-15.229584,-18.97549)"><!-- Warm accent sampled from the application's circular icon. --><text
       x="82"
       y="236"
       font-size="188px"
       font-weight="700"
       letter-spacing="-7"
       fill="#e9ebee"
       id="text16">Smegg</text><text
       x="675.90448"
       y="234.11996"
       font-size="188px"
       font-weight="300"
       letter-spacing="-5"
       fill="#9aa1ab"
       id="text17">Tuner</text></g></g></g>
</svg>
