<?xml version="1.0" encoding="UTF-8" standalone="no"?>
<!-- Created with Inkscape (http://www.inkscape.org/) -->

<svg
   width="36.57959mm"
   height="39.275761mm"
   viewBox="0 0 36.57959 39.27576"
   version="1.1"
   id="svg1"
   inkscape:version="1.4.4 (dcaf3e7d9e, 2026-05-05)"
   sodipodi:docname="SmeggTunerMascot.svg"
   xml:space="preserve"
   inkscape:export-filename="thethughunterhoodie.png"
   inkscape:export-xdpi="256"
   inkscape:export-ydpi="256"
   xmlns:inkscape="http://www.inkscape.org/namespaces/inkscape"
   xmlns:sodipodi="http://sodipodi.sourceforge.net/DTD/sodipodi-0.dtd"
   xmlns="http://www.w3.org/2000/svg"
   xmlns:svg="http://www.w3.org/2000/svg">
  <sodipodi:namedview
   id="namedview1"
   pagecolor="#505050"
   bordercolor="#ffffff"
   borderopacity="1"
   inkscape:showpageshadow="0"
   inkscape:pageopacity="0"
   inkscape:pagecheckerboard="1"
   inkscape:deskcolor="#505050"
   inkscape:document-units="mm"
   inkscape:zoom="1.4930696"
   inkscape:cx="-86.064305"
   inkscape:cy="64.96683"
   inkscape:window-width="1920"
   inkscape:window-height="1044"
   inkscape:window-x="0"
   inkscape:window-y="0"
   inkscape:window-maximized="1"
   inkscape:current-layer="layer1" />
  <defs
   id="defs1" />
  <g
   inkscape:label="Layer 1"
   inkscape:groupmode="layer"
   id="layer1"
   transform="translate(-158.22082,-260.66041)">
    
    
    
  <path
   style="fill:#ffffff;stroke:none;stroke-width:0.0439097"
   d="m 162.59717,299.8758 c -2.86185,-0.25011 -4.37635,-1.26595 -4.37635,-2.93541 0,-1.85861 2.25037,-3.03102 4.94717,-2.5774 1.83385,0.30847 3.35645,0.15957 3.9664,-0.38787 0.008,-0.007 -0.0639,-0.25679 -0.15984,-0.55471 -0.58806,-1.82694 -0.42201,-3.60343 0.51922,-5.5548 0.26351,-0.54634 0.57152,-1.33704 0.63422,-1.6282 l 0.0307,-0.1427 -0.21206,-7.9e-4 c -1.41698,-0.005 -2.45833,-1.10915 -2.54805,-2.70148 -0.0621,-1.10198 0.37839,-2.167 1.55677,-3.76399 l 0.28388,-0.38473 -0.0976,-0.38269 c -0.2838,-1.11266 0.0396,-1.6786 1.13645,-1.9886 l 0.4118,-0.11638 0.0974,-0.23759 c 0.25377,-0.61876 0.77735,-1.60951 1.54102,-2.91607 0.19761,-0.33811 0.4791,-0.82653 0.62552,-1.08537 l 0.26623,-0.47063 -0.0427,-0.14411 c -0.31705,-1.07176 -0.32989,-2.7733 -0.0296,-3.92755 l 0.0933,-0.3585 -0.15669,-0.34406 c -0.77488,-1.70165 -0.96144,-4.47776 -0.33242,-4.94654 0.4181,-0.31157 1.91495,0.36949 3.32108,1.51105 0.25,0.20297 0.48098,0.38795 0.51332,0.41107 0.0409,0.0293 0.1561,-0.006 0.37973,-0.11733 1.14773,-0.56987 2.76394,-0.8599 4.15181,-0.74506 0.36735,0.0304 0.65299,0.0368 0.66032,0.0148 0.25043,-0.75131 1.83298,-2.48297 2.47671,-2.7101 0.68668,-0.24227 1.13147,1.01532 1.13493,3.20885 v 0.747 l 0.32885,0.34526 c 0.77296,0.81146 1.32184,1.8812 1.61685,3.15109 l 0.027,0.1164 0.40642,-0.12686 c 0.79979,-0.24965 1.96874,-0.44931 2.06529,-0.35276 0.11626,0.11626 -0.0275,0.19911 -0.44178,0.2546 -0.50276,0.0673 -1.05746,0.19731 -1.57932,0.37001 l -0.40614,0.13441 0.028,0.44646 c 0.0153,0.24555 0.0318,0.45129 0.0363,0.45718 0.005,0.006 0.15494,-0.008 0.33419,-0.0316 0.77002,-0.0999 2.20073,-0.0125 2.29646,0.14039 0.0948,0.15142 -0.008,0.16671 -0.84733,0.12568 -0.70882,-0.0347 -1.60213,-0.004 -1.79282,0.0624 -0.0302,0.0105 -0.0552,0.0838 -0.0556,0.16307 0,0.0793 -0.0287,0.26264 -0.063,0.40754 -0.076,0.32146 -0.096,0.30411 0.4253,0.3695 0.82513,0.10351 1.84507,0.43549 1.86989,0.60863 0.0225,0.15615 -0.075,0.15416 -0.58693,-0.012 -0.90911,-0.29512 -1.84161,-0.44435 -1.89116,-0.30264 -0.095,0.27185 -0.34478,0.79902 -0.49811,1.05139 l -0.17811,0.29319 0.52498,0.54311 c 0.28874,0.29871 0.72787,0.79535 0.97586,1.10364 0.46287,0.57542 1.20516,1.38642 1.28644,1.40554 0.0251,0.006 0.2037,-0.107 0.3969,-0.25091 0.1932,-0.1439 0.4133,-0.2953 0.48911,-0.33644 l 0.13784,-0.0748 2.04883,0.22834 c 3.23715,0.36078 3.29091,0.4129 2.99625,2.90396 -0.0643,0.54339 -0.11684,1.04725 -0.11684,1.1197 v 0.13173 l 0.30596,0.0738 c 1.01531,0.24481 1.44272,1.14283 1.2083,2.5388 -0.21106,1.2569 -0.75155,1.90175 -1.64774,1.96587 l -0.2948,0.0211 -0.0745,0.57631 c -0.28204,2.18159 -0.55559,4.15708 -0.59404,4.29014 -0.16994,0.58826 -0.90397,1.07366 -1.50225,0.99342 -0.20439,-0.0274 -0.20508,-0.0154 -0.0204,0.35443 0.79806,1.59759 0.4999,3.47931 -0.83421,5.26479 -0.12946,0.17329 -0.2354,0.32643 -0.2354,0.3403 0,0.0139 0.25194,0.0256 0.55984,0.026 2.01773,0.003 3.23595,0.70466 3.23778,1.86514 0.003,1.35508 -1.03669,1.61668 -4.36846,1.1001 -0.54337,-0.0842 -1.2646,-0.18457 -1.60268,-0.22293 -2.07267,-0.23516 -2.73328,-0.81135 -2.39213,-2.08639 0.12669,-0.47342 0.15007,-0.61285 0.10282,-0.6127 -0.0209,4e-5 -0.26514,0.0574 -0.54287,0.12751 -0.74935,0.18906 -1.38332,0.27222 -2.21745,0.29086 l -0.74647,0.0167 -0.39518,0.17649 c -0.21735,0.0971 -0.52856,0.211 -0.69157,0.25318 -0.36877,0.0954 -0.36803,0.10789 0.018,0.30222 1.22312,0.61594 1.42534,2.14248 0.34788,2.62601 -0.56346,0.25287 -1.63849,0.32142 -2.85761,0.18222 -5.30942,-0.60622 -5.88391,-0.77875 -5.88391,-1.76706 0,-0.12063 0.0259,-0.11144 -0.58854,-0.20813 -0.57126,-0.0899 -1.0995,-0.26689 -1.60461,-0.53769 l -0.37092,-0.19887 -0.11208,0.0721 c -0.2799,0.17999 -0.79933,0.41886 -1.10006,0.50589 -0.18113,0.0524 -0.35203,0.10271 -0.37981,0.11178 -0.0335,0.0109 -0.0151,0.0862 0.0549,0.22459 0.73859,1.45889 -1.75799,2.43747 -5.40531,2.11872 z m 3.11758,-0.51561 c 1.76098,-0.2728 2.46304,-0.94473 1.74124,-1.66652 -0.44358,-0.44359 -0.76828,-0.50571 -2.6853,-0.51376 -1.86731,-0.008 -2.42702,-0.0896 -2.60767,-0.38102 -0.0991,-0.15984 0.0264,-0.18047 0.44037,-0.0724 l 0.38896,0.10153 0.8782,-0.019 c 2.36962,-0.0513 2.86818,-0.0112 3.45542,0.27761 l 0.20611,0.10137 0.42494,-0.10223 c 0.38277,-0.0921 1.16073,-0.40875 1.16073,-0.47247 0,-0.014 -0.24517,-0.2672 -0.54483,-0.5627 -0.52782,-0.52047 -0.86694,-0.96757 -1.12363,-1.48132 -0.0543,-0.10867 -0.10362,-0.20327 -0.10959,-0.21021 -0.006,-0.007 -0.14838,0.0564 -0.31642,0.14073 -0.90836,0.45587 -2.0436,0.56616 -3.4601,0.33615 -2.46203,-0.39977 -4.09605,0.0627 -4.74399,1.34271 l -0.12998,0.25678 v 0.48301 0.48301 l 0.13677,0.28541 c 0.6881,1.43597 3.69935,2.16742 6.88877,1.67333 z m 13.2443,-0.25725 c 0.15172,-0.38761 0.0639,-0.73803 -0.25542,-1.01911 -0.26993,-0.23759 -0.22434,-0.39769 0.0699,-0.24553 0.41209,0.21309 0.65365,0.89511 0.46604,1.31568 l -0.0375,0.084 0.46292,-0.0283 c 0.5458,-0.0334 0.57766,-0.043 0.64688,-0.19487 0.15753,-0.34575 0.0834,-0.78783 -0.18288,-1.09113 -0.233,-0.26538 -0.0461,-0.39687 0.19616,-0.13798 0.24863,0.26574 0.37774,0.70486 0.30387,1.03361 -0.0685,0.30467 0.3189,0.14193 0.45874,-0.19273 0.54197,-1.2971 -1.80393,-2.34473 -4.16727,-1.861 -0.37113,0.076 -0.52218,0.0593 -0.50583,-0.0557 0.0281,-0.1979 1.02791,-0.42761 1.86259,-0.42795 h 0.44344 l 0.20584,-0.43761 c 1.07553,-2.28654 -0.0452,-4.54978 -2.75058,-5.55451 l -0.42839,-0.15909 -2.05253,0.53662 c -2.73327,0.71459 -3.024,0.70666 -3.43402,-0.0937 -0.0586,-0.11436 -0.97055,-3.55872 -1.21238,-4.57892 -0.0236,-0.0996 -0.0462,-0.11693 -0.12263,-0.0941 -0.27001,0.0808 -0.30827,0.12213 -0.3629,0.39178 -0.0752,0.37092 -0.31459,1.00459 -0.62222,1.64661 -1.02774,2.14494 -1.14753,3.95462 -0.38554,5.82459 0.76466,1.87651 2.53009,3.30695 4.27946,3.46746 l 0.29073,0.0267 0.0781,-0.22307 c 0.043,-0.1227 0.22747,-0.44253 0.40997,-0.71074 0.18254,-0.26822 0.39177,-0.61571 0.46501,-0.77221 0.10919,-0.23333 0.14999,-0.28213 0.2267,-0.27119 0.21791,0.0311 0.0127,0.684 -0.41085,1.30787 -0.85677,1.26165 -0.46622,1.83206 1.4265,2.08341 0.51239,0.0681 3.92938,0.48859 4.23728,0.5215 0.34266,0.0366 0.35187,0.0345 0.40073,-0.0903 z m 12.00053,-0.85624 c 0.18544,-0.28338 0.12083,-0.67758 -0.16124,-0.98358 -0.31075,-0.33714 -0.10417,-0.45839 0.21447,-0.12586 0.29271,0.30548 0.36523,0.62782 0.24961,1.10944 l -0.0238,0.0988 h 0.2847 c 0.57205,0 0.67746,-0.0724 0.72112,-0.49524 0.0282,-0.27302 -0.0351,-0.5136 -0.18939,-0.72032 -0.13414,-0.1797 -0.13716,-0.28823 -0.007,-0.26944 0.26421,0.0383 0.52364,0.67087 0.4386,1.06953 -0.0717,0.3364 0.23164,0.22729 0.39502,-0.14206 0.48398,-1.09408 -0.70149,-1.79749 -3.16923,-1.88055 -1.08048,-0.0364 -1.08513,-0.0411 -0.59923,-0.60827 1.59528,-1.86204 1.93911,-3.82588 0.96219,-5.49557 l -0.18071,-0.30886 -1.1343,-0.0998 c -0.62383,-0.0549 -1.38126,-0.12852 -1.68314,-0.16358 l -0.54886,-0.0637 -0.10977,-0.12221 c -0.0604,-0.0672 -0.21127,-0.25574 -0.33534,-0.41893 l -0.22555,-0.29672 -0.32073,0.35348 c -0.41839,0.46113 -0.45199,0.46127 -0.75377,0.003 -0.28046,-0.4257 -0.23199,-0.42562 -0.58743,-10e-4 -0.36171,0.43212 -0.38642,0.43298 -0.69427,0.024 -0.30691,-0.4078 -0.30443,-0.40645 -0.42555,-0.23304 -0.45673,0.6539 -0.53877,0.67734 -0.88546,0.25299 -0.3048,-0.37312 -0.28456,-0.37216 -0.53218,-0.0252 -0.37349,0.52338 -0.37063,0.523 -0.77486,0.102 -0.24535,-0.25553 -0.31364,-0.30535 -0.34615,-0.25248 -0.48826,0.79411 -0.55036,0.81915 -0.9855,0.39723 l -0.32154,-0.31179 -0.2557,0.39588 c -0.14062,0.21773 -0.29265,0.40761 -0.33784,0.42196 -0.0881,0.028 -0.0905,0.0265 -0.50626,-0.32147 -0.34636,-0.28988 -0.28403,-0.30952 -0.73234,0.23064 -0.53096,0.6398 -0.48763,0.60564 -0.72358,0.57052 -0.26609,-0.0396 -0.21998,-0.003 0.27784,0.22138 2.42017,1.09008 3.44014,3.50491 2.41633,5.72082 -0.18261,0.3952 -0.18235,0.35902 -0.003,0.35902 2.68102,0 5.12376,-2.87604 5.44494,-6.41081 0,0 0.008,-0.53756 0.20293,-0.54887 0.12293,-0.007 0.16735,0.32932 0.16735,0.32932 0.0889,2.05055 -1.20631,4.83735 -2.70375,5.81735 -0.48866,0.31978 0.60254,0.2311 2.26086,-0.18375 0.83752,-0.20952 0.92216,-0.0849 0.64897,0.95517 -0.26252,0.99947 0.13719,1.40629 1.57118,1.5992 0.27046,0.0364 1.06476,0.14751 1.76514,0.24695 0.70035,0.0994 1.46108,0.20604 1.6905,0.23688 0.22945,0.0309 0.43151,0.0584 0.44908,0.0612 0.0175,0.003 0.061,-0.0394 0.0966,-0.0937 z m -17.31913,-7.96101 c 2.39869,-0.6197 2.37321,-0.61118 2.47552,-0.8268 l 0.0743,-0.15658 -0.50949,-1.98801 c -0.28019,-1.09341 -0.64785,-2.53139 -0.817,-3.19553 -0.16912,-0.66413 -0.4753,-1.85957 -0.68035,-2.65653 -0.20505,-0.79696 -0.5706,-2.22826 -0.8123,-3.18066 -0.48091,-1.89482 -0.50281,-1.95722 -0.71903,-2.04757 l -0.14822,-0.0619 -1.02346,0.26324 c -4.08028,1.04949 -3.77357,0.94131 -3.98398,1.40515 -0.15024,0.33123 -0.14998,0.33302 0.31664,2.15079 0.1333,0.51923 0.25329,0.99345 0.26665,1.05383 l 0.0243,0.10977 0.38611,10e-4 c 0.32612,10e-4 0.42613,0.0198 0.64389,0.12075 0.3116,0.14442 0.29106,0.14373 0.29106,0.01 0,-0.0604 0.006,-0.10978 0.0124,-0.10978 0.007,0 0.72012,-0.1778 1.58507,-0.39511 1.79236,-0.45033 1.62144,-0.44823 1.72214,-0.0211 0.0994,0.42157 0.23159,0.35163 -1.4755,0.78041 -1.1176,0.28072 -1.46701,0.3842 -1.45452,0.43076 0.009,0.0337 0.0191,0.16706 0.022,0.29635 l 0.006,0.23508 0.16319,0.0942 0.16317,0.0942 1.41457,-0.35992 c 0.77801,-0.19796 1.42946,-0.35071 1.44769,-0.33944 0.0557,0.0344 0.18376,0.68176 0.14275,0.72182 -0.0295,0.0288 -2.08894,0.568 -2.74955,0.71987 -0.0771,0.0177 -0.12076,0.0565 -0.12076,0.10731 0,0.0437 -0.0496,0.17674 -0.11033,0.29555 -0.25308,0.49549 -0.24138,0.49595 1.46695,0.0572 1.68447,-0.4326 1.72371,-0.44197 1.74816,-0.41752 0.0696,0.0696 0.1805,0.66852 0.132,0.71274 -0.0645,0.0588 -2.8535,0.77701 -3.03721,0.78209 l -0.12975,0.004 -0.0613,-0.21533 -0.0613,-0.21533 -0.0759,0.22412 c -0.10705,0.31615 -0.29157,0.56326 -0.55944,0.74908 -0.27646,0.19179 -0.2745,0.17058 -0.083,0.90127 0.083,0.31682 0.30967,1.19845 0.50371,1.95918 0.54684,2.14402 0.55883,2.1771 0.85133,2.34989 0.33993,0.20079 0.1402,0.23287 2.75328,-0.44221 z m -2.1686,-1.02151 c -0.0122,-0.0198 -0.055,-0.18028 -0.0952,-0.35672 -0.0845,-0.37141 -0.10081,-0.34944 0.3425,-0.46044 0.17521,-0.0439 0.84998,-0.21655 1.4995,-0.38375 1.396,-0.35935 1.2891,-0.36298 1.3956,0.0475 0.11022,0.42475 0.22505,0.36375 -1.52292,0.80902 -1.56024,0.39744 -1.58366,0.40242 -1.61951,0.34441 z m -0.3738,-1.51188 c -0.19233,-0.50827 -0.16558,-0.66131 0.12451,-0.71245 0.0861,-0.0152 0.76496,-0.18531 1.50857,-0.37807 1.5416,-0.39961 1.40555,-0.40201 1.50659,0.0266 0.099,0.41966 0.2386,0.34641 -1.49743,0.78542 -1.68704,0.42661 -1.59226,0.41054 -1.64224,0.27846 z m -0.40423,-1.53684 c -0.0286,-0.10264 -0.0541,-0.26565 -0.0566,-0.36225 l -0.005,-0.17564 0.28541,-0.0719 c 0.15697,-0.0395 0.83695,-0.21326 1.51108,-0.38604 1.43989,-0.36905 1.33372,-0.37017 1.43926,0.0153 0.10136,0.3703 0.0913,0.40126 -0.14812,0.45462 -0.10429,0.0232 -0.77859,0.19308 -1.49844,0.37742 -1.55241,0.39754 -1.46113,0.38867 -1.52802,0.14855 z m -1.51181,-5.75216 c -0.0816,-0.21553 -0.18142,-0.64364 -0.15827,-0.67903 0.0397,-0.0608 3.22019,-0.85654 3.25752,-0.81506 0.0594,0.066 0.18458,0.67738 0.14621,0.7142 -0.10522,0.10099 -3.21916,0.84928 -3.24546,0.77989 z m -0.43719,-1.67243 c -0.12446,-0.45978 -0.23839,-0.39552 1.47116,-0.82981 1.8079,-0.45927 1.70878,-0.45587 1.81369,-0.0623 0.10491,0.39365 0.10959,0.38762 -0.39293,0.50763 -0.23831,0.0569 -0.92271,0.22932 -1.52091,0.38312 -1.36453,0.35084 -1.27645,0.35075 -1.37101,10e-4 z m 8.1498,10.5789 c 0.0459,-0.0583 0.22159,-0.2662 0.39052,-0.46202 0.37232,-0.43155 0.59164,0.68617 -1.53842,-7.8407 l -1.12977,-4.52269 -0.69683,-0.29098 c -0.38325,-0.16003 -0.71258,-0.27666 -0.73184,-0.25917 -0.0372,0.0338 0.13295,0.73465 0.87305,3.59525 0.66302,2.56264 1.52693,5.92591 1.99244,7.75667 0.55319,2.17564 0.61129,2.31547 0.84085,2.02364 z m 14.38836,-0.33325 c 0.1978,-0.11117 0.42145,-0.36277 0.49543,-0.55737 0.0465,-0.1222 0.65537,-4.58157 0.65537,-4.79963 0,-0.0896 -0.0317,-0.1254 -0.14838,-0.16758 -0.56359,-0.2038 -0.91035,-0.78557 -0.74991,-1.25813 0.0648,-0.19078 0.0578,-0.28661 -0.0209,-0.28661 -0.0196,0 -0.0478,0.0757 -0.0626,0.16823 -0.0494,0.30866 -0.35946,0.44414 -0.62963,0.27506 -0.35613,-0.2229 -0.12792,-0.87675 0.27194,-0.7792 0.0484,0.0118 0.13073,0.0348 0.18301,0.0511 l 0.0951,0.0296 -0.0407,-0.18108 c -0.0636,-0.28287 0.0282,-0.60037 0.23868,-0.82549 0.15083,-0.16136 0.1262,-0.25263 -0.0289,-0.10695 -0.32951,0.30955 -0.8328,-0.11091 -0.63982,-0.53449 0.0883,-0.19391 0.39468,-0.26064 0.6585,-0.14343 0.0523,0.0233 0.0858,-0.006 0.12965,-0.11127 0.13977,-0.33746 0.44627,-0.56282 0.90805,-0.6677 l 0.25114,-0.057 0.14412,-1.27011 c 0.25873,-2.28018 0.36023,-2.19417 -2.9745,-2.52073 -0.49509,-0.0485 -0.97473,-0.0985 -1.0659,-0.11104 l -0.16574,-0.0229 0.0266,0.34099 c 0.0266,0.34122 -0.0854,1.4067 -0.52978,5.03932 -0.0857,0.70036 -0.22322,1.83652 -0.3057,2.52481 -0.0824,0.68828 -0.24103,2.00228 -0.35239,2.91999 -0.11137,0.91771 -0.22178,1.83494 -0.24538,2.03828 -0.0295,0.25459 -0.0788,0.43583 -0.1584,0.58203 -0.1456,0.26752 -0.33719,0.21921 1.58916,0.40077 1.88757,0.1779 2.20258,0.18179 2.47174,0.0305 z m -1.18383,-1.20868 c -0.24151,-0.13115 -0.25564,-0.58233 -0.0233,-0.74503 0.24019,-0.16823 0.61746,-0.0186 0.67085,0.26596 0.0735,0.39203 -0.29951,0.66805 -0.64749,0.47907 z m -1.23314,-1.1177 c -0.2989,-0.23511 -0.11073,-0.74716 0.27456,-0.74716 0.28686,0 0.50247,0.31182 0.39499,0.57127 -0.10628,0.25656 -0.45167,0.34729 -0.66955,0.17589 z m 1.4991,-0.72519 c -0.36677,-0.19934 -0.20053,-0.76844 0.22447,-0.76844 0.2539,0 0.39518,0.14703 0.39518,0.41125 0,0.33396 -0.32146,0.51926 -0.61965,0.35719 z m -1.29241,-1.09576 c -0.32721,-0.3272 0.10096,-0.89987 0.50938,-0.6813 0.10763,0.0576 0.21711,0.2679 0.21711,0.41704 0,0.31691 -0.49411,0.49664 -0.72649,0.26426 z m 1.44902,-0.74647 c -0.26707,-0.26705 -0.034,-0.76351 0.33514,-0.71399 0.21506,0.0288 0.28501,0.0838 0.34738,0.27265 0.13443,0.40737 -0.38233,0.74154 -0.68252,0.44134 z m -1.22108,-1.05373 c -0.26464,-0.24527 -0.0653,-0.7266 0.30096,-0.7266 0.11877,0 0.19378,0.0333 0.28879,0.12835 0.38362,0.38361 -0.19166,0.96718 -0.58975,0.59825 z m 0.29117,-1.73306 c -0.37774,-0.23636 -0.14774,-0.84052 0.2952,-0.77547 0.20891,0.0307 0.35128,0.2012 0.35128,0.42073 0,0.34603 -0.35184,0.5391 -0.64648,0.35474 z m 0.22051,-1.78194 c -0.14926,-0.10455 -0.20619,-0.33421 -0.12878,-0.51948 0.15021,-0.3595 0.65061,-0.33816 0.77312,0.033 0.1257,0.38095 -0.31737,0.7155 -0.64434,0.4865 z m 1.38861,-0.80882 c -0.27239,-0.27237 -0.0673,-0.70593 0.3339,-0.70593 0.16457,0 0.37203,0.2197 0.37203,0.39399 0,0.41678 -0.41687,0.601 -0.70593,0.31194 z m -1.02849,-1.05276 c -0.32144,-0.13904 -0.34536,-0.64949 -0.037,-0.78997 0.44032,-0.20061 0.84489,0.31353 0.53102,0.67478 -0.10703,0.12317 -0.34647,0.179 -0.49398,0.11519 z m -11.37335,10.92556 c 0.24193,-0.37399 0.24339,-0.25223 -0.019,-1.58931 -0.11965,-0.6092 -0.29742,-1.54234 -0.39505,-2.07365 -0.0976,-0.5313 -0.37494,-2.03302 -0.61624,-3.33713 -0.24133,-1.30412 -0.55933,-3.05282 -0.70671,-3.88601 -0.24055,-1.36004 -0.27836,-1.52331 -0.36983,-1.59737 -0.16703,-0.13528 -0.88778,-0.50143 -0.92874,-0.47182 -0.0209,0.015 -0.20767,0.20545 -0.41513,0.42307 l -0.37722,0.39567 0.24945,0.98748 c 0.532,2.106 2.41697,9.67266 2.57043,10.31829 l 0.16176,0.68059 0.29187,0.24789 c 0.33898,0.28789 0.30077,0.29463 0.55459,-0.0977 z m 1.37557,-0.19856 0.2278,-0.3338 -0.23974,-1.89462 c -0.13186,-1.04204 -0.28085,-2.26017 -0.33107,-2.70695 -0.0502,-0.44678 -0.15901,-1.36559 -0.24178,-2.0418 -0.0827,-0.67621 -0.23947,-2.05936 -0.34829,-3.07368 -0.19894,-1.85432 -0.27861,-2.53297 -0.29901,-2.54685 -0.0537,-0.0366 -0.77978,-0.46126 -0.85521,-0.50024 l -0.0977,-0.0505 -0.4218,0.42733 -0.4218,0.42734 0.0294,0.19935 c 0.064,0.43396 0.67286,3.75054 1.56403,8.52024 0.1692,0.90563 0.37671,2.03192 0.46109,2.50285 l 0.15345,0.85624 0.27051,0.27443 c 0.33005,0.33483 0.27723,0.34053 0.55013,-0.0593 z m 6.70213,0.008 c 0.0813,-0.14244 0.12115,-0.33655 0.19434,-0.94756 0.0506,-0.42263 0.18251,-1.52915 0.29305,-2.45894 0.11057,-0.92978 0.31869,-2.65873 0.46252,-3.84209 0.14382,-1.18337 0.32009,-2.66532 0.39169,-3.29323 0.0716,-0.6279 0.15192,-1.31365 0.17848,-1.52387 0.14735,-1.16618 0.0435,-1.35638 -0.52014,-0.95317 -0.20553,0.14701 -0.39828,0.27673 -0.42833,0.28826 -0.0315,0.0121 -0.0671,0.14536 -0.0842,0.3145 -0.0161,0.16145 -0.13613,1.26174 -0.26641,2.44511 -0.13025,1.18337 -0.30763,2.81351 -0.3942,3.62255 -0.0865,0.80903 -0.23596,2.19219 -0.33203,3.07367 -0.0961,0.88149 -0.19441,1.8003 -0.21854,2.0418 -0.0241,0.2415 -0.052,0.51642 -0.0618,0.61093 l -0.018,0.17183 0.28697,0.36749 c 0.31906,0.40862 0.32946,0.41029 0.51652,0.0827 z m -5.3594,-0.17274 0.21471,-0.29402 -0.0515,-0.95393 c -0.10269,-1.89956 -0.18206,-3.34779 -0.24601,-4.48866 -0.0359,-0.63998 -0.12568,-2.4282 -0.19952,-3.97382 -0.1573,-3.29181 -0.0802,-2.84894 -0.55505,-3.18733 -0.48805,-0.34778 -0.46794,-0.34927 -0.94054,0.0697 l -0.39618,0.35128 0.0257,0.35128 c 0.0361,0.49436 0.50305,4.66963 0.82008,7.33291 0.1466,1.23167 0.33004,2.77846 0.40761,3.43733 l 0.14103,1.19794 0.23749,0.24048 c 0.28278,0.28634 0.27114,0.28813 0.54229,-0.0832 z m 1.28251,-0.0231 0.22384,-0.29729 0.0299,-5.63907 c 0.0164,-3.10148 0.0412,-5.87749 0.055,-6.16889 l 0.0251,-0.52983 -0.38862,-0.33812 c -0.45784,-0.39833 -0.39659,-0.39934 -0.89004,0.0146 l -0.39259,0.32933 -0.003,0.1999 c -0.003,0.19373 0.21132,4.50227 0.39084,7.85752 0.0485,0.90563 0.11682,2.24363 0.1519,2.97332 l 0.0638,1.3267 0.22995,0.28698 c 0.27676,0.34535 0.23143,0.34672 0.50393,-0.0152 z m 2.9323,-0.51019 c 0.0499,-0.43051 0.37997,-3.54132 0.55438,-5.22525 0.0976,-0.94186 0.25676,-2.39944 0.35375,-3.23905 0.097,-0.83962 0.2226,-1.97578 0.27911,-2.52481 0.11687,-1.13534 0.14335,-1.00159 -0.29141,-1.47263 l -0.27575,-0.29877 -0.44384,0.33181 -0.44386,0.33181 -0.0297,0.53778 c -0.0164,0.29578 -0.0687,1.17009 -0.11639,1.94289 -0.25284,4.09511 -0.35989,5.81546 -0.4803,7.71991 l -0.13277,2.09947 0.10149,0.13992 c 0.0559,0.077 0.15751,0.21639 0.22593,0.30986 l 0.12441,0.16993 0.27474,-0.30166 c 0.24083,-0.26442 0.27787,-0.32876 0.30017,-0.52121 z m -1.60602,0.47795 0.23284,-0.28324 0.0855,-1.41465 c 0.047,-0.77805 0.12488,-2.02718 0.17306,-2.77584 0.0482,-0.74866 0.12758,-2.09229 0.17642,-2.98585 0.0904,-1.65303 0.24001,-4.14701 0.28737,-4.78947 l 0.0262,-0.35458 -0.35822,-0.33699 c -0.43249,-0.40684 -0.35742,-0.4052 -0.85264,-0.0187 l -0.40783,0.31835 -0.0277,0.61473 c -0.0151,0.33811 -0.041,3.1157 -0.0572,6.17243 l -0.0296,5.5577 0.21564,0.29024 c 0.26302,0.35406 0.25011,0.35392 0.53625,0.006 z m -15.3597,-2.67954 c 0.77613,-0.25687 1.2881,-0.88236 1.03651,-1.26635 -0.0875,-0.13351 -0.41989,-0.15394 -0.72914,-0.0448 -0.26649,0.094 -0.4391,0.0873 -0.4391,-0.0172 0,-0.12458 0.49226,-0.29017 0.96168,-0.32349 0.42503,-0.0302 0.47998,-0.84367 0.0737,-1.09141 -0.19002,-0.11588 -0.64145,-0.11061 -1.01449,0.0119 -0.22191,0.0729 -0.30025,0.0827 -0.34023,0.0427 -0.14613,-0.14612 0.26599,-0.34882 0.80233,-0.39463 l 0.32932,-0.0281 -0.003,-0.19759 c -0.009,-0.73248 -1.19108,-0.91252 -2.3038,-0.35082 -0.2848,0.14377 -0.42801,0.16497 -0.4649,0.0688 -0.0624,-0.16269 0.33744,-0.45421 0.85001,-0.61971 0.1268,-0.0409 0.23054,-0.0835 0.23054,-0.0946 0,-0.0435 -0.36206,-1.39893 -0.38289,-1.43346 -0.0791,-0.13112 -1.16887,1.71697 -1.38096,2.34197 -0.74188,2.18628 0.78429,4.05531 2.77376,3.39689 z m 24.68793,-2.36168 c 1.011,-0.4855 1.31056,-2.72271 0.45556,-3.40218 -0.73808,-0.58656 -2.14098,-0.1985 -1.93088,0.53411 l 0.0398,0.13868 0.41603,0.002 c 0.47795,0.002 0.75639,0.10055 0.78134,0.27627 0.0167,0.11786 0.0288,0.117 -0.3869,0.0277 -0.84439,-0.18145 -1.50402,0.43575 -1.041,0.97402 l 0.11023,0.12817 0.38835,0.004 c 0.46056,0.005 0.71768,0.0918 0.71768,0.24174 v 0.0961 l -0.25246,-0.037 c -0.63805,-0.0936 -0.88919,-0.0102 -0.88919,0.29519 0,0.59225 0.95687,1.02577 1.59147,0.72103 z m -22.85293,-6.90055 c 1.67793,-0.42795 2.05065,-0.53265 2.26523,-0.63632 0.2428,-0.11731 0.30562,-0.10962 0.77684,0.095 1.22274,0.53107 1.02933,0.53433 1.55051,-0.0261 0.51374,-0.55246 0.46141,-0.54442 1.1706,-0.17973 l 0.54705,0.28132 0.46895,-0.45696 c 0.57168,-0.55709 0.54985,-0.55397 1.19779,-0.17073 0.59132,0.34976 0.48638,0.36303 1.04767,-0.13254 0.56359,-0.49762 0.52494,-0.49348 1.09241,-0.11694 0.24882,0.16512 0.47678,0.31428 0.50657,0.33146 0.0333,0.0192 0.23331,-0.12188 0.51893,-0.36607 0.58047,-0.49623 0.55854,-0.49577 1.11546,-0.0236 l 0.44082,0.3737 0.31848,-0.25571 c 0.76951,-0.61783 0.7148,-0.61256 1.24058,-0.11971 0.21735,0.20374 0.4164,0.37135 0.44236,0.37247 0.0542,0.002 0.69254,-0.46608 0.71254,-0.52288 0.0274,-0.0778 -1.08275,-1.38772 -1.65674,-1.95496 -0.41074,-0.40591 -0.4005,-0.36915 -0.19648,-0.70617 0.21948,-0.36253 0.5324,-0.98348 0.56785,-1.12674 l 0.0295,-0.11941 -0.56428,-0.0123 -0.56425,-0.0123 v -0.0878 -0.0878 l 0.61397,-0.022 0.61399,-0.022 0.0715,-0.35127 c 0.0998,-0.49011 0.17166,-0.47028 -0.76499,-0.21102 -0.56714,0.15697 -0.73748,0.15668 -0.60659,-10e-4 0.0792,-0.0954 0.71091,-0.30536 1.33448,-0.44347 l 0.12076,-0.0267 v -0.38703 c 0,-0.21287 -0.0122,-0.39924 -0.0271,-0.41416 -0.0373,-0.0373 -0.70348,0.30213 -1.1792,0.60083 l -0.39266,0.24653 -0.0677,-0.0695 -0.0677,-0.0695 0.15367,-0.13106 c 0.25487,-0.21737 0.6592,-0.47127 1.05383,-0.66177 0.51231,-0.2473 0.48493,-0.21204 0.41177,-0.53059 -0.25125,-1.09374 -0.7801,-2.09325 -1.51347,-2.86035 l -0.38065,-0.39817 -0.0217,-1.03186 c -0.033,-1.56919 -0.27615,-2.72238 -0.57412,-2.72238 -0.48223,0 -2.27309,2.08488 -2.19644,2.55707 0.0358,0.22084 -0.072,0.27499 -0.41373,0.20773 -1.36379,-0.26843 -3.70303,0.0918 -4.87235,0.75026 -0.30578,0.17218 -0.41294,0.16559 -0.63836,-0.0393 -1.04415,-0.94887 -2.62753,-1.89506 -3.17127,-1.89506 h -0.15145 l -0.078,0.25249 c -0.26988,0.8728 0.003,2.7547 0.60685,4.20938 l 0.17624,0.4235 -0.11351,0.47478 c -0.23278,0.97349 -0.25866,2.19715 -0.0682,3.22419 0.18524,0.99875 0.27459,0.70701 -0.7665,2.50285 -0.5679,0.97962 -1.47174,2.68754 -1.47174,2.78106 0,0.0684 -0.11139,0.0916 1.35199,-0.28161 z m 4.07815,-2.1994 c -0.22053,-0.22054 1.9653,-1.99057 2.45817,-1.99057 0.28154,0 0.16716,0.14878 -0.32581,0.42383 -0.50223,0.2802 -1.12263,0.74605 -1.61936,1.21593 -0.39103,0.36991 -0.45212,0.41169 -0.513,0.35081 z m -1.23587,-1.04042 c -0.36859,-0.26952 2.42877,-1.56086 3.38852,-1.56424 0.38325,-10e-4 0.27541,0.18506 -0.15258,0.2637 -0.73901,0.1358 -1.88172,0.59821 -2.73082,1.10508 -0.20587,0.12289 -0.38621,0.22995 -0.40077,0.23792 -0.0146,0.008 -0.0615,-0.0111 -0.10435,-0.0425 z m 5.47672,-0.72281 c -0.35356,-0.126 -0.48779,-0.2805 -0.34592,-0.39823 0.0461,-0.0383 0.11531,-0.0242 0.29639,0.0601 0.77507,0.36081 1.90894,-0.75982 1.16914,-1.15549 -0.76155,-0.40732 -0.70247,-0.7194 0.16732,-0.88385 0.84236,-0.15926 0.98266,0.078 0.44797,0.75742 -0.40204,0.51085 0.366,1.17206 1.00314,0.86363 0.10229,-0.0495 0.23797,-0.15819 0.30152,-0.2415 0.1669,-0.21882 0.32795,-0.19011 0.26823,0.0478 -0.15036,0.59913 -1.13485,0.77197 -1.66489,0.29229 l -0.0809,-0.0732 -0.0949,0.13072 c -0.41515,0.57221 -0.94162,0.78765 -1.46711,0.6004 z m -5.9386,-0.77611 c -0.25228,-0.30398 1.66134,-0.81573 3.02853,-0.8099 0.77792,0.003 0.94522,0.0326 0.94522,0.16562 v 0.1008 l -0.90017,0.0128 c -1.04092,0.0148 -1.47754,0.0856 -2.43863,0.39549 -0.4616,0.14886 -0.59929,0.17818 -0.63495,0.13523 z m 2.44059,-2.15786 c -0.082,-0.21373 0.40633,-0.54562 0.92972,-0.63187 0.57746,-0.0952 1.59089,0.37412 1.37354,0.63602 -0.0781,0.0941 -0.15285,0.0853 -0.34293,-0.0402 -0.48517,-0.32024 -1.10067,-0.32979 -1.55186,-0.024 -0.21529,0.1459 -0.36695,0.16821 -0.40847,0.0601 z m 5.61063,-0.65256 c -0.22106,-0.57607 1.16501,-1.28081 1.79519,-0.91275 0.28456,0.16619 0.13396,0.44924 -0.16353,0.30738 -0.39005,-0.186 -0.93089,-0.001 -1.25606,0.42969 -0.18251,0.24173 -0.32472,0.30824 -0.3756,0.17568 z"
   id="path7"
   sodipodi:nodetypes="sssscsscssscsscssscsscssssssssscsscsssscsssssscsssssscssssscssscssscssssssssssscsscsssssssscssssssssssscsscsssssssscccsssssscssssssssscsscsssssssscssssssssssssscssssssssscsscsscsssssssssscsssssssssssssssssssssscssssscsssscssssssssscccssssscsssscccsssssssssssssssssssssscsssssssssssssssssssscssssssssssssssscssssssscssscsssssssssssssssssssssssssssssssssssssssssssssssssssssssscsscssscsssssscccssscsssssssssssssssscssscssssscssscssccsscsscssscsscssssscccssscsscssscsssscsscsscssssssssssscsssssssssssscsssscsscsssscsssscssssssscssssssscccccccsssscssscccsssscssscssscsscssssccssssscsssscsscssssssscssscscssssssssssssss"
   inkscape:label="cat" /></g>
</svg>
