<?xml version="1.0" encoding="UTF-8" standalone="no"?>
<!-- Created with Inkscape (http://www.inkscape.org/) -->

<svg
   width="172.58841mm"
   height="39.275738mm"
   viewBox="0 0 172.58841 39.275737"
   version="1.1"
   id="svg1"
   inkscape:version="1.4.4 (dcaf3e7d9e, 2026-05-05)"
   sodipodi:docname="SmeggTuner.svg"
   xml:space="preserve"
   inkscape:export-filename="thethughunterhoodie.png"
   inkscape:export-xdpi="256"
   inkscape:export-ydpi="256"
   xmlns:inkscape="http://www.inkscape.org/namespaces/inkscape"
   xmlns:sodipodi="http://sodipodi.sourceforge.net/DTD/sodipodi-0.dtd"
   xmlns="http://www.w3.org/2000/svg"
   xmlns:svg="http://www.w3.org/2000/svg">
  <sodipodi:namedview
   id="namedview1"
   pagecolor="#505050"
   bordercolor="#ffffff"
   borderopacity="1"
   inkscape:showpageshadow="0"
   inkscape:pageopacity="0"
   inkscape:pagecheckerboard="1"
   inkscape:deskcolor="#505050"
   inkscape:document-units="mm"
   inkscape:zoom="0.7465348"
   inkscape:cx="35.49734"
   inkscape:cy="204.94691"
   inkscape:window-width="1920"
   inkscape:window-height="1044"
   inkscape:window-x="0"
   inkscape:window-y="0"
   inkscape:window-maximized="1"
   inkscape:current-layer="g26" />
  <defs
   id="defs1" />
  <g
   inkscape:label="Layer 1"
   inkscape:groupmode="layer"
   id="layer1"
   transform="translate(-91.545814,-185.51873)">
    
    
    
  <g
   id="g26"
   transform="matrix(0.26458333,0,0,0.26458333,-163.64313,123.00345)"><path
     style="fill:#ffffff;stroke:none;stroke-width:0.165958"
     d="m 981.03419,384.49391 c -10.81644,-0.94529 -16.54053,-4.78469 -16.54053,-11.09445 0,-7.02468 8.50534,-11.45582 18.69798,-9.74136 6.93108,1.16586 12.68581,0.60309 14.9911,-1.46598 0.0302,-0.0271 -0.24164,-0.97054 -0.60409,-2.09652 -2.2226,-6.90498 -1.595,-13.61927 1.9624,-20.99452 0.99595,-2.06492 2.16005,-5.05339 2.39705,-6.15382 l 0.1161,-0.53936 -0.8015,-0.003 c -5.3555,-0.0193 -9.2913,-4.19204 -9.63042,-10.21031 -0.23468,-4.16496 1.43016,-8.19022 5.88385,-14.22608 l 1.07295,-1.45412 -0.36893,-1.44637 c -1.07263,-4.20535 0.14976,-6.34432 4.29525,-7.51597 l 1.5564,-0.43986 0.3683,-0.89798 c 0.9591,-2.33862 2.938,-6.08318 5.8243,-11.02139 0.7469,-1.27788 1.8108,-3.12386 2.3642,-4.10217 l 1.0062,-1.77875 -0.1612,-0.54466 c -1.1983,-4.05075 -1.2468,-10.48177 -0.112,-14.8443 l 0.3525,-1.35496 -0.5922,-1.30037 c -2.9287,-6.43144 -3.6338,-16.92384 -1.2564,-18.6956 1.5802,-1.17759 7.2376,1.3965 12.5521,5.71107 0.9449,0.76712 1.8179,1.46625 1.9401,1.55363 0.1547,0.11069 0.59,-0.0238 1.4352,-0.44344 4.3379,-2.15383 10.4464,-3.25001 15.6919,-2.81599 1.3884,0.11489 2.468,0.13906 2.4957,0.0559 0.9465,-2.8396 6.9278,-9.38444 9.3608,-10.24288 2.5953,-0.91567 4.2764,3.83741 4.2895,12.12791 v 2.82334 l 1.2429,1.30489 c 2.9214,3.06695 4.9959,7.11005 6.1109,11.90966 l 0.1022,0.43991 1.5361,-0.47947 c 3.0228,-0.94354 7.4409,-1.69816 7.8058,-1.33327 0.4394,0.43942 -0.1039,0.75257 -1.6697,0.96229 -1.9002,0.25453 -3.9967,0.74573 -5.9691,1.39846 l -1.535,0.50801 0.1059,1.68741 c 0.058,0.92807 0.1201,1.70565 0.1373,1.72793 0.017,0.0223 0.5856,-0.0314 1.2631,-0.11933 2.9103,-0.37772 8.3177,-0.0471 8.6795,0.53061 0.3583,0.57229 -0.031,0.63008 -3.2025,0.47499 -2.679,-0.13101 -6.0553,-0.0136 -6.776,0.23571 -0.1141,0.0395 -0.2086,0.31681 -0.21,0.61633 0,0.29951 -0.1086,0.99266 -0.2382,1.54032 -0.2873,1.21496 -0.3629,1.14936 1.6074,1.39652 3.1186,0.39121 6.9735,1.64594 7.0673,2.30034 0.085,0.59017 -0.2836,0.58263 -2.2183,-0.0454 -3.436,-1.11543 -6.9604,-1.67943 -7.1477,-1.14384 -0.3591,1.02747 -1.3031,3.01992 -1.8826,3.97376 l -0.6732,1.10812 1.9842,2.0527 c 1.0913,1.12897 2.751,3.00604 3.6883,4.17123 1.7494,2.17481 4.5549,5.24003 4.8621,5.3123 0.095,0.0223 0.7699,-0.40443 1.5001,-0.94832 0.7302,-0.54388 1.5621,-1.1161 1.8486,-1.27159 l 0.521,-0.2827 7.7436,0.86303 c 12.2349,1.36357 12.4381,1.56059 11.3244,10.97562 -0.2429,2.05373 -0.4416,3.9581 -0.4416,4.23193 v 0.49787 l 1.1564,0.27884 c 3.8374,0.92527 5.4528,4.31936 4.5668,9.59547 -0.7977,4.75048 -2.8405,7.18771 -6.2277,7.43006 l -1.1142,0.0797 -0.2817,2.17819 c -1.066,8.2454 -2.0999,15.71182 -2.2452,16.2147 -0.6423,2.22336 -3.4166,4.05794 -5.6778,3.75465 -0.7725,-0.10362 -0.7751,-0.0583 -0.077,1.33961 3.0163,6.0381 1.8894,13.15014 -3.1529,19.89841 -0.4893,0.65495 -0.8897,1.23373 -0.8897,1.28617 0,0.0524 0.9522,0.0967 2.1159,0.0984 7.6261,0.0109 12.2304,2.66329 12.2373,7.04938 0.01,5.12153 -3.9182,6.11027 -16.5107,4.15783 -2.0537,-0.31843 -4.7796,-0.69759 -6.0574,-0.84257 -7.8337,-0.8888 -10.3305,-3.0665 -9.0411,-7.88555 0.4788,-1.78932 0.5672,-2.31629 0.3886,-2.31572 -0.079,1.6e-4 -1.0021,0.21712 -2.0518,0.48194 -2.8322,0.71453 -5.2283,1.02883 -8.3809,1.0993 l -2.8213,0.0631 -1.4936,0.66705 c -0.8215,0.36687 -1.9977,0.7975 -2.6138,0.95693 -1.3938,0.36066 -1.391,0.40774 0.068,1.14222 4.6228,2.32799 5.3871,8.09758 1.3148,9.9251 -2.1296,0.95571 -6.1927,1.2148 -10.8004,0.6887 -20.0671,-2.29122 -22.2384,-2.9433 -22.2384,-6.67867 0,-0.45591 0.098,-0.42119 -2.2244,-0.78661 -2.1591,-0.3397 -4.1556,-1.00871 -6.0647,-2.03223 l -1.4019,-0.75161 -0.4236,0.27242 c -1.0579,0.68026 -3.0211,1.58309 -4.1577,1.912 -0.6846,0.19808 -1.3305,0.3882 -1.4355,0.42248 -0.1268,0.0414 -0.057,0.32585 0.2075,0.84887 2.7915,5.5139 -6.64439,9.21248 -20.42951,8.00773 z m 11.783,-1.94875 c 6.65565,-1.03106 9.30911,-3.57065 6.58107,-6.29868 -1.67655,-1.67655 -2.90374,-1.91135 -10.14916,-1.94177 -7.05755,-0.0297 -9.17302,-0.33874 -9.85577,-1.44005 -0.37453,-0.60414 0.0996,-0.68211 1.66439,-0.27367 l 1.47009,0.38372 3.31916,-0.0718 c 8.95606,-0.19379 10.84036,-0.0424 13.05988,1.04921 l 0.779,0.38313 1.60605,-0.38636 c 1.4467,-0.34803 4.387,-1.5449 4.387,-1.78573 0,-0.0529 -0.9266,-1.0099 -2.0592,-2.12673 -1.9949,-1.96714 -3.2766,-3.65696 -4.24676,-5.59868 -0.20523,-0.41075 -0.39163,-0.76827 -0.41423,-0.79449 -0.0226,-0.0262 -0.56077,0.21311 -1.19589,0.53186 -3.43319,1.72299 -7.72386,2.13984 -13.07756,1.27052 -9.30532,-1.51096 -15.48113,0.23699 -17.93002,5.07478 l -0.49129,0.97053 v 1.82554 1.82554 l 0.51693,1.07872 c 2.60069,5.42728 13.98179,8.19184 26.03631,6.32442 z m 50.05721,-0.97228 c 0.5734,-1.465 0.2415,-2.78942 -0.9654,-3.85178 -1.0202,-0.89797 -0.8479,-1.50307 0.2642,-0.92799 1.5575,0.80539 2.4705,3.3831 1.7614,4.97266 l -0.1416,0.31738 1.7496,-0.10706 c 2.0629,-0.12621 2.1833,-0.16251 2.4449,-0.73651 0.5954,-1.30675 0.3154,-2.97761 -0.6912,-4.12396 -0.8806,-1.003 -0.1741,-1.49995 0.7414,-0.52147 0.9397,1.00437 1.4277,2.66403 1.1485,3.90656 -0.2587,1.15149 1.2053,0.53641 1.7338,-0.72843 2.0484,-4.90245 -6.818,-8.86199 -15.7503,-7.03371 -1.4027,0.28712 -1.9736,0.2243 -1.9118,-0.21039 0.1062,-0.74794 3.885,-1.61616 7.0397,-1.61742 h 1.676 l 0.778,-1.65397 c 4.065,-8.64205 -0.171,-17.19601 -10.3959,-20.99342 l -1.6191,-0.60129 -7.7576,2.02816 c -10.3305,2.70082 -11.4293,2.67085 -12.979,-0.35399 -0.2214,-0.43221 -3.6682,-13.45029 -4.5822,-17.30616 -0.089,-0.37637 -0.1746,-0.44191 -0.4635,-0.35544 -1.0205,0.30551 -1.1651,0.46158 -1.3716,1.48072 -0.284,1.4019 -1.189,3.79688 -2.3517,6.22342 -3.88436,8.10687 -4.33709,14.94661 -1.45714,22.01421 2.89004,7.0923 9.56254,12.49869 16.17434,13.10536 l 1.0988,0.10082 0.2954,-0.84311 c 0.1624,-0.46372 0.8597,-1.67254 1.5495,-2.68626 0.6899,-1.01374 1.4807,-2.32708 1.7575,-2.91857 0.4127,-0.88188 0.5669,-1.06633 0.8568,-1.02497 0.8236,0.11748 0.048,2.58521 -1.5528,4.94314 -3.2382,4.76841 -1.7621,6.9243 5.3915,7.87431 1.9366,0.2572 14.8512,1.84663 16.0149,1.97101 1.2951,0.13841 1.3299,0.13056 1.5146,-0.34119 z m 45.3563,-3.23618 c 0.7009,-1.07106 0.4567,-2.56093 -0.6094,-3.71749 -1.1745,-1.27422 -0.3937,-1.7325 0.8106,-0.4757 1.1063,1.15459 1.3804,2.37288 0.9434,4.19319 l -0.09,0.37341 h 1.076 c 2.1621,0 2.5605,-0.27365 2.7255,-1.87178 0.1065,-1.03189 -0.1326,-1.94117 -0.7158,-2.72248 -0.507,-0.67917 -0.5184,-1.08936 -0.028,-1.01835 0.9986,0.14468 1.9791,2.53557 1.6577,4.04231 -0.2711,1.27144 0.8755,0.85907 1.493,-0.53692 1.8292,-4.13509 -2.6513,-6.79366 -11.9782,-7.10757 -4.0837,-0.13745 -4.1013,-0.15532 -2.2648,-2.29897 6.0294,-7.03763 7.3289,-14.46003 3.6366,-20.77066 l -0.683,-1.16734 -4.2871,-0.37735 c -2.3578,-0.20755 -5.2205,-0.48577 -6.3615,-0.61826 l -2.0744,-0.24091 -0.4149,-0.46191 c -0.2282,-0.25405 -0.7985,-0.96656 -1.2674,-1.58335 l -0.8525,-1.12145 -1.2122,1.33597 c -1.5813,1.74286 -1.7083,1.7434 -2.8489,0.0121 -1.06,-1.60895 -0.8768,-1.60865 -2.2202,-0.004 -1.3671,1.63322 -1.4605,1.63644 -2.624,0.0905 -1.16,-1.54129 -1.1506,-1.53619 -1.6084,-0.88078 -1.7262,2.47143 -2.0363,2.56005 -3.3466,0.95621 -1.152,-1.41023 -1.0755,-1.40661 -2.0114,-0.0951 -1.4116,1.97812 -1.4008,1.9767 -2.9286,0.38552 -0.9273,-0.9658 -1.1854,-1.15408 -1.3083,-0.95426 -1.8454,3.00137 -2.0801,3.096 -3.7247,1.50134 l -1.2153,-1.17841 -0.9664,1.49622 c -0.5315,0.82292 -1.1061,1.54058 -1.2769,1.5948 -0.3331,0.10573 -0.342,0.1001 -1.9134,-1.21501 -1.3091,-1.09561 -1.0735,-1.16982 -2.7679,0.87174 -2.0068,2.41813 -1.843,2.28901 -2.7348,2.1563 -1.0057,-0.14968 -0.8314,-0.0108 1.0501,0.83668 9.1471,4.12 13.0021,13.24693 9.1326,21.622 -0.6902,1.49367 -0.6892,1.35694 -0.01,1.35694 10.133,0 19.3654,-10.87008 20.5793,-24.22983 0,0 0.031,-2.03173 0.767,-2.07447 0.4646,-0.027 0.6325,1.24468 0.6325,1.24468 0.336,7.75011 -4.5593,18.28288 -10.2189,21.98681 -1.8469,1.20865 2.2773,0.87347 8.545,-0.69448 3.1654,-0.79187 3.4853,-0.32105 2.4528,3.61009 -0.9922,3.77755 0.5185,5.31513 5.9383,6.04422 1.0222,0.13751 4.0243,0.55753 6.6714,0.93336 2.647,0.37584 5.5222,0.77874 6.3893,0.89531 0.8672,0.11658 1.6309,0.22059 1.6973,0.23113 0.066,0.0105 0.2306,-0.14888 0.365,-0.35426 z m -65.4581,-30.08887 c 9.0659,-2.34216 8.9696,-2.30999 9.3563,-3.1249 l 0.2809,-0.59183 -1.9256,-7.51373 c -1.059,-4.13255 -2.4486,-9.56746 -3.0879,-12.07757 -0.6392,-2.51011 -1.7964,-7.02831 -2.5714,-10.04045 -0.775,-3.01213 -2.1566,-8.42175 -3.0701,-12.02138 -1.8176,-7.16153 -1.9004,-7.39737 -2.7176,-7.73885 l -0.5602,-0.23405 -3.8682,0.99493 c -15.42154,3.96657 -14.2623,3.55772 -15.05754,5.31082 -0.56786,1.25189 -0.56686,1.25867 1.19674,8.12895 0.5038,1.96245 0.9573,3.75479 1.0078,3.98299 l 0.092,0.41489 1.4593,0.005 c 1.2326,0.004 1.6106,0.0749 2.4336,0.45638 1.1777,0.54585 1.1001,0.54326 1.1001,0.0367 0,-0.2282 0.021,-0.4149 0.047,-0.4149 0.026,0 2.7217,-0.672 5.9908,-1.49333 6.7743,-1.70203 6.1283,-1.69411 6.5089,-0.0797 0.3756,1.59332 0.8753,1.329 -5.5767,2.94958 -4.224,1.06097 -5.5446,1.45208 -5.4974,1.62805 0.034,0.12739 0.072,0.63143 0.083,1.12009 l 0.021,0.88848 0.6168,0.3562 0.6167,0.35621 5.3464,-1.36033 c 2.9405,-0.74819 5.4027,-1.32551 5.4716,-1.28293 0.2106,0.1302 0.6945,2.57673 0.5395,2.72813 -0.1114,0.10884 -7.8952,2.14676 -10.392,2.72079 -0.2913,0.067 -0.4564,0.21367 -0.4564,0.40555 0,0.16535 -0.1876,0.66802 -0.417,1.11706 -0.9565,1.87273 -0.9123,1.87445 5.5444,0.21625 6.3665,-1.63501 6.5148,-1.67043 6.6072,-1.578 0.2629,0.26292 0.6822,2.52668 0.4989,2.69379 -0.2439,0.22238 -10.7849,2.93673 -11.4792,2.95593 l -0.4904,0.0136 -0.2318,-0.81384 -0.2318,-0.81383 -0.2867,0.84705 c -0.4046,1.19492 -1.102,2.12886 -2.1144,2.8312 -1.0449,0.72486 -1.0375,0.64471 -0.3139,3.40637 0.3137,1.19741 1.1704,4.52955 1.9038,7.40477 2.0668,8.10337 2.1121,8.22841 3.2176,8.88145 1.2848,0.75892 0.5299,0.88017 10.4061,-1.67132 z m -8.1963,-3.86082 c -0.046,-0.0747 -0.208,-0.68139 -0.3597,-1.34824 -0.3193,-1.40377 -0.381,-1.32073 1.2945,-1.74024 0.6622,-0.1658 3.2125,-0.81847 5.6674,-1.45039 5.2762,-1.35818 4.8722,-1.37192 5.2747,0.17943 0.4166,1.60538 0.8506,1.37483 -5.7559,3.05771 -5.897,1.50214 -5.9855,1.52096 -6.121,1.30173 z m -1.4128,-5.71421 c -0.7269,-1.921 -0.6258,-2.49942 0.4706,-2.69273 0.3254,-0.0574 2.8912,-0.70038 5.7017,-1.42891 5.8265,-1.51032 5.3123,-1.51942 5.6942,0.1007 0.374,1.58611 0.9018,1.30927 -5.6596,2.96849 -6.3762,1.6124 -6.018,1.55167 -6.2069,1.05245 z m -1.5278,-5.80852 c -0.1081,-0.38793 -0.2043,-1.00404 -0.2138,-1.36915 l -0.017,-0.66383 1.0787,-0.27176 c 0.5933,-0.14947 3.1633,-0.80605 5.7112,-1.45907 5.4421,-1.39481 5.0408,-1.39906 5.4397,0.0577 0.3831,1.39953 0.345,1.51656 -0.5598,1.71822 -0.3942,0.0878 -2.9427,0.72977 -5.6634,1.42649 -5.8674,1.50252 -5.5224,1.46898 -5.7752,0.56145 z m -5.7139,-21.74046 c -0.3085,-0.8146 -0.6857,-2.43263 -0.5982,-2.5664 0.1502,-0.22966 12.1708,-3.23732 12.3119,-3.08054 0.2246,0.24961 0.6976,2.56016 0.5526,2.69933 -0.3977,0.38172 -12.1669,3.20987 -12.2663,2.94761 z m -1.6524,-6.32099 c -0.4704,-1.73774 -0.901,-1.49487 5.5603,-3.13628 6.833,-1.73583 6.4584,-1.72296 6.8549,-0.23541 0.3965,1.48778 0.4142,1.46501 -1.4851,1.91858 -0.9007,0.2151 -3.4874,0.86671 -5.7483,1.44802 -5.1573,1.32599 -4.8244,1.32566 -5.1818,0.005 z m 30.8024,39.98326 c 0.1733,-0.22031 0.8375,-1.0061 1.476,-1.74622 1.4072,-1.63105 2.2361,2.59341 -5.8145,-29.63414 l -4.27,-17.09364 -2.6337,-1.09975 c -1.4485,-0.60486 -2.6932,-1.04567 -2.766,-0.97957 -0.1407,0.1278 0.5025,2.77663 3.2997,13.58838 2.5059,9.68556 5.7711,22.39712 7.5305,29.31654 2.0908,8.22288 2.3104,8.75138 3.178,7.6484 z m 54.3812,-1.25952 c 0.7476,-0.4202 1.5929,-1.37112 1.8725,-2.1066 0.1756,-0.46187 2.477,-17.31618 2.477,-18.14036 0,-0.33851 -0.1199,-0.47395 -0.5608,-0.63335 -2.1301,-0.77027 -3.4407,-2.96908 -2.8343,-4.75515 0.2448,-0.72107 0.2185,-1.08324 -0.079,-1.08324 -0.074,0 -0.1807,0.28612 -0.2366,0.63583 -0.1866,1.16658 -1.3586,1.67862 -2.3797,1.03959 -1.346,-0.84245 -0.4835,-3.31371 1.0278,-2.94501 0.1828,0.0446 0.4941,0.1315 0.6917,0.19313 l 0.3593,0.11204 -0.1538,-0.68439 c -0.2402,-1.06914 0.1067,-2.26912 0.9021,-3.11999 0.5701,-0.60985 0.477,-0.9548 -0.1091,-0.40421 -1.2454,1.16995 -3.1476,-0.41918 -2.4182,-2.02011 0.3339,-0.7329 1.4917,-0.98509 2.4888,-0.54212 0.1978,0.0879 0.3244,-0.0209 0.49,-0.42052 0.5283,-1.27544 1.6867,-2.12722 3.432,-2.52361 l 0.9492,-0.21557 0.5447,-4.80042 c 0.9779,-8.61799 1.3615,-8.29293 -11.2422,-9.52718 -1.8712,-0.18324 -3.684,-0.37209 -4.0286,-0.41966 l -0.6264,-0.0865 0.1006,1.28879 c 0.1007,1.28964 -0.3226,5.31665 -2.0023,19.04627 -0.3238,2.64703 -0.8437,6.94118 -1.1554,9.54257 -0.3116,2.60139 -0.911,7.56768 -1.3319,11.03619 -0.4209,3.46852 -0.8382,6.9352 -0.9274,7.70374 -0.1115,0.96223 -0.298,1.64722 -0.5987,2.19978 -0.5503,1.0111 -1.2744,0.82851 6.0063,1.51472 7.1341,0.6724 8.3247,0.6871 9.342,0.11533 z m -4.4743,-4.56824 c -0.9128,-0.49569 -0.9662,-2.20095 -0.088,-2.81587 0.9078,-0.63583 2.3337,-0.0705 2.5355,1.00519 0.278,1.4817 -1.132,2.52493 -2.4472,1.81068 z m -4.6607,-4.2244 c -1.1297,-0.88859 -0.4185,-2.82391 1.0377,-2.82391 1.0842,0 1.8991,1.17854 1.4929,2.15912 -0.4017,0.9697 -1.7071,1.31262 -2.5306,0.66479 z m 5.6659,-2.74087 c -1.3862,-0.75339 -0.7579,-2.90432 0.8484,-2.90432 0.9596,0 1.4936,0.5557 1.4936,1.5543 0,1.26222 -1.215,1.96256 -2.342,1.35002 z m -4.8847,-4.14146 c -1.2367,-1.23666 0.3816,-3.40108 1.9252,-2.57497 0.4068,0.21772 0.8206,1.01251 0.8206,1.57621 0,1.19776 -1.8675,1.87706 -2.7458,0.99876 z m 5.4766,-2.82128 c -1.0094,-1.00933 -0.1286,-2.88571 1.2667,-2.69856 0.8128,0.10901 1.0772,0.31659 1.3129,1.03048 0.5081,1.53967 -1.445,2.80266 -2.5796,1.66808 z m -4.6151,-3.98261 c -1.0002,-0.92701 -0.2467,-2.74622 1.1375,-2.74622 0.4489,0 0.7324,0.12595 1.0915,0.4851 1.4499,1.44988 -0.7244,3.65551 -2.229,2.26112 z m 1.1005,-6.55017 c -1.4277,-0.89331 -0.5584,-3.17676 1.1157,-2.93088 0.7896,0.11597 1.3277,0.76041 1.3277,1.59014 0,1.30784 -1.3298,2.03754 -2.4434,1.34074 z m 0.8334,-6.73489 c -0.5641,-0.39512 -0.7793,-1.26316 -0.4867,-1.96338 0.5677,-1.35875 2.459,-1.27807 2.922,0.12465 0.4751,1.4398 -1.1995,2.70427 -2.4353,1.83873 z m 5.2483,-3.05693 c -1.0295,-1.02946 -0.2544,-2.66809 1.262,-2.66809 0.622,0 1.4061,0.83035 1.4061,1.48909 0,1.57523 -1.5756,2.27148 -2.6681,1.179 z m -3.8872,-3.97896 c -1.2149,-0.5255 -1.3053,-2.45475 -0.14,-2.9857 1.6642,-0.75823 3.1933,1.18499 2.007,2.55036 -0.4045,0.46552 -1.3095,0.67653 -1.867,0.43534 z m -42.9859,41.29347 c 0.9144,-1.41352 0.9199,-0.9533 -0.072,-6.00684 -0.4522,-2.30249 -1.1241,-5.82933 -1.4931,-7.83742 -0.369,-2.00808 -1.4171,-7.68384 -2.3291,-12.61278 -0.9121,-4.92895 -2.114,-11.53822 -2.671,-14.68727 -0.9092,-5.14031 -1.0521,-5.75741 -1.3978,-6.03733 -0.6313,-0.51127 -3.3554,-1.89515 -3.5102,-1.78326 -0.079,0.0569 -0.7849,0.77652 -1.569,1.59902 l -1.4257,1.49545 0.9428,3.73221 c 2.0107,7.95969 9.135,36.55808 9.715,38.99824 l 0.6114,2.57234 1.1031,0.93688 c 1.2812,1.08812 1.1368,1.11356 2.0961,-0.36924 z m 5.199,-0.75048 0.861,-1.26158 -0.9061,-7.16078 c -0.4984,-3.93843 -1.0615,-8.54238 -1.2513,-10.231 -0.1898,-1.68862 -0.601,-5.16129 -0.9138,-7.71704 -0.3127,-2.55575 -0.9051,-7.78341 -1.3164,-11.61704 -0.7519,-7.00848 -1.053,-9.57344 -1.1301,-9.62591 -0.203,-0.13822 -2.9472,-1.74335 -3.2323,-1.89065 l -0.3694,-0.19083 -1.5942,1.61511 -1.5942,1.61511 0.1112,0.75347 c 0.242,1.64017 2.5431,14.17525 5.9113,32.20247 0.6395,3.42288 1.4238,7.67969 1.7427,9.45959 l 0.58,3.23618 1.0224,1.03723 c 1.2474,1.26551 1.0478,1.28703 2.0792,-0.22433 z m 25.3309,0.0301 c 0.3074,-0.53836 0.4579,-1.27201 0.7345,-3.58132 0.1914,-1.59734 0.6898,-5.77948 1.1076,-9.29363 0.4179,-3.51416 1.2045,-10.04874 1.7481,-14.52131 0.5436,-4.47256 1.2098,-10.07363 1.4804,-12.44683 0.2707,-2.37319 0.5742,-4.96498 0.6746,-5.75952 0.5569,-4.40761 0.1646,-5.12649 -1.9659,-3.60255 -0.7768,0.55565 -1.5053,1.04593 -1.6189,1.0895 -0.1189,0.0456 -0.2537,0.54939 -0.3181,1.18866 -0.061,0.61019 -0.5145,4.7688 -1.0069,9.24136 -0.4923,4.47257 -1.1627,10.63375 -1.4899,13.69152 -0.3271,3.05777 -0.8918,8.28544 -1.2549,11.61704 -0.3631,3.3316 -0.7348,6.80427 -0.826,7.71704 -0.091,0.91276 -0.1964,1.95182 -0.2336,2.30902 l -0.068,0.64944 1.0846,1.38893 c 1.2059,1.54441 1.2452,1.5507 1.9522,0.31265 z m -20.256,-0.65286 0.8115,-1.11128 -0.1948,-3.6054 c -0.3881,-7.17943 -0.6881,-12.65305 -0.9298,-16.96501 -0.1356,-2.41883 -0.475,-9.17746 -0.7541,-15.01917 -0.5945,-12.44149 -0.303,-10.76766 -2.0978,-12.04658 -1.8446,-1.31447 -1.7686,-1.3201 -3.5548,0.26358 l -1.4974,1.32766 0.097,1.32766 c 0.1365,1.86845 1.9013,17.64899 3.0995,27.71495 0.5541,4.65511 1.2474,10.50128 1.5406,12.99149 l 0.533,4.52764 0.8976,0.90889 c 1.0688,1.08223 1.0248,1.089 2.0496,-0.31443 z m 4.8473,-0.0874 0.846,-1.12361 0.1132,-21.31301 c 0.062,-11.72216 0.1558,-22.21414 0.2079,-23.31552 l 0.095,-2.0025 -1.4688,-1.27792 c -1.7304,-1.50552 -1.4989,-1.50932 -3.3639,0.0553 l -1.4838,1.24468 -0.012,0.75555 c -0.011,0.73219 0.7987,17.01645 1.4772,29.6977 0.1831,3.42288 0.4415,8.47986 0.5741,11.23774 l 0.2413,5.01433 0.8691,1.08462 c 1.046,1.30529 0.8747,1.31044 1.9046,-0.0573 z m 11.0827,-1.92828 c 0.1887,-1.62711 1.4361,-13.38453 2.0953,-19.74898 0.3688,-3.55979 0.9704,-9.06873 1.337,-12.24208 0.3666,-3.17335 0.8413,-7.46751 1.0549,-9.54257 0.4417,-4.29106 0.5418,-3.78556 -1.1014,-5.56587 l -1.0422,-1.1292 -1.6775,1.25409 -1.6776,1.25409 -0.1121,2.03256 c -0.062,1.11791 -0.2596,4.42236 -0.4399,7.34321 -0.9556,15.47755 -1.3602,21.97967 -1.8153,29.1776 l -0.5018,7.935 0.3836,0.52884 c 0.2111,0.29087 0.5953,0.81786 0.8539,1.17111 l 0.4702,0.64226 1.0384,-1.14014 c 0.9102,-0.99939 1.0502,-1.24256 1.1345,-1.96992 z m -6.07,1.80643 0.88,-1.07053 0.323,-5.34668 c 0.1776,-2.94068 0.472,-7.6618 0.6541,-10.49138 0.1821,-2.82958 0.4822,-7.90788 0.6668,-11.28512 0.3416,-6.24766 0.9071,-15.67373 1.0861,-18.1019 l 0.099,-1.34017 -1.3539,-1.27367 c -1.6346,-1.53766 -1.3509,-1.53146 -3.2226,-0.0705 l -1.5414,1.20319 -0.1047,2.32341 c -0.057,1.27788 -0.1549,11.77587 -0.2163,23.32887 l -0.1117,21.00547 0.815,1.09696 c 0.9941,1.33821 0.9453,1.33768 2.0268,0.022 z m -58.0524,-10.1274 c 2.9334,-0.97083 4.8684,-3.33492 3.9175,-4.78619 -0.3306,-0.5046 -1.587,-0.58185 -2.7558,-0.16946 -1.0072,0.35535 -1.6596,0.32982 -1.6596,-0.065 0,-0.47086 1.8605,-1.09671 3.6347,-1.22264 1.6064,-0.11402 1.8141,-3.18867 0.2786,-4.125 -0.7182,-0.43797 -2.4244,-0.41806 -3.8343,0.0448 -0.8387,0.27534 -1.1348,0.3125 -1.2859,0.16139 -0.5523,-0.55226 1.0053,-1.31835 3.0324,-1.4915 l 1.2447,-0.10631 -0.01,-0.74681 c -0.033,-2.76843 -4.5017,-3.44891 -8.70726,-1.32593 -1.07642,0.54337 -1.61769,0.62352 -1.75712,0.26017 -0.23595,-0.61487 1.27538,-1.7167 3.21267,-2.3422 0.47921,-0.15472 0.87131,-0.31568 0.87131,-0.35768 0,-0.16435 -1.3684,-5.28733 -1.44715,-5.41782 -0.29911,-0.49557 -4.41778,6.48932 -5.21937,8.85155 -2.80397,8.2631 2.96425,15.32716 10.48352,12.83864 z m 93.3087,-8.92605 c 3.8211,-1.83494 4.9533,-10.29055 1.7218,-12.85862 -2.7896,-2.21692 -8.0919,-0.75022 -7.2978,2.0187 l 0.1503,0.52413 1.5724,0.007 c 1.8064,0.008 2.8588,0.38004 2.9531,1.04415 0.063,0.44547 0.1088,0.44221 -1.4623,0.10459 -3.1914,-0.68578 -5.6845,1.64694 -3.9345,3.68135 l 0.4166,0.4844 1.4678,0.0165 c 1.7407,0.0196 2.7125,0.347 2.7125,0.91365 v 0.36324 l -0.9542,-0.13992 c -2.4115,-0.35359 -3.3607,-0.0385 -3.3607,1.11569 0,2.23842 3.6165,3.87693 6.015,2.72516 z m -86.3733,-26.0808 c 6.3418,-1.61746 7.7505,-2.01317 8.5615,-2.40498 0.9177,-0.44338 1.1551,-0.41434 2.9361,0.35917 4.6214,2.00717 3.8904,2.0195 5.8602,-0.0988 1.9417,-2.08803 1.7439,-2.05766 4.4243,-0.67931 l 2.0676,1.06325 1.7724,-1.72708 c 2.1607,-2.10553 2.0782,-2.09376 4.5271,-0.64528 2.2349,1.32193 1.8383,1.3721 3.9597,-0.50095 2.1301,-1.88074 1.984,-1.86511 4.1288,-0.44195 0.9404,0.62405 1.802,1.1878 1.9146,1.25276 0.1258,0.0726 0.8818,-0.46068 1.9613,-1.38358 2.1939,-1.87551 2.111,-1.87377 4.2159,-0.0893 l 1.6661,1.41238 1.2037,-0.96644 c 2.9084,-2.33513 2.7016,-2.31518 4.6888,-0.45247 0.8215,0.77005 1.5738,1.40355 1.6719,1.40776 0.2049,0.009 2.6175,-1.76155 2.6931,-1.97621 0.1035,-0.29393 -4.0923,-5.24495 -6.2617,-7.38884 -1.5524,-1.53413 -1.5137,-1.39522 -0.7426,-2.66898 0.8295,-1.3702 2.0122,-3.71711 2.1462,-4.25856 l 0.1116,-0.4513 -2.1327,-0.0466 -2.1326,-0.0466 v -0.33192 -0.33191 l 2.3205,-0.083 2.3206,-0.083 0.2703,-1.32766 c 0.377,-1.85239 0.6488,-1.77744 -2.8913,-0.79756 -2.1435,0.5933 -2.7873,0.59219 -2.2926,-0.004 0.2994,-0.3607 2.6869,-1.15412 5.0437,-1.6761 l 0.4564,-0.10107 v -1.4628 c 0,-0.80455 -0.046,-1.50892 -0.1025,-1.5653 -0.1409,-0.14097 -2.6588,1.14191 -4.4568,2.27083 l -1.4841,0.93176 -0.2559,-0.26262 -0.256,-0.26259 0.5808,-0.49537 c 0.9633,-0.82154 2.4915,-1.78116 3.983,-2.50116 1.9363,-0.93468 1.8328,-0.8014 1.5563,-2.00537 -0.9496,-4.13383 -2.9484,-7.9115 -5.7202,-10.81079 l -1.4387,-1.5049 -0.082,-3.89994 c -0.1246,-5.93078 -1.0437,-10.28932 -2.1699,-10.28932 -1.8226,0 -8.5912,7.87986 -8.3015,9.66452 0.1354,0.83467 -0.2722,1.03936 -1.5637,0.78514 -5.1545,-1.01453 -13.9957,0.34686 -18.4152,2.83561 -1.1557,0.65077 -1.5607,0.62586 -2.4127,-0.14837 -3.9464,-3.58629 -9.9308,-7.16242 -11.9859,-7.16242 h -0.5724 l -0.295,0.95426 c -1.02,3.29879 0.01,10.41149 2.2936,15.90949 l 0.6661,1.60063 -0.429,1.79445 c -0.8798,3.67933 -0.9776,8.30419 -0.2578,12.18591 0.7001,3.7748 1.0378,2.67214 -2.897,9.45959 -2.1464,3.70251 -5.5625,10.15764 -5.5625,10.51107 0,0.25862 -0.421,0.34631 5.1099,-1.06432 z m 15.4135,-8.31271 c -0.8335,-0.83354 7.4279,-7.52341 9.2907,-7.52341 1.0641,0 0.6318,0.56231 -1.2314,1.60189 -1.8982,1.05901 -4.243,2.81971 -6.1204,4.59565 -1.4779,1.39806 -1.7088,1.55598 -1.9389,1.32587 z m -4.671,-3.93228 c -1.3931,-1.01865 9.1796,-5.8993 12.807,-5.91209 1.4485,-0.005 1.0409,0.69945 -0.5767,0.99667 -2.7931,0.51324 -7.112,2.26096 -10.3212,4.17667 -0.7781,0.46445 -1.4597,0.86911 -1.5147,0.89923 -0.055,0.0301 -0.2325,-0.0421 -0.3944,-0.16048 z m 20.6994,-2.7319 c -1.3363,-0.47621 -1.8436,-1.06015 -1.3074,-1.50512 0.1742,-0.1446 0.4358,-0.0916 1.1202,0.22698 2.9294,1.36368 7.2149,-2.87175 4.4188,-4.36721 -2.8783,-1.53946 -2.655,-2.71899 0.6324,-3.34055 3.1837,-0.60192 3.714,0.29474 1.6931,2.86271 -1.5195,1.93077 1.3833,4.42984 3.7914,3.2641 0.3866,-0.18715 0.8994,-0.59789 1.1396,-0.91276 0.6308,-0.82702 1.2395,-0.71853 1.0138,0.18071 -0.5683,2.26442 -4.2892,2.91769 -6.2925,1.10473 l -0.3059,-0.27685 -0.3585,0.49406 c -1.5691,2.16266 -3.5589,2.97694 -5.545,2.2692 z m -22.4451,-2.9333 c -0.9535,-1.14891 6.2791,-3.08308 11.4464,-3.06106 2.9402,0.0125 3.5725,0.12331 3.5725,0.62598 v 0.38097 l -3.4022,0.0482 c -3.9342,0.0558 -5.5844,0.32341 -9.2169,1.49477 -1.7446,0.56259 -2.265,0.67343 -2.3998,0.51109 z m 9.2243,-8.15571 c -0.3099,-0.80779 1.5357,-2.06216 3.5139,-2.38817 2.1825,-0.3597 6.0128,1.41399 5.1913,2.40388 -0.295,0.35549 -0.5777,0.32238 -1.2961,-0.15183 -1.8337,-1.21038 -4.16,-1.24645 -5.8653,-0.0909 -0.8137,0.55144 -1.3869,0.63574 -1.5438,0.22705 z m 21.2055,-2.46637 c -0.8355,-2.17728 4.4032,-4.84084 6.785,-3.44976 1.0755,0.62811 0.5063,1.69793 -0.6181,1.16174 -1.4742,-0.70299 -3.5183,-0.004 -4.7473,1.62404 -0.6898,0.91362 -1.2273,1.16502 -1.4196,0.66398 z"
     id="path7"
     sodipodi:nodetypes="sssscsscssscsscssscsscssssssssscsscsssscsssssscsssssscssssscssscssscssssssssssscsscsssssssscssssssssssscsscsssssssscccsssssscssssssssscsscsssssssscssssssssssssscssssssssscsscsscsssssssssscsssssssssssssssssssssscssssscsssscssssssssscccssssscsssscccsssssssssssssssssssssscsssssssssssssssssssscssssssssssssssscssssssscssscsssssssssssssssssssssssssssssssssssssssssssssssssssssssscsscssscsssssscccssscsssssssssssssssscssscssssscssscssccsscsscssscsscssssscccssscsscssscsssscsscsscssssssssssscsssssssssssscsssscsscsssscsssscssssssscssssssscccccccsssscssscccsssscssscssscsscssssccssssscsssscsscssssssscssscscssssssssssssss"
     inkscape:label="cat" /><g
     id="g9"
     font-family="'Noto Sans Display', 'Noto Sans', 'DejaVu Sans', sans-serif"
     font-kerning="normal"
     transform="matrix(0.47454713,0,0,0.47454713,1073.2229,222.45312)"><!-- Warm accent sampled from the application's circular icon. --><text
       x="82"
       y="236"
       font-size="188px"
       font-weight="700"
       letter-spacing="-7"
       fill="#e9ebee"
       id="text8">Smegg</text><text
       x="675.90448"
       y="234.11996"
       font-size="188px"
       font-weight="300"
       letter-spacing="-5"
       fill="#9aa1ab"
       id="text9">Tuner</text></g></g></g>
</svg>
