<?xml version="1.0" encoding="UTF-8" standalone="no"?>
<svg
   viewBox="0 0 31.999999 31.999999"
   version="1.1"
   id="svg8"
   sodipodi:docname="SmeggTunerAccordion.svg"
   width="32"
   height="32"
   inkscape:version="1.4.4 (dcaf3e7d9e, 2026-05-05)"
   xmlns:inkscape="http://www.inkscape.org/namespaces/inkscape"
   xmlns:sodipodi="http://sodipodi.sourceforge.net/DTD/sodipodi-0.dtd"
   xmlns="http://www.w3.org/2000/svg"
   xmlns:svg="http://www.w3.org/2000/svg">
  <defs
     id="defs8" />
  <sodipodi:namedview
     id="namedview8"
     pagecolor="#505050"
     bordercolor="#f4f4f4fff"
     borderopacity="1"
     inkscape:showpageshadow="0"
     inkscape:pageopacity="0"
     inkscape:pagecheckerboard="1"
     inkscape:deskcolor="#505050"
     inkscape:zoom="16.000001"
     inkscape:cx="9.4062496"
     inkscape:cy="22.624999"
     inkscape:window-width="1920"
     inkscape:window-height="1044"
     inkscape:window-x="0"
     inkscape:window-y="0"
     inkscape:window-maximized="1"
     inkscape:current-layer="svg8" />
  <path
     id="path7-6-3"
     style="display:inline;mix-blend-mode:darken;fill:#ffffff;stroke:none;stroke-width:0.0532038"
     inkscape:label="badge"
     d="m 23.422615,5.8479199 c -0.40485,0.3691025 -0.852726,0.6761173 -1.2982,0.9888909 h -0.0023 -0.0023 l -0.0023,-0.00231 C 22.074615,6.8212399 21.842196,6.6244129 21.587071,6.3852626 20.950004,5.7880952 21.0158,5.781156 20.083416,6.529758 L 19.697342,6.8390683 19.162257,6.3875202 C 18.487461,5.8154096 18.515462,5.81316 17.812129,6.4146162 17.487425,6.6922232 17.249911,6.8612181 17.188991,6.8616493 h -0.0023 l -0.0023,-0.00231 h -0.0023 -0.0023 C 17.143677,6.838495 16.869382,6.6575289 16.567895,6.4574594 15.880314,6.0012203 15.92548,5.9967501 15.242602,6.5996973 14.562506,7.200159 14.690232,7.1837801 13.97375,6.7599959 13.188666,6.2956314 13.214708,6.2904447 12.522023,6.965451 L 11.953073,7.5208545 11.291554,7.1799366 C 10.432255,6.7380557 10.496173,6.7272855 9.8736939,7.3966798 9.2421967,8.0757319 9.4767996,8.0719589 7.9952529,7.4282837 7.4242948,7.1803585 7.3479664,7.1710738 7.0537748,7.3131382 6.7937767,7.438751 6.3414459,7.5667555 4.3083616,8.085286 3.4865386,8.2948784 3.0735166,8.4012652 2.8679227,8.4465246 h -0.00225 L 1.9941805,8.6655253 1.4952197,8.8055056 C 0.16620852,9.1811212 -0.2258714,9.8663463 0.11799768,11.214514 l 0.11740254,0.465096 0.16029965,0.670549 h 0.002254 v 0.0023 0.0023 c 1.23851233,4.331086 2.27804203,8.717016 3.49949813,13.052002 0.4968053,0.969772 0.8492162,0.978773 4.161017,0.112891 1.1951232,-0.333587 2.396357,-0.630653 3.610128,-0.885034 0.285892,0.04254 0.232658,0.08439 0.876003,-0.690868 0.543202,-0.654495 0.467623,-0.631189 0.887292,-0.279961 0.503763,0.421626 0.507361,0.424517 0.614106,0.39059 0.05475,-0.01734 0.238268,-0.248695 0.408651,-0.512507 l 0.309312,-0.478642 0.390589,0.377043 c 0.527241,0.511224 0.602737,0.48129 1.194345,-0.480899 l 0.0023,-0.0023 0.0023,-0.0023 0.0023,-0.0023 c 0.0044,-0.0047 0.0095,-0.0078 0.01355,-0.01133 l 0.0023,-0.0023 0.0023,-0.0023 h 0.0023 c 0.05013,-0.0104 0.151305,0.0756 0.392846,0.327372 0.489789,0.510115 0.484419,0.512243 0.936962,-0.121919 0.300033,-0.420388 0.2764,-0.422758 0.645714,0.02936 0.420074,0.514173 0.519025,0.485256 1.072427,-0.307053 0.146757,-0.210119 0.145153,-0.209641 0.517023,0.284476 0.373011,0.49555 0.40161,0.491985 0.83988,-0.0316 0.430674,-0.514496 0.371364,-0.513661 0.711188,0.0023 0.365656,0.555268 0.407437,0.554648 0.914385,-0.0045 l 0.388333,-0.428971 0.273186,0.361238 c 0.150331,0.197728 0.333209,0.426566 0.406393,0.507992 l 0.133393,0.146642 0.666034,0.07676 c 0.365774,0.04254 1.28287,0.132156 2.038741,0.198681 l 1.374964,0.121917 0.882777,0.06773 c 0.724902,0.09721 1.616085,-0.492856 1.821997,-1.205635 0.49421,-4.336896 1.005984,-8.651689 1.469789,-12.9842676 C 32.21931,6.9587138 32.154165,6.8943913 28.23183,6.4572487 l -2.483516,-0.2754453 -0.167073,0.090315 c -0.09184,0.049799 -0.357434,0.2320354 -0.591529,0.406394 -0.226776,0.1689209 -0.440334,0.3031918 -0.480898,0.3047951 -0.07345,-0.017259 -0.593974,-0.5677781 -1.085973,-1.1356439 z m -2.479,0.6547446 c 0.0075,-7.779e-4 0.01296,-1.607e-4 0.02032,0 0.117773,0.00243 0.227919,0.1260509 0.489929,0.3725278 l 0.433487,0.4086504 -0.03161,0.4289711 c -0.05744,0.7784454 -0.238156,3.7994762 -0.347692,5.8023942 -0.05913,1.082687 -0.156079,2.712029 -0.214485,3.61916 -0.0584,0.907119 -0.153022,2.419042 -0.20997,3.361776 l -0.103852,1.715883 -0.282217,0.343178 c -0.346705,0.421556 -0.331542,0.419437 -0.650229,-0.009 l -0.259641,-0.349949 0.03613,-6.734843 c 0.01963,-3.703722 0.04943,-7.0679624 0.06773,-7.4776382 l 0.03387,-0.7450543 0.494445,-0.3860733 c 0.281265,-0.219516 0.411704,-0.3382704 0.523792,-0.3499456 z m -2.442876,0.011329 h 0.0023 c 0.125298,-0.00243 0.244636,0.1180551 0.521537,0.3589809 l 0.471869,0.410908 -0.03161,0.6411991 c -0.01674,0.3530787 -0.04559,3.7174335 -0.06547,7.4753805 l -0.03613,6.831925 -0.273186,0.361238 c -0.330177,0.438515 -0.274251,0.436486 -0.609591,0.01807 L 18.202744,22.264006 18.12372,20.656494 C 18.081229,19.772351 17.999644,18.150455 17.940878,17.053133 17.723361,12.987705 17.463117,7.7669753 17.466753,7.5322396 l 0.0045,-0.241578 0.476383,-0.39962 c 0.298458,-0.2503666 0.427811,-0.374583 0.553146,-0.3770429 z m 4.894783,0 0.334146,0.3612385 c 0.526784,0.570742 0.493814,0.4079662 0.352207,1.7836158 -0.06846,0.6652377 -0.218872,2.0419022 -0.336402,3.0592382 -0.117532,1.017325 -0.310713,2.784987 -0.428972,3.926212 -0.211325,2.040356 -0.612343,5.809078 -0.672807,6.330706 -0.02702,0.233181 -0.0717,0.309524 -0.363496,0.62991 l -0.331888,0.365714 -0.151268,-0.205454 c -0.08288,-0.113285 -0.205455,-0.281487 -0.273188,-0.374785 l -0.124174,-0.169331 0.160298,-2.544473 c 0.145896,-2.307559 0.276141,-4.391932 0.582498,-9.353822 0.0578,-0.9363723 0.12239,-1.9941797 0.142238,-2.3525665 l 0.03612,-0.6524872 0.537341,-0.4018776 z m -7.450545,0.1715877 c 0.0092,-7.584e-4 0.01778,-2.74e-4 0.0271,0 0.131525,0.0037 0.273695,0.1095276 0.550889,0.3070528 0.575358,0.4100144 0.482211,-0.1255676 0.672807,3.862995 0.08942,1.87277 0.198079,4.038061 0.241577,4.813504 0.07755,1.382348 0.173593,3.137271 0.298023,5.438899 l 0.06095,1.155963 -0.25964,0.356722 c -0.328542,0.449937 -0.314369,0.448538 -0.657004,0.101598 L 16.592949,22.431028 16.42136,20.979301 C 16.327332,20.180969 16.104539,18.306129 15.92691,16.813768 15.542777,13.58677 14.977244,8.5285553 14.933504,7.929557 l -0.03161,-0.4267123 0.480899,-0.4244559 c 0.285199,-0.2528347 0.423306,-0.3814703 0.562178,-0.3928473 z m 10.401413,0.045152 0.20094,0.027096 c 0.110498,0.015143 0.691544,0.076687 1.291426,0.135465 4.040568,0.3956806 3.916851,0.2896567 3.603356,3.0524665 0,0 -1.415706,12.7752413 -1.472048,12.9233093 -0.08965,0.235793 -0.36089,0.540361 -0.600558,0.675066 -0.326132,0.183312 -0.706668,0.179405 -2.993766,-0.03613 -2.334087,-0.219991 -2.10227,-0.16127 -1.925854,-0.485414 0.09645,-0.17714 0.156165,-0.398203 0.191909,-0.706673 0.0286,-0.246382 0.160822,-1.358013 0.295765,-2.469969 0.134929,-1.111956 0.326871,-2.703922 0.426712,-3.53788 0.09996,-0.83397 0.266432,-2.210642 0.370271,-3.059239 0.538436,-4.4015103 0.675685,-5.6914881 0.643454,-6.1049323 z m -0.641198,0.09257 c 0.0074,-5.341e-4 0.01555,-1.191e-4 0.02257,0 0.247107,0.0037 0.267238,0.41706 0.144495,1.3885109 -0.03223,0.2547143 -0.129988,1.0837716 -0.216742,1.8445739 -0.08676,0.760815 -0.299864,2.557839 -0.474126,3.991687 -0.174273,1.433834 -0.425946,3.528883 -0.559919,4.655463 -0.133938,1.12659 -0.293155,2.465879 -0.354466,2.977959 -0.08869,0.740349 -0.136296,0.976605 -0.234806,1.149191 -0.226653,0.396934 -0.241058,0.393581 -0.627651,-0.101598 l -0.347693,-0.444774 0.02257,-0.207713 c 0.01211,-0.114556 0.04532,-0.447919 0.0745,-0.740539 0.02922,-0.292609 0.147715,-1.40642 0.264156,-2.474484 0.11644,-1.068053 0.299329,-2.742747 0.404135,-3.723015 0.104928,-0.980293 0.318564,-2.955205 0.476383,-4.38905 0.157855,-1.4338445 0.30335,-2.766532 0.322858,-2.9621556 0.01945,-0.1923315 0.06299,-0.3510661 0.09934,-0.3815582 h 0.0023 c 0.03647,-0.013929 0.270247,-0.1718235 0.51928,-0.3499494 0.200084,-0.1431279 0.352049,-0.2245297 0.462837,-0.2325474 z m -12.442412,0.067728 0.117403,0.0587 c 0.09137,0.047256 0.971236,0.5629865 1.036303,0.6073317 0.02472,0.016831 0.122447,0.8395265 0.363495,3.0863321 0.131854,1.229013 0.321996,2.903679 0.422198,3.723016 0.100326,0.819347 0.232681,1.933135 0.293507,2.474483 0.06081,0.54135 0.23985,2.01564 0.399621,3.278241 l 0.291248,2.296122 -0.275445,0.406394 c -0.330663,0.484453 -0.268381,0.475769 -0.668291,0.06999 l -0.327372,-0.331887 -0.185136,-1.03856 C 14.628043,20.950588 14.375404,19.58637 14.170391,18.489049 13.090595,12.709785 12.353694,8.6924685 12.276146,8.1666554 L 12.24002,7.9250775 12.752527,7.4080544 Z M 10.567037,7.362899 h 0.0023 0.0023 0.0023 c 0.106858,1.444e-4 0.923039,0.4159133 1.117583,0.5734665 0.110868,0.089784 0.155566,0.2869749 0.447033,1.9348843 0.178575,1.0095452 0.56553,3.1294982 0.857941,4.7096472 0.292373,1.580144 0.626797,3.399858 0.745055,4.043614 0.118259,0.643767 0.333665,1.772467 0.47864,2.510609 0.317928,1.620093 0.315726,1.474961 0.02257,1.928111 h 0.0023 c -0.307544,0.475378 -0.262078,0.466121 -0.672807,0.117403 L 13.21784,22.880352 13.023675,22.056276 C 12.837733,21.273989 10.552596,12.104668 9.9079913,9.5529068 L 9.6054548,8.3563039 10.063776,7.8776623 c 0.251371,-0.2636822 0.475896,-0.4943317 0.501218,-0.5125068 h 0.0023 z M 7.4468391,7.7399407 h 0.00225 0.00225 0.00225 c 0.064711,-0.00127 0.4429093,0.1342976 0.8782613,0.3160832 l 0.8443956,0.3522083 1.370449,5.4795368 c 2.580913,10.33169 2.313761,8.977687 1.862636,9.500575 -0.204686,0.237273 -0.416248,0.489279 -0.471867,0.55992 -0.278101,0.353643 -0.35022,0.184233 -1.0205,-2.451907 C 10.352924,19.278098 9.306807,15.204698 8.503451,12.099638 7.6066997,8.633556 7.4017549,7.783153 7.4468282,7.7421983 Z m -0.8308487,0.2167432 0.1783615,0.076767 c 0.2619852,0.109539 0.2887866,0.1831173 0.871488,2.4790001 0.2928577,1.153988 0.7359297,2.888319 0.9843753,3.853965 0.2484526,0.965646 0.6191594,2.414838 0.8240748,3.219538 0.2049523,0.804712 0.651653,2.547176 0.991148,3.872026 l 0.616363,2.40901 -0.09032,0.18965 c -0.12396,0.26126 -0.09185,0.251569 -2.9982743,1.002438 C 4.8270875,25.877107 5.0703998,25.837457 4.6585231,25.594162 4.3041116,25.384805 4.2893208,25.344981 3.6267353,22.747151 1.9095417,16.014973 2.1976361,17.54097 0.93325594,12.585019 0.36787074,10.382495 0.36740015,10.378667 0.54943989,9.9773281 0.80438659,9.4153101 0.4326047,9.5466195 5.3764904,8.2749911 Z m 21.6065816,0.85565 c -0.07804,-3.029e-4 -0.160473,0.016137 -0.243835,0.05418 -0.373628,0.1702133 -0.344342,0.7888124 0.04515,0.9572826 0.178734,0.077299 0.468616,0.00936 0.598302,-0.1399803 0.320887,-0.3693084 0.02203,-0.8698825 -0.399619,-0.8714823 z M 5.7174094,9.6996263 c -0.2596965,0.00844 -0.7786428,0.1462213 -1.8739252,0.4244557 -2.0705618,0.526006 -1.9321012,0.450577 -1.7813577,1.006952 0.1142554,0.423099 0.0067,0.423162 1.6594397,-0.0023 C 4.4463831,10.942367 5.2751314,10.734829 5.563883,10.665886 6.1727671,10.520474 6.1696396,10.526494 6.0425242,10.049521 5.9789114,9.8110912 5.9770619,9.6906538 5.7174094,9.699572 Z M 29.6743,10.243742 c -0.48612,0 -0.734179,0.525663 -0.404136,0.855684 0.350244,0.350243 0.855678,0.125696 0.855685,-0.3793 0,-0.211182 -0.252144,-0.476384 -0.451549,-0.476384 z m -1.761038,0.894066 c -0.192885,-0.0084 -0.389903,0.09602 -0.480898,0.313825 -0.09379,0.224486 -0.02509,0.500972 0.155783,0.627652 0.396178,0.277471 0.933484,-0.127689 0.781179,-0.589271 -0.07427,-0.224859 -0.263181,-0.34398 -0.456064,-0.352206 z M 6.3473191,11.347777 C 6.3021211,11.297497 2.446633,12.260741 2.3985298,12.33441 v 0.0023 0.0023 c -0.016137,0.07562 0.096859,0.568481 0.1919081,0.819561 0.03187,0.0841 3.8054938,-0.823629 3.932985,-0.945995 h 0.00225 v -0.0023 -0.0023 l 0.00225,-0.0023 c 0.033327,-0.08406 -0.1108338,-0.780471 -0.1806193,-0.857942 z m 22.9341349,0.934705 c -0.443785,0 -0.686409,0.585592 -0.365754,0.882777 0.482351,0.447022 1.18052,-0.262187 0.715703,-0.726992 -0.115111,-0.115111 -0.20604,-0.155785 -0.349949,-0.155785 z m -22.6496594,0.84891 c -0.2348213,0.0027 -0.7248428,0.138061 -1.8107085,0.41091 -1.0480277,0.263317 -1.9105986,0.47864 -1.9190799,0.47864 h -0.00225 l -0.00225,0.0023 v 0.0023 l -0.00225,0.0023 0.234805,0.950508 0.8060137,-0.207711 C 4.2098267,14.695039 4.5944856,14.595365 5.1191312,14.463586 7.1875487,13.94405 7.027702,14.028391 6.9072621,13.517591 6.8462401,13.258661 6.8666301,13.128668 6.631807,13.131356 Z M 27.581375,13.29395 c -0.471168,0.01649 -0.688727,0.677498 -0.25964,0.945993 0.357004,0.223378 0.783435,-0.01156 0.783435,-0.431227 0,-0.266 -0.173585,-0.470795 -0.426714,-0.507994 -0.03356,-0.0049 -0.06569,-0.0081 -0.09708,-0.0068 z m 1.501397,1.131129 c -0.443784,0 -0.686408,0.585589 -0.365754,0.882776 0.482352,0.447011 1.180521,-0.262192 0.715704,-0.726993 -0.115111,-0.115134 -0.206041,-0.155783 -0.34995,-0.155783 z M 7.2549311,15.009833 c -0.022044,-0.01376 -0.811579,0.171047 -1.7542649,0.410909 l -0.8579416,0.216744 -0.1354644,0.03613 -1.1266129,0.298021 -0.00225,0.0023 0.225774,0.916642 0.462837,-0.126432 c 0.00936,-0.0035 0.018959,-0.0067 0.029351,-0.009 0.8004377,-0.184018 3.2966824,-0.836589 3.3324259,-0.871488 l 0.00225,-0.0023 v -0.0023 -0.0023 c 0.034875,-0.08745 -0.105736,-0.786636 -0.1738461,-0.867033 z m 20.0780919,0.447033 c -0.443784,0 -0.686409,0.58559 -0.365754,0.882777 0.482351,0.447011 1.180521,-0.26219 0.715704,-0.726993 -0.115111,-0.115134 -0.206041,-0.155784 -0.34995,-0.155784 z m 1.438181,1.28917 c -0.398383,0.0178 -0.626233,0.565882 -0.322857,0.86923 0.36373,0.363747 0.989217,-0.04162 0.826333,-0.535084 -0.07561,-0.228823 -0.159361,-0.294733 -0.41994,-0.329629 -0.028,-0.0035 -0.05701,-0.0057 -0.08354,-0.0045 z m -21.0579514,0.06095 c -0.029685,-0.02971 -0.078939,-0.0185 -2.120019,0.505735 -0.087946,0.02254 -0.1722177,0.0449 -0.252867,0.06547 l -0.056444,0.01354 -1.4607586,0.374786 0.2122277,0.857941 c 0,0 3.7577498,-0.881522 3.8359022,-0.952768 l 0.00225,-0.0023 v -0.0023 l 0.00225,-0.0023 c 0.045487,-0.09132 -0.080882,-0.776249 -0.1625573,-0.857941 z m 19.3646454,0.828597 c -0.404501,0.0035 -0.720589,0.550534 -0.386074,0.885036 0.281567,0.281569 0.880519,0.06335 0.880519,-0.320601 0,-0.180711 -0.133751,-0.435948 -0.264155,-0.505733 -0.0773,-0.04138 -0.155373,-0.05927 -0.23029,-0.0587 z M 8.0022435,18.586095 c -0.201911,-0.0023 -0.6042404,0.110626 -1.4765628,0.334146 -0.8168188,0.209357 -1.6408352,0.419494 -1.831028,0.467353 l -0.3454345,0.08806 0.00452,0.212228 c 0,0 0.035346,0.313631 0.06999,0.438001 h -0.00225 c 0.081056,0.290945 -0.029593,0.30333 1.8513477,-0.178362 0.872216,-0.22336 1.6888586,-0.430224 1.8152239,-0.458326 C 8.3781469,19.424455 8.3914833,19.387008 8.268669,18.938307 8.204801,18.705023 8.205748,18.588493 8.0045008,18.5861 Z m 20.5273815,0.32963 c -0.514956,0 -0.71533,0.690909 -0.270929,0.932447 0.361305,0.196375 0.749571,-0.0289 0.749571,-0.433485 0,-0.320145 -0.171001,-0.498962 -0.478642,-0.498962 z m -1.756523,0.905356 c -0.46684,0 -0.694053,0.620478 -0.331887,0.905353 0.263998,0.207681 0.681754,0.09639 0.810529,-0.214485 0.130229,-0.314376 -0.131064,-0.690868 -0.478642,-0.690868 z M 8.4583071,20.306493 c -0.2075822,-0.0035 -0.6329232,0.119227 -1.5668723,0.361239 -0.9010053,0.233563 -1.724447,0.439896 -1.8287704,0.458322 -0.3514915,0.06196 -0.3843086,0.246606 -0.1512686,0.862458 0.060584,0.16003 -0.052851,0.180508 1.9913276,-0.336404 2.1034825,-0.531929 1.9351783,-0.44427 1.815224,-0.952767 -0.061186,-0.259665 -0.052065,-0.389183 -0.2596403,-0.392848 z m 19.7529769,0.785695 c -0.106383,-0.0047 -0.213847,0.0221 -0.304795,0.08579 -0.281518,0.197139 -0.263208,0.744187 0.02935,0.903097 0.421634,0.228985 0.872492,-0.105192 0.783436,-0.58024 -0.04445,-0.237042 -0.274051,-0.395921 -0.507991,-0.406394 z M 8.9143704,22.044955 c -0.1951731,-0.0058 -0.5856665,0.102881 -1.4314075,0.320599 -0.7869984,0.202593 -1.6051866,0.411909 -1.8174816,0.465094 -0.5371415,0.134497 -0.5178092,0.107609 -0.4154244,0.557663 0.048712,0.213783 0.1003712,0.409488 0.1151444,0.433486 0.00404,0.0069 0.010404,0.01535 0.015805,0.02032 h 0.00225 v 0.0023 h 0.00225 0.00225 c 0.065624,0.03514 0.3147669,-0.02635 1.9393996,-0.440258 2.1179492,-0.53954 1.978125,-0.465219 1.8445753,-0.979876 C 9.1072751,22.1756 9.1095979,22.051617 8.9143481,22.044982 Z"
     sodipodi:nodetypes="sccccccccccccccccscccccccccccccccccccccccccccccccccccccsccccccccccccccccccccscccccscccccccccsccccccccccccccsccccccccccccccccccscccsccccccccccsccccscccccccccsccsccccccccsccccccscccscsccccccccccccccssccsccccccccccccccccccccccccccccccscccscccccccccscccccscscsscscccccccccsccccscssccscccccccscccsccsccscccccccccccccccsccsccccccccccccccccccscccccccccccsccssssscssccccccccccccccsccccccccccccccccccccccc" />
</svg>
