<?xml version="1.0" encoding="UTF-8" standalone="no"?>
<!-- Created with Inkscape (http://www.inkscape.org/) -->

<svg
   width="29.407629mm"
   height="30.528965mm"
   viewBox="0 0 29.407629 30.528964"
   version="1.1"
   id="svg1"
   inkscape:version="1.4.4 (dcaf3e7d9e, 2026-05-05)"
   sodipodi:docname="SmeggTunerMascotTop.svg"
   xml:space="preserve"
   inkscape:export-filename="thethughunterhoodie.png"
   inkscape:export-xdpi="256"
   inkscape:export-ydpi="256"
   xmlns:inkscape="http://www.inkscape.org/namespaces/inkscape"
   xmlns:sodipodi="http://sodipodi.sourceforge.net/DTD/sodipodi-0.dtd"
   xmlns="http://www.w3.org/2000/svg"
   xmlns:svg="http://www.w3.org/2000/svg">
  <sodipodi:namedview
   id="namedview1"
   pagecolor="#505050"
   bordercolor="#ffffff"
   borderopacity="1"
   inkscape:showpageshadow="0"
   inkscape:pageopacity="0"
   inkscape:pagecheckerboard="1"
   inkscape:deskcolor="#505050"
   inkscape:document-units="mm"
   inkscape:zoom="2.8284271"
   inkscape:cx="4.4194174"
   inkscape:cy="25.809398"
   inkscape:window-width="1920"
   inkscape:window-height="1044"
   inkscape:window-x="0"
   inkscape:window-y="0"
   inkscape:window-maximized="1"
   inkscape:current-layer="layer1" />
  <defs
   id="defs1" />
  <g
   inkscape:label="Layer 1"
   inkscape:groupmode="layer"
   id="layer1"
   transform="translate(-163.24162,-265.03381)">
    
    
    
  <path
   id="path7"
   style="fill:#ffffff;stroke:none;stroke-width:0.0439097"
   inkscape:label="cat"
   d="m 180.29004,265.03389 v 5.2e-4 c -0.06,-0.003 -0.12217,0.006 -0.18655,0.0289 -0.64373,0.22713 -2.22642,1.95911 -2.47685,2.71042 v 5.2e-4 l -5.2e-4,5.2e-4 -5.1e-4,5.1e-4 c -0.0238,0.0196 -0.30352,0.0129 -0.65939,-0.0165 -1.38787,-0.11484 -3.00396,0.1753 -4.15169,0.74517 -0.22363,0.11133 -0.33892,0.14661 -0.37982,0.11731 -0.0323,-0.0231 -0.26315,-0.20838 -0.51315,-0.41135 -1.40613,-1.14156 -2.90314,-1.82259 -3.32124,-1.51102 -0.62902,0.46878 -0.4426,3.24534 0.33228,4.94699 l 0.15709,0.34365 -0.0935,0.35863 c -0.30029,1.15425 -0.28767,2.85565 0.0295,3.92741 l 0.0429,0.14418 -0.26614,0.47077 c -0.14642,0.25884 -0.42819,0.7471 -0.6258,1.08521 -0.76367,1.30656 -1.28722,2.29734 -1.54099,2.9161 l -0.0971,0.23771 -0.41186,0.11627 c -1.09685,0.31 -1.42017,0.87585 -1.13637,1.98851 l 0.0977,0.38292 -0.28422,0.38447 c -1.17838,1.59699 -1.61859,2.66214 -1.55649,3.76412 0.0897,1.59233 1.13118,2.69664 2.54816,2.70164 0.33504,0.0149 0.65753,-0.11202 0.97927,-0.19327 0,0 0.0989,-0.006 0.12247,0.094 0.24183,1.0202 1.15373,4.46469 1.21233,4.57905 0.41002,0.80036 0.70063,0.80818 3.4339,0.0935 0.98635,-0.27532 1.97792,-0.52075 2.97966,-0.7307 0.23595,0.0351 0.19251,0.0693 0.72347,-0.57051 0.44831,-0.54016 0.38642,-0.52087 0.73278,-0.23099 0.41576,0.34797 0.41781,0.34943 0.50591,0.32143 0.0452,-0.0143 0.19734,-0.20395 0.33796,-0.42168 l 0.2558,-0.39585 0.32143,0.31161 c 0.43514,0.42192 0.49721,0.39672 0.98547,-0.39739 0.0325,-0.0529 0.10088,-0.003 0.34623,0.2527 0.40423,0.421 0.40114,0.42158 0.77463,-0.1018 0.24762,-0.34696 0.22747,-0.34832 0.53227,0.0248 0.34669,0.42435 0.429,0.4012 0.88573,-0.2527 0.12112,-0.17341 0.11839,-0.17474 0.4253,0.23306 0.30785,0.40898 0.33282,0.40788 0.69453,-0.0243 0.35544,-0.42462 0.30658,-0.42461 0.58704,0.001 0.30178,0.45827 0.33557,0.45835 0.75396,-0.003 l 0.32091,-0.35398 0.22531,0.29713 c 0.12407,0.16319 0.27498,0.35138 0.33538,0.41858 l 0.10956,0.12248 0.54932,0.0636 c 0.30188,0.0351 1.05927,0.10891 1.6831,0.16381 l 1.1343,0.0997 0.72967,0.0558 c 0.59827,0.0802 1.33229,-0.40548 1.50223,-0.99374 0.0385,-0.13306 0.31172,-2.10807 0.59376,-4.28966 l 0.0744,-0.57671 0.29507,-0.0212 c 0.89619,-0.0641 1.4369,-0.70887 1.64796,-1.96577 0.23442,-1.39597 -0.1934,-2.29405 -1.20871,-2.53886 l -0.30593,-0.0734 v -0.13178 c 0,-0.0725 0.0525,-0.57643 0.11679,-1.11982 0.29466,-2.49106 0.24095,-2.54344 -2.9962,-2.90422 l -2.04845,-0.22789 -0.13798,0.0744 c -0.0758,0.0411 -0.29617,0.19252 -0.48937,0.33642 -0.1932,0.14391 -0.37178,0.25714 -0.39688,0.25114 -0.0813,-0.0191 -0.82335,-0.83018 -1.28622,-1.4056 -0.24799,-0.30829 -0.68743,-0.80509 -0.97617,-1.1038 l -0.52452,-0.54312 0.17777,-0.29301 c 0.15333,-0.25237 0.40316,-0.77976 0.49816,-1.05161 0.0496,-0.14171 0.98225,0.008 1.89136,0.30282 0.51193,0.16616 0.60903,0.16799 0.58653,0.0119 -0.0248,-0.17314 -1.04453,-0.50472 -1.86966,-0.60823 -0.5213,-0.0654 -0.50129,-0.048 -0.42529,-0.36948 0.0343,-0.1449 0.063,-0.32843 0.063,-0.40773 4e-4,-0.0793 0.0256,-0.1528 0.0558,-0.1633 0.19069,-0.0664 1.08384,-0.0967 1.79266,-0.062 0.83933,0.041 0.94229,0.0253 0.84749,-0.12609 -0.0957,-0.15289 -1.52648,-0.23994 -2.2965,-0.14004 -0.17925,0.0236 -0.32935,0.0375 -0.33435,0.0315 -0.005,-0.006 -0.0209,-0.21179 -0.0362,-0.45734 l -0.0284,-0.44648 0.40617,-0.13436 c 0.52186,-0.1727 1.07699,-0.3027 1.57975,-0.37 0.41428,-0.0555 0.55758,-0.13851 0.44132,-0.25477 -0.0966,-0.0965 -1.2652,0.1033 -2.06499,0.35295 l -0.40669,0.12713 -0.0269,-0.11679 c -0.29501,-1.26989 -0.84399,-2.33925 -1.61695,-3.15071 l -0.32866,-0.34572 v -0.74672 c -0.003,-1.98788 -0.36865,-3.20724 -0.94827,-3.23805 z m -0.0351,0.44907 0.002,0.001 c 0.29797,0 0.54113,1.15313 0.57413,2.72232 l 0.0217,1.03146 0.38086,0.39842 c 0.73337,0.7671 1.26183,1.76655 1.51308,2.86029 0.0732,0.31855 0.10045,0.28342 -0.41186,0.53072 -0.39463,0.1905 -0.79881,0.44409 -1.05368,0.66146 l -0.15348,0.13126 0.0677,0.0698 0.0677,0.0692 0.39274,-0.2465 c 0.47014,-0.2952 1.12639,-0.63022 1.17771,-0.60203 l 5.1e-4,5.2e-4 h 5.2e-4 l 5.2e-4,5.1e-4 c 0.0149,0.0149 0.0269,0.20158 0.0269,0.41445 v 0.38705 l -0.12092,0.0264 c -0.62357,0.13811 -1.25509,0.34798 -1.33429,0.44338 -0.13089,0.15768 0.0395,0.15809 0.60668,10e-4 0.93665,-0.25926 0.86461,-0.27876 0.76481,0.21135 l -0.0713,0.3514 -0.61392,0.0217 -0.61391,0.0222 v 0.0879 0.0873 l 0.56379,0.0124 0.56431,0.0124 -0.0295,0.11937 c -0.0354,0.14326 -0.34844,0.76453 -0.56792,1.12706 -0.20402,0.33702 -0.21386,0.29999 0.19688,0.7059 0.57399,0.56724 1.68415,1.87712 1.65675,1.95492 -0.02,0.0568 -0.65842,0.52497 -0.71262,0.52297 -0.026,-0.001 -0.225,-0.16885 -0.44235,-0.37259 -0.52578,-0.49285 -0.47124,-0.49794 -1.24075,0.11989 l -0.31833,0.2558 -0.4408,-0.37362 c -0.55692,-0.47217 -0.53522,-0.47308 -1.11569,0.0233 -0.28116,0.24038 -0.47939,0.38089 -0.51728,0.3669 h -5.2e-4 l -5.2e-4,-5.1e-4 c -1.6e-4,-6e-5 -0.001,4e-5 -0.002,0 -0.0298,-0.0172 -0.25761,-0.16665 -0.50643,-0.33177 -0.56747,-0.37654 -0.52884,-0.38083 -1.09243,0.11679 -0.56129,0.49557 -0.45668,0.48257 -1.048,0.13281 -0.64794,-0.38324 -0.62567,-0.38656 -1.19735,0.17053 l -0.46922,0.45734 -0.54725,-0.28164 c -0.70919,-0.36469 -0.65673,-0.37262 -1.17047,0.17984 -0.52118,0.56043 -0.32756,0.55752 -1.5503,0.0263 -0.47122,-0.20462 -0.53389,-0.21235 -0.77669,-0.0951 -0.21458,0.10367 -0.58757,0.20818 -2.2655,0.63613 -1.1204,0.28574 -1.31781,0.33919 -1.34875,0.31781 -2.8e-4,-2.3e-4 -0.001,-10e-4 -0.002,-0.002 -2.1e-4,-2.6e-4 -0.001,-10e-4 -0.002,-0.002 -0.004,-0.007 0,-0.0197 0,-0.0331 0,-0.0935 0.90385,-1.80161 1.47175,-2.78123 1.04109,-1.79584 0.9516,-1.50394 0.76636,-2.50269 -0.19046,-1.02704 -0.16455,-2.2506 0.0682,-3.22409 l 0.11369,-0.47491 -0.17622,-0.42323 c -0.60385,-1.45468 -0.87707,-3.33676 -0.60719,-4.20956 l 0.078,-0.2527 h 0.15141 c 0.54374,0 2.12723,0.94663 3.17138,1.8955 0.22542,0.20489 0.33243,0.21139 0.63821,0.0393 1.16932,-0.65846 3.50878,-1.01877 4.87257,-0.75034 0.34173,0.0673 0.44973,0.0131 0.41393,-0.20774 -0.0767,-0.47219 1.71398,-2.55689 2.19624,-2.55695 z m 0.004,6.60425 c -0.67483,-0.007 -1.55627,0.54686 -1.37666,1.01492 0.0509,0.13256 0.19318,0.066 0.37569,-0.1757 0.32517,-0.43069 0.8662,-0.61595 1.25625,-0.42995 0.29749,0.14186 0.44786,-0.14128 0.1633,-0.30747 -0.11816,-0.069 -0.26284,-0.1003 -0.41858,-0.1018 z m -5.94434,1.02371 c -0.0391,0.002 -0.0771,0.006 -0.11317,0.0119 -0.52339,0.0863 -1.01166,0.41776 -0.92966,0.63149 0.0415,0.10811 0.19347,0.0861 0.40876,-0.06 0.45119,-0.30579 1.06667,-0.29597 1.55184,0.0243 0.19008,0.1255 0.26452,0.13387 0.34262,0.0398 0.20377,-0.24553 -0.67403,-0.67343 -1.26039,-0.6475 z m 4.14238,1.15238 c -0.10876,0.002 -0.24203,0.0177 -0.39997,0.0475 -0.86979,0.16445 -0.92899,0.47687 -0.16744,0.88419 0.7398,0.39567 -0.39436,1.51629 -1.16943,1.15548 -0.18108,-0.0843 -0.25001,-0.0988 -0.29611,-0.0605 -0.14187,0.11773 -0.008,0.27243 0.34572,0.39843 0.52549,0.18725 1.05194,-0.0283 1.46709,-0.60048 l 0.0951,-0.13075 0.0806,0.0734 c 0.53004,0.47968 1.51465,0.30665 1.66501,-0.29248 0.0597,-0.23791 -0.1013,-0.26627 -0.2682,-0.0476 -0.0635,0.0833 -0.19898,0.19183 -0.30127,0.24133 -0.63714,0.30843 -1.40508,-0.35266 -1.00304,-0.86351 0.43443,-0.55203 0.4233,-0.8124 -0.0481,-0.80512 z m -4.59713,0.83923 c -1.36719,-0.006 -3.28104,0.50579 -3.02876,0.80977 0.0357,0.043 0.1735,0.0135 0.6351,-0.1354 0.96109,-0.30989 1.39769,-0.38052 2.43861,-0.39532 l 0.90021,-0.0129 v -0.10077 c 0,-0.13302 -0.16724,-0.16236 -0.94516,-0.16536 z m 0.82165,0.74465 c -0.95975,0.003 -3.75701,1.29473 -3.38842,1.56425 0.0429,0.0314 0.0898,0.0504 0.10438,0.0424 0.0146,-0.008 0.19514,-0.11533 0.40101,-0.23822 0.8491,-0.50687 1.99158,-0.96905 2.73059,-1.10485 0.42799,-0.0786 0.53569,-0.26455 0.15244,-0.26355 z m 0.30593,0.61392 c -0.49287,0 -2.67878,1.77004 -2.45825,1.99058 0.0609,0.0609 0.1216,0.019 0.51263,-0.35089 0.49673,-0.46988 1.11731,-0.93574 1.61954,-1.21594 0.49297,-0.27505 0.60762,-0.42375 0.32608,-0.42375 z m 7.20834,2.88406 c 0.0972,0.002 0.18684,0.10354 0.40308,0.30696 l 0.35811,0.33693 -0.0263,0.3545 c -0.0474,0.64246 -0.19692,3.13686 -0.28732,4.78989 -0.0488,0.89356 -0.12802,2.2372 -0.17622,2.98586 -0.0482,0.74866 -0.12611,1.99749 -0.17311,2.77554 l -0.0853,1.4149 -0.23306,0.28319 c -0.28614,0.34792 -0.27338,0.34746 -0.5364,-0.006 l -0.21549,-0.2899 0.0294,-5.5578 c 0.0162,-3.05673 0.0423,-5.83413 0.0574,-6.17224 l 0.0279,-0.61495 0.40773,-0.31832 c 0.24761,-0.19325 0.35238,-0.29049 0.44958,-0.28836 z m -2.03347,0.009 h 5.2e-4 5.2e-4 c 0.10341,-0.002 0.20245,0.0983 0.43098,0.29714 l 0.3886,0.33848 -0.0248,0.52968 c -0.0138,0.2914 -0.0389,3.06765 -0.0553,6.16913 l -0.0295,5.63893 -0.22427,0.29714 c -0.2725,0.36192 -0.22709,0.36032 -0.50385,0.015 l -0.22996,-0.2868 -0.0636,-1.32654 c -0.0351,-0.72969 -0.10343,-2.06783 -0.15193,-2.97346 -0.17952,-3.35525 -0.39367,-7.66367 -0.39067,-7.8574 l 0.003,-0.19999 0.39274,-0.32918 c 0.24632,-0.20663 0.35441,-0.31009 0.45785,-0.31212 z m 4.03955,0 0.27544,0.29869 c 0.43476,0.47104 0.40832,0.33743 0.29145,1.47277 -0.0565,0.54903 -0.18205,1.68478 -0.27905,2.5244 -0.097,0.83961 -0.25587,2.29722 -0.35347,3.23908 -0.17441,1.68393 -0.50459,4.79501 -0.55449,5.22552 -0.0223,0.19245 -0.0594,0.25648 -0.30024,0.5209 l -0.27492,0.30179 -0.12454,-0.17002 c -0.0684,-0.0935 -0.16992,-0.23254 -0.22582,-0.30954 l -0.10129,-0.14004 0.13281,-2.09962 c 0.12041,-1.90445 0.22723,-3.62483 0.48007,-7.71994 0.0477,-0.7728 0.0999,-1.64674 0.11628,-1.94252 l 0.03,-0.53795 0.4439,-0.33176 z m -6.12676,0.14262 c 0.10855,0.003 0.22547,0.0902 0.45424,0.25322 0.47485,0.33839 0.3977,-0.10441 0.555,3.1874 0.0738,1.54562 0.16357,3.33394 0.19947,3.97392 0.064,1.14087 0.14329,2.58905 0.24598,4.48861 l 0.0517,0.95395 -0.21446,0.29404 c -0.27115,0.37133 -0.25982,0.36953 -0.5426,0.0832 l -0.23719,-0.24081 -0.14108,-1.19786 c -0.0776,-0.65887 -0.26113,-2.20533 -0.40773,-3.437 -0.31703,-2.66328 -0.784,-6.83853 -0.8201,-7.33289 l -0.0258,-0.3514 0.39636,-0.3514 c 0.25107,-0.22258 0.36325,-0.32661 0.48627,-0.32298 z m 8.56124,0.0362 0.16588,0.0227 c 0.0912,0.0125 0.57099,0.0626 1.06608,0.11111 3.33473,0.32656 3.23323,0.24059 2.9745,2.52077 l -0.14418,1.27021 -0.25115,0.0568 c -0.46178,0.10488 -0.7687,0.3302 -0.90847,0.66766 -0.0439,0.10527 -0.0769,0.13492 -0.12919,0.11162 -0.26382,-0.11721 -0.57057,-0.0508 -0.65887,0.14314 -0.19298,0.42358 0.31024,0.8444 0.63975,0.53485 0.1551,-0.14568 0.17985,-0.0549 0.0289,0.10645 -0.21048,0.22512 -0.30235,0.54292 -0.23875,0.82579 l 0.0408,0.18087 -0.0951,-0.0294 c -0.0523,-0.0163 -0.13453,-0.0394 -0.18293,-0.0512 -0.39986,-0.0976 -0.62795,0.55638 -0.27182,0.77928 0.27017,0.16908 0.58002,0.0337 0.62942,-0.27492 0.0146,-0.0911 0.0425,-0.16616 0.062,-0.16847 h 5.2e-4 c 0.0787,0 0.086,0.096 0.0212,0.28681 -0.16044,0.47256 0.18623,1.054 0.74982,1.2578 0.11668,0.0422 0.14831,0.0784 0.14831,0.16795 0,0.21806 -0.60875,4.67751 -0.65525,4.79971 -0.074,0.1946 -0.29778,0.4459 -0.49558,0.55707 -0.26916,0.15129 -0.58412,0.14743 -2.47169,-0.0305 -1.92635,-0.18156 -1.73465,-0.13297 -1.58905,-0.40049 0.0796,-0.1462 0.12863,-0.32781 0.15813,-0.5824 0.0236,-0.20334 0.1341,-1.1204 0.24547,-2.03811 0.11136,-0.91771 0.27003,-2.23196 0.35243,-2.92024 0.0825,-0.68829 0.21971,-1.82403 0.30541,-2.52439 0.44438,-3.63262 0.5568,-4.69827 0.5302,-5.03949 z m -0.51005,0.0765 v 5.1e-4 c 0.20394,0.003 0.22119,0.34392 0.11989,1.14567 -0.0266,0.21022 -0.10668,0.89552 -0.17828,1.52342 -0.0716,0.62791 -0.24789,2.10997 -0.39171,3.29334 -0.14383,1.18336 -0.35194,2.91236 -0.46251,3.84214 -0.11054,0.92979 -0.2424,2.03614 -0.293,2.45877 -0.0732,0.61101 -0.113,0.8053 -0.1943,0.94774 -0.18706,0.32759 -0.19771,0.32546 -0.51677,-0.0832 l -0.2868,-0.36742 0.0181,-0.17209 c 0.01,-0.0945 0.0374,-0.36931 0.0615,-0.61081 0.0241,-0.2415 0.12249,-1.16025 0.21859,-2.04174 0.0961,-0.88148 0.24578,-2.26468 0.33228,-3.07371 0.0866,-0.80904 0.26352,-2.43915 0.39377,-3.62252 0.13028,-1.18337 0.25055,-2.28336 0.26665,-2.44481 0.0171,-0.16914 0.0527,-0.30261 0.0842,-0.31471 0.0301,-0.0115 0.22286,-0.14135 0.42839,-0.28836 0.17614,-0.126 0.30728,-0.1938 0.39998,-0.19223 z m -10.28723,0.0558 0.0977,0.0496 c 0.0754,0.039 0.80155,0.46363 0.85525,0.50023 0.0204,0.0139 0.10026,0.69229 0.2992,2.54661 0.10882,1.01432 0.2656,2.3975 0.3483,3.07371 0.0828,0.67621 0.19165,1.59496 0.24185,2.04174 0.0502,0.44678 0.19887,1.66477 0.33073,2.70681 l 0.23978,1.89498 -0.2279,0.33383 c -0.2729,0.39983 -0.21978,0.39376 -0.54983,0.0589 l -0.27079,-0.2744 -0.15348,-0.85628 c -0.0844,-0.47093 -0.29175,-1.59706 -0.46095,-2.50269 -0.89117,-4.7697 -1.50025,-8.08594 -1.56425,-8.5199 l -0.0289,-0.19947 0.42168,-0.42736 z m -2.21847,0.38912 c 0.0882,1.2e-4 0.76032,0.34384 0.92088,0.47387 0.0915,0.0741 0.12945,0.23728 0.37,1.59732 0.14738,0.83319 0.4656,2.58247 0.70693,3.88659 0.2413,1.30411 0.51839,2.80544 0.61599,3.33674 0.0976,0.53131 0.27567,1.46406 0.39532,2.07326 0.26239,1.33708 0.26054,1.2161 0.0186,1.59009 h 5.1e-4 c -0.25382,0.39233 -0.21551,0.3855 -0.55449,0.0977 l -0.29197,-0.24805 -0.16174,-0.68058 c -0.15346,-0.64563 -2.03839,-8.21223 -2.57039,-10.31823 l -0.2496,-0.98754 0.37724,-0.39532 c 0.20746,-0.21762 0.39406,-0.40823 0.41496,-0.42323 l 5.2e-4,-5.2e-4 5.2e-4,-5.2e-4 v -5.1e-4 h 5.1e-4 5.2e-4 c 5.4e-4,-8e-5 0.002,6e-5 0.002,0 h 5.1e-4 c 4.9e-4,-7e-5 0.002,-4.1e-4 0.002,-5.2e-4 h 5.2e-4 z m -2.57865,0.31161 c 7.5e-4,-2e-5 0.002,5.2e-4 0.003,5.2e-4 h 5.2e-4 c 0.0534,-0.001 0.3652,0.11093 0.7245,0.26096 l 0.6966,0.29042 1.13017,4.52324 c 2.13006,8.52687 1.91072,7.40932 1.5384,7.84087 -0.16893,0.19582 -0.34477,0.40369 -0.39067,0.46199 -0.22956,0.29183 -0.28759,0.15199 -0.84078,-2.02365 -0.46551,-1.83076 -1.32962,-5.194 -1.99264,-7.75664 -0.7401,-2.8606 -0.91001,-3.56133 -0.87281,-3.59513 v -5.1e-4 h 5.1e-4 l 5.2e-4,-0.001 h 5.2e-4 v -5.1e-4 h 5.1e-4 5.2e-4 5.2e-4 5.1e-4 z m -0.68885,0.17983 0.14831,0.062 c 0.21622,0.0904 0.23843,0.1526 0.71934,2.04742 0.2417,0.9524 0.6073,2.38372 0.81235,3.18068 0.20505,0.79696 0.51095,1.99256 0.68007,2.65669 0.16915,0.66414 0.53681,2.10174 0.817,3.19515 l 0.50953,1.98799 -0.0744,0.15658 c -0.10231,0.21562 -0.0766,0.20713 -2.47531,0.82683 l 5.2e-4,5.1e-4 c -2.61308,0.67508 -2.41339,0.64314 -2.75332,0.44235 -0.2925,-0.17279 -0.30479,-0.20622 -0.85163,-2.35024 -0.19404,-0.76073 -0.42033,-1.64224 -0.50333,-1.95906 -0.1915,-0.73069 -0.19381,-0.70944 0.0827,-0.90123 0.26787,-0.18582 0.4526,-0.43264 0.55965,-0.74879 l 0.076,-0.22428 0.061,0.21549 0.0615,0.21497 0.12971,-0.004 c 0.18371,-0.005 2.97252,-0.72358 3.03702,-0.78238 0.0485,-0.0442 -0.0622,-0.64302 -0.13177,-0.71262 -0.0245,-0.0245 -0.0637,-0.0151 -1.74822,0.41754 -1.70833,0.43875 -1.72017,0.43821 -1.46709,-0.0574 0.0607,-0.11881 0.11059,-0.25189 0.11059,-0.29559 0,-0.0508 0.0438,-0.0893 0.12092,-0.10697 0.66061,-0.15187 2.71969,-0.69105 2.74919,-0.71985 0.041,-0.0401 -0.0869,-0.68752 -0.14263,-0.72192 -0.0182,-0.0113 -0.66945,0.14156 -1.44746,0.33952 l -1.4149,0.35966 -0.1633,-0.094 -0.16278,-0.0946 -0.006,-0.23461 c -0.003,-0.12929 -0.0132,-0.26292 -0.0222,-0.29662 -0.0125,-0.0466 0.33709,-0.14974 1.45469,-0.43046 1.70709,-0.42878 1.57476,-0.35926 1.47536,-0.78083 -0.1007,-0.42713 0.0705,-0.42918 -1.72185,0.0212 -0.86495,0.21731 -1.57792,0.39533 -1.58492,0.39533 h -5.2e-4 -5.1e-4 l -5.2e-4,5.1e-4 -5.2e-4,5.2e-4 c -0.006,0.01 -0.01,0.0555 -0.01,0.10852 0,0.13373 0.0202,0.13424 -0.29145,-0.0103 -0.21776,-0.10095 -0.31777,-0.11993 -0.64389,-0.12093 l -0.38602,-10e-4 -0.0248,-0.10955 c -0.0134,-0.0604 -0.13335,-0.53446 -0.26665,-1.05369 -0.46662,-1.81777 -0.46701,-1.81954 -0.31677,-2.15077 0.21041,-0.46384 -0.096,-0.35611 3.98425,-1.4056 z m 17.83302,0.7059 c -0.0644,-2.5e-4 -0.13222,0.0136 -0.20102,0.045 -0.30836,0.14048 -0.28477,0.6511 0.0367,0.79014 0.14751,0.0638 0.387,0.008 0.49403,-0.11524 0.26483,-0.3048 0.0183,-0.71854 -0.3297,-0.71986 z m -18.57509,0.73226 v 5.2e-4 c -0.21433,0.007 -0.64169,0.12073 -1.54564,0.35036 -1.70886,0.43412 -1.59564,0.37126 -1.47123,0.83044 0.0943,0.34919 0.007,0.34897 1.37097,-0.002 0.5982,-0.1538 1.28253,-0.32603 1.52084,-0.38293 0.50252,-0.12001 0.49817,-0.11433 0.39326,-0.50798 -0.0525,-0.19678 -0.0539,-0.29571 -0.2682,-0.28835 z m 19.77347,0.44958 c -0.4012,0 -0.60674,0.43353 -0.33435,0.7059 0.28906,0.28906 0.7059,0.10414 0.7059,-0.31264 0,-0.17429 -0.20698,-0.39326 -0.37155,-0.39326 z m -1.45469,0.73743 c -0.15919,-0.007 -0.32178,0.0781 -0.39688,0.25786 -0.0774,0.18527 -0.0206,0.41428 0.12868,0.51883 0.32697,0.229 0.7701,-0.1048 0.6444,-0.48575 -0.0613,-0.18558 -0.21701,-0.28415 -0.3762,-0.29094 z m -17.79892,0.1726 c -0.0373,-0.0415 -3.21798,0.75413 -3.25768,0.81493 h -5.2e-4 c -0.021,0.0412 0.0777,0.46518 0.15865,0.67903 0.0263,0.0694 3.14058,-0.6788 3.2458,-0.77979 0.0384,-0.0368 -0.0868,-0.64817 -0.14625,-0.71417 z m 20.81114,0.52245 v 5.1e-4 c 0.29099,0.0122 0.58687,0.10041 0.81752,0.28371 0.855,0.67947 0.55521,2.91636 -0.45579,3.40186 -0.6346,0.30474 -1.59112,-0.12916 -1.59112,-0.72141 0,-0.30539 0.25079,-0.38815 0.88884,-0.29455 l 0.2527,0.0367 v -0.0961 c 0,-0.14994 -0.25723,-0.23685 -0.71779,-0.24185 l -0.38861,-0.004 -0.11007,-0.12816 c -0.46302,-0.53827 0.19689,-1.15555 1.04128,-0.9741 0.4157,0.0893 0.40324,0.09 0.38654,-0.0279 -0.025,-0.17572 -0.30339,-0.27396 -0.78134,-0.27596 l -0.416,-0.002 -0.0398,-0.13901 c -0.14445,-0.50367 0.47347,-0.8443 1.11363,-0.81752 z m -25.73332,0.3023 c 0.004,-4.5e-4 0.008,4.8e-4 0.0103,0.002 v 5.2e-4 h 5.2e-4 l 5.1e-4,5.1e-4 h 5.2e-4 5.2e-4 c 1.7e-4,1.8e-4 8.1e-4,0.001 0.001,0.002 l 5.2e-4,5.2e-4 v 5.2e-4 5.1e-4 c 0.0208,0.0345 0.38292,1.39001 0.38292,1.43351 l -5.2e-4,5.1e-4 v 5.2e-4 l -5.1e-4,5.2e-4 v 5.2e-4 c -0.0119,0.014 -0.11108,0.0541 -0.22996,0.0925 -0.51257,0.1655 -0.91197,0.45742 -0.84957,0.62011 0.0369,0.0962 0.17978,0.0745 0.46458,-0.0692 1.11272,-0.5617 2.29473,-0.3816 2.30373,0.35088 l 0.003,0.19792 -0.32918,0.0279 c -0.53634,0.0458 -0.94866,0.24868 -0.80253,0.3948 0.04,0.04 0.11864,0.03 0.34055,-0.0429 0.37304,-0.12251 0.82438,-0.12773 1.0144,-0.0119 0.40628,0.24774 0.35114,1.0612 -0.0739,1.0914 -0.46942,0.0333 -0.9617,0.19892 -0.9617,0.3235 0,0.1045 0.17276,0.11115 0.43925,0.017 0.30925,-0.10914 0.64165,-0.0885 0.72915,0.045 0.25159,0.38399 -0.2605,1.00972 -1.03663,1.26659 h -5.1e-4 c -1.98947,0.65842 -3.51587,-1.21093 -2.77399,-3.39721 0.20369,-0.60026 1.21735,-2.32839 1.36735,-2.34818 z m 22.44721,0.78135 v 5.2e-4 c -0.38886,0.0136 -0.56858,0.5582 -0.21445,0.77979 0.29464,0.18436 0.64647,-0.008 0.64647,-0.3545 0,-0.21953 -0.14249,-0.38994 -0.3514,-0.42064 -0.0277,-0.004 -0.0547,-0.006 -0.0806,-0.005 z m -0.20464,1.78645 c -0.36626,0 -0.56591,0.48182 -0.30127,0.72709 0.39809,0.36893 0.97325,-0.21532 0.58963,-0.59893 -0.095,-0.095 -0.16959,-0.12816 -0.28836,-0.12816 z m 1.18753,1.06351 c -0.32879,0.0147 -0.51807,0.4669 -0.26769,0.71726 0.30019,0.3002 0.81708,-0.034 0.68265,-0.44131 -0.0624,-0.18885 -0.13221,-0.24405 -0.34727,-0.27285 -0.0231,-0.003 -0.0458,-0.004 -0.0677,-0.003 z m -1.39733,0.73328 c -0.33384,0.003 -0.59544,0.45412 -0.31936,0.73019 0.23238,0.23238 0.72657,0.0528 0.72657,-0.26406 0,-0.14914 -0.10941,-0.35943 -0.21704,-0.41703 -0.0638,-0.0342 -0.12834,-0.0496 -0.19017,-0.0491 z m -15.74323,0.78445 v 10e-4 c -0.16664,-0.002 -0.50014,0.0904 -1.22008,0.27491 -0.67413,0.17278 -1.35405,0.34704 -1.51102,0.38654 l -0.28525,0.0713 0.005,0.1757 c 0.002,0.0966 0.0277,0.25909 0.0563,0.36173 h -5.2e-4 c 0.0669,0.24012 -0.0243,0.24975 1.52807,-0.14779 0.71985,-0.18434 1.39381,-0.35507 1.4981,-0.37827 0.23942,-0.0534 0.24967,-0.0834 0.14831,-0.45372 -0.0527,-0.19253 -0.0525,-0.28948 -0.21859,-0.29146 z m 16.94057,0.27285 c -0.425,0 -0.59105,0.56909 -0.22428,0.76843 0.29819,0.16207 0.61961,-0.0226 0.61961,-0.35656 0,-0.26422 -0.14143,-0.41187 -0.39533,-0.41187 z m -1.44901,0.74673 c -0.38529,0 -0.5733,0.51161 -0.2744,0.74672 0.21788,0.1714 0.56345,0.0809 0.66973,-0.1757 0.10748,-0.25945 -0.10847,-0.57102 -0.39533,-0.57102 z m -15.11587,0.40152 c -0.17132,-0.003 -0.52266,0.0974 -1.29346,0.29714 -0.74361,0.19276 -1.42234,0.36308 -1.50844,0.37828 -0.29009,0.0511 -0.31687,0.20434 -0.12454,0.71261 0.05,0.13208 -0.0448,0.14808 1.64228,-0.27853 1.73603,-0.43901 1.59658,-0.36582 1.49758,-0.78548 -0.0505,-0.21431 -0.0421,-0.321 -0.21342,-0.32402 z m 16.30236,0.64854 c -0.0878,-0.004 -0.17608,0.0172 -0.25114,0.0698 -0.23234,0.1627 -0.21825,0.61402 0.0232,0.74517 0.34798,0.18898 0.72101,-0.087 0.64751,-0.47904 -0.0367,-0.19563 -0.22654,-0.32726 -0.41962,-0.3359 z m -15.92667,0.78549 c -0.16108,-0.005 -0.48333,0.0854 -1.18133,0.2651 -0.64952,0.1672 -1.32444,0.33953 -1.49965,0.38343 -0.44331,0.111 -0.42711,0.0885 -0.34261,0.45992 0.0402,0.17644 0.0829,0.33781 0.0951,0.35761 0.0359,0.058 0.0593,0.0528 1.61954,-0.34469 1.74797,-0.44527 1.63313,-0.38398 1.52291,-0.80873 -0.0532,-0.20524 -0.0528,-0.30716 -0.21394,-0.31264 z"
   sodipodi:nodetypes="ccccccccccccccccccccccsccccccccccsccccccccsccccccccccccccccsccsccccccsccccccsccccccsccccccccccccccccccscccccccccsccccccccccccccsscscccccccccccccccccccccscccccccsccccccccsccccccccccccscccccccccccccccscccccccssscscccccscccccsccccccccccccccccccccccccscsccccccccccccccscccccsccccccsccccccccccccccccscsscccccccccccccscccccccssccccccccsscsccccccccccccsccscccccccccccccccccccccsccccccccccccccccccccccsccccccccccccccccsccsccccccccccccsccccsccccccccscscsccccccccscsscscccccccccccsssccsccccccccccccccccccccccccccsccccscccsccccscccssccscssccccccssccccccccccscccsssssccscccccccccscccccccccc" /></g>
</svg>
