<?xml version="1.0" encoding="UTF-8" standalone="no"?>
<svg
   viewBox="0 0 31.999999 31.999999"
   version="1.1"
   id="svg8"
   sodipodi:docname="smeggtuner-logo-tray-dark-badge.svg"
   width="32"
   height="32"
   inkscape:version="1.4.4 (dcaf3e7d9e, 2026-05-05)"
   xmlns:inkscape="http://www.inkscape.org/namespaces/inkscape"
   xmlns:sodipodi="http://sodipodi.sourceforge.net/DTD/sodipodi-0.dtd"
   xmlns="http://www.w3.org/2000/svg"
   xmlns:svg="http://www.w3.org/2000/svg">
  <defs
     id="defs8" />
  <sodipodi:namedview
     id="namedview8"
     pagecolor="#505050"
     bordercolor="#f4f4f4fff"
     borderopacity="1"
     inkscape:showpageshadow="0"
     inkscape:pageopacity="0"
     inkscape:pagecheckerboard="1"
     inkscape:deskcolor="#505050"
     inkscape:zoom="11.313709"
     inkscape:cx="11.623068"
     inkscape:cy="21.478368"
     inkscape:window-width="1920"
     inkscape:window-height="1044"
     inkscape:window-x="0"
     inkscape:window-y="0"
     inkscape:window-maximized="1"
     inkscape:current-layer="svg8" />
  <path
     id="path7-6-3"
     style="display:inline;mix-blend-mode:darken;fill:#ffffff;stroke:none;stroke-width:0.0460255"
     inkscape:label="badge"
     d="m 22.588041,14.435741 c -0.350228,0.319303 -0.737676,0.584895 -1.123047,0.855469 h -0.002 -0.002 l -0.002,-0.002 c -0.03722,-0.01152 -0.238281,-0.181788 -0.458984,-0.388672 -0.551114,-0.516597 -0.494195,-0.5226 -1.300781,0.125 l -0.333985,0.267578 -0.462891,-0.390625 c -0.583753,-0.494921 -0.559529,-0.496864 -1.167968,0.02344 -0.280894,0.240152 -0.486362,0.386346 -0.539063,0.386719 h -0.002 l -0.002,-0.002 h -0.002 -0.002 c -0.0312,-0.01803 -0.268488,-0.17458 -0.529297,-0.347656 -0.594813,-0.394683 -0.55574,-0.39855 -1.146484,0.123047 -0.588336,0.519449 -0.477845,0.505279 -1.097657,0.138672 -0.679161,-0.401712 -0.656632,-0.4062 -1.255859,0.177734 l -0.492188,0.480469 -0.572265,-0.294922 c -0.743362,-0.382262 -0.688069,-0.391579 -1.226563,0.1875 -0.546293,0.587434 -0.343344,0.584167 -1.625,0.02734 -0.493924,-0.214475 -0.559954,-0.222508 -0.814453,-0.09961 -0.224919,0.108665 -0.616221,0.219399 -2.375,0.667969 -0.710942,0.181314 -1.068239,0.273347 -1.246094,0.3125 h -0.002 L 4.050556,16.873146 3.618915,16.99424 c -1.1497,0.324937 -1.48888,0.917711 -1.191406,2.083984 l 0.101563,0.402344 0.138672,0.580078 h 0.002 v 0.002 0.002 l 0.402343,1.501951 0.05469,0.21488 0.365235,-0.0859 -0.08008,-0.32811 C 3.397892,21.304167 3.272358,20.808198 3.132635,20.263949 2.643532,18.358591 2.643125,18.35528 2.800604,18.00809 3.021153,17.5219 2.699532,17.635492 6.976385,16.535433 l 1.072266,-0.27539 0.154297,0.06641 c 0.226638,0.09476 0.249823,0.158411 0.753906,2.144531 0.253345,0.998291 0.636637,2.498623 0.851562,3.333983 0.214931,0.83536 0.535623,2.08903 0.712891,2.78516 0.1773,0.69614 0.563732,2.20351 0.857422,3.34961 l 0.533203,2.08398 -0.07813,0.16406 c -0.10724,0.22601 -0.07946,0.21763 -2.59375,0.86719 -2.738944,0.70766 -2.528459,0.67336 -2.884765,0.46289 -0.306594,-0.18111 -0.31939,-0.21556 -0.892579,-2.46289 -0.20339,-0.79738 -0.442295,-1.72065 -0.529297,-2.05273 -0.06755,-0.25774 -0.111986,-0.42705 -0.130859,-0.54493 l -0.08403,-0.33394 -0.371094,0.0937 c 0.253482,1.06936 1.288185,5.0188 1.349609,5.13867 0.429776,0.83893 0.73464,0.84676 3.59961,0.0977 1.033876,-0.28858 2.073039,-0.54556 3.123047,-0.76562 0.247319,0.0368 0.201268,0.073 0.757812,-0.59766 0.469912,-0.56619 0.40453,-0.54603 0.767578,-0.24219 0.435794,0.36474 0.438906,0.36724 0.53125,0.33789 0.04737,-0.015 0.206121,-0.21513 0.353516,-0.44335 l 0.267578,-0.41407 0.337891,0.32617 c 0.456106,0.44225 0.521416,0.41636 1.033203,-0.41601 l 0.002,-0.002 0.002,-0.002 0.002,-0.002 c 0.0038,-0.004 0.0082,-0.007 0.01172,-0.01 l 0.002,-0.002 0.002,-0.002 h 0.002 c 0.04336,-0.009 0.130892,0.0654 0.339844,0.2832 0.423707,0.44129 0.419061,0.44313 0.810547,-0.10547 0.259552,-0.36367 0.239108,-0.36571 0.558594,0.0254 0.363396,0.4448 0.448997,0.41979 0.927734,-0.26562 0.126956,-0.18177 0.125569,-0.18136 0.447266,0.24609 0.322684,0.42869 0.347424,0.42565 0.726562,-0.0273 0.372567,-0.44508 0.32126,-0.44431 0.615235,0.002 0.316321,0.48035 0.352465,0.47972 0.791015,-0.004 l 0.335938,-0.37109 0.236328,0.3125 c 0.130048,0.17105 0.288252,0.36901 0.351562,0.43945 l 0.115235,0.12695 0.576172,0.0664 c 0.316423,0.0368 1.109783,0.11433 1.763671,0.17188 l 1.189453,0.10547 0.763672,0.0586 c 0.627097,0.0841 1.398042,-0.42636 1.576172,-1.04297 0.07993,-0.27626 0.477211,-3.57363 0.757822,-5.37268 l -0.376953,-0.0117 c 0,0.22857 -0.697358,5.17623 -0.746098,5.30432 -0.07756,0.20398 -0.312199,0.46746 -0.519531,0.58399 -0.28213,0.15858 -0.611323,0.15525 -2.589844,-0.0312 -2.01917,-0.19031 -1.818632,-0.13952 -1.666016,-0.41993 0.08344,-0.15324 0.135094,-0.34447 0.166016,-0.61132 0.02474,-0.21314 0.139123,-1.17479 0.255859,-2.13672 0.116726,-0.96193 0.28277,-2.33911 0.369141,-3.06055 0.08647,-0.72145 0.230483,-1.91238 0.320312,-2.646484 0.46579,-3.807655 0.584523,-4.923588 0.556641,-5.28125 l -0.02734,-0.357422 0.173828,0.02344 c 0.09559,0.0131 0.598242,0.06634 1.117188,0.117188 3.495411,0.342295 3.388385,0.250576 3.117187,2.640625 l -0.15039,1.597656 h 0.351563 c 0.04902,-0.523976 0.105182,-1.04717 0.162107,-1.570325 0.308862,-2.611115 0.252506,-2.666759 -3.140625,-3.044922 l -2.148438,-0.238281 -0.144531,0.07812 c -0.07945,0.04308 -0.309209,0.200729 -0.511719,0.351563 -0.19618,0.14613 -0.380925,0.262285 -0.416016,0.263672 -0.06354,-0.01493 -0.513835,-0.491173 -0.939453,-0.982422 z m -2.144531,0.566406 c 0.0065,-6.73e-4 0.01121,-1.39e-4 0.01758,0 0.101884,0.0021 0.197168,0.109044 0.423828,0.322266 l 0.375,0.353515 -0.02734,0.371094 c -0.04969,0.673417 -0.206025,3.286852 -0.300782,5.019535 -0.05115,0.93661 -0.135021,2.34612 -0.185547,3.13086 -0.05052,0.78473 -0.132376,2.09266 -0.18164,2.9082 l -0.08984,1.48437 -0.24414,0.29688 c -0.299927,0.36468 -0.286811,0.36266 -0.5625,-0.008 l -0.22461,-0.30274 0.03125,-5.82617 c 0.01698,-3.204013 0.04276,-6.114346 0.05859,-6.468748 l 0.0293,-0.644531 0.427734,-0.333984 c 0.24332,-0.189901 0.35616,-0.292635 0.453125,-0.302735 z m -2.113281,0.0098 h 0.002 c 0.108393,-0.0021 0.21163,0.102127 0.451172,0.310547 l 0.408203,0.355468 -0.02734,0.554688 c -0.01449,0.305441 -0.03944,3.215875 -0.05664,6.466797 l -0.03125,5.91016 -0.236329,0.3125 c -0.285629,0.37935 -0.237247,0.37757 -0.527343,0.0156 l -0.240235,-0.30079 -0.06836,-1.39062 c -0.03679,-0.76485 -0.107366,-2.16792 -0.158203,-3.11719 -0.18817,-3.516918 -0.413301,-8.033261 -0.410156,-8.236326 l 0.0039,-0.208984 0.412109,-0.345703 c 0.258189,-0.216587 0.370091,-0.324044 0.478516,-0.326172 z m 4.234375,0 0.289062,0.3125 c 0.45571,0.493737 0.427189,0.352923 0.304688,1.542969 -0.05922,0.575484 -0.189342,1.766408 -0.291016,2.646484 -0.101673,0.880066 -0.268791,2.409237 -0.371094,3.396487 -0.182814,1.76507 -0.529726,5.02531 -0.582031,5.47656 -0.02337,0.20172 -0.06202,0.26776 -0.314453,0.54492 l -0.287109,0.31641 -0.13086,-0.17774 c -0.0717,-0.098 -0.177735,-0.24351 -0.236328,-0.32422 l -0.107422,-0.14648 0.138672,-2.20117 c 0.126212,-1.99622 0.238884,-3.79937 0.503907,-8.091798 0.05,-0.810037 0.105876,-1.725124 0.123046,-2.035157 l 0.03125,-0.564453 0.464844,-0.347656 z m -6.445313,0.148437 c 0.008,-6.56e-4 0.01538,-2.37e-4 0.02344,0 0.11378,0.0032 0.236768,0.09475 0.476562,0.265625 0.49773,0.354695 0.417152,-0.108626 0.582032,3.341797 0.07736,1.620094 0.171354,3.493241 0.208984,4.164061 0.06708,1.19584 0.150172,2.71399 0.257813,4.70508 l 0.05273,1 -0.22461,0.30859 c -0.284215,0.38923 -0.271953,0.38803 -0.568359,0.0879 l -0.248047,-0.25195 -0.148437,-1.25586 c -0.08134,-0.69062 -0.274072,-2.3125 -0.427735,-3.60351 -0.332306,-2.79161 -0.821536,-7.16737 -0.859375,-7.685551 l -0.02734,-0.36914 0.416015,-0.367188 c 0.24672,-0.218722 0.366192,-0.330002 0.486327,-0.339844 z m 8.44336,0.119141 c 0.0064,-4.62e-4 0.01346,-1.03e-4 0.01953,0 0.213767,0.0032 0.231182,0.36079 0.125,1.201172 -0.02788,0.220348 -0.11245,0.937548 -0.1875,1.595703 -0.07505,0.658165 -0.259406,2.212735 -0.410156,3.453127 -0.15076,1.24038 -0.368477,3.05276 -0.484375,4.02734 -0.115866,0.97459 -0.253602,2.13318 -0.306641,2.57617 -0.07672,0.64046 -0.117907,0.84484 -0.203125,0.99414 -0.196073,0.34338 -0.208536,0.34047 -0.542969,-0.0879 l -0.300781,-0.38476 0.01953,-0.17969 c 0.01048,-0.0991 0.0392,-0.38749 0.06445,-0.64063 0.02527,-0.25313 0.127785,-1.21666 0.228515,-2.14062 0.100731,-0.92395 0.258943,-2.37269 0.349609,-3.2207 0.09077,-0.84803 0.275584,-2.556489 0.41211,-3.796878 0.136557,-1.24039 0.262422,-2.39327 0.279297,-2.5625 0.01737,-0.171749 0.05371,-0.310174 0.08594,-0.330078 h 0.002 c 0.03155,-0.01205 0.233786,-0.148641 0.449219,-0.302734 0.173088,-0.123817 0.30455,-0.194236 0.400391,-0.201172 z m -10.763672,0.05859 0.101562,0.05078 c 0.07904,0.04088 0.840197,0.487027 0.896485,0.525391 0.02138,0.01456 0.105927,0.726256 0.314453,2.669921 0.114064,1.063194 0.278549,2.51191 0.365234,3.2207 0.08679,0.7088 0.201288,1.67232 0.253907,2.14063 0.05261,0.46831 0.207489,1.74369 0.345703,2.83594 l 0.251953,1.98632 -0.238282,0.35157 c -0.28605,0.41909 -0.232171,0.41153 -0.578124,0.0605 l -0.283204,-0.28711 -0.160156,-0.89844 c -0.08847,-0.49362 -0.307023,-1.67378 -0.484375,-2.62305 -0.93411,-4.999521 -1.571588,-8.474815 -1.638672,-8.929685 l -0.03125,-0.208984 0.44336,-0.447266 z m -2.332031,0.408203 h 0.002 0.002 0.002 c 0.09244,1.25e-4 0.798501,0.359798 0.966797,0.496094 0.09591,0.07767 0.134577,0.248256 0.386719,1.673828 0.154481,0.873337 0.489228,2.707263 0.742187,4.074217 0.252926,1.36695 0.542228,2.94115 0.644531,3.49805 0.102303,0.55691 0.288647,1.53332 0.414063,2.17187 0.275032,1.40151 0.273126,1.27596 0.01953,1.66797 h 0.002 c -0.26605,0.41124 -0.226717,0.40323 -0.582031,0.10156 l -0.306828,-0.25979 -0.167968,-0.71289 C 13.431094,27.780487 11.454269,19.848295 10.896635,17.640819 L 10.634916,16.605663 11.031401,16.1916 c 0.217456,-0.228106 0.411687,-0.427636 0.433593,-0.443359 h 0.002 z M 8.767729,16.07249 h 0.002 0.002 0.002 c 0.05598,-0.0011 0.383152,0.116178 0.759766,0.273437 l 0.730469,0.304688 1.185547,4.740232 c 2.232694,8.93773 2.001586,7.76641 1.611328,8.21875 -0.17707,0.20526 -0.360089,0.42327 -0.408204,0.48438 -0.24058,0.30593 -0.302967,0.15937 -0.882812,-2.1211 -0.48795,-1.91897 -1.392925,-5.44278 -2.087891,-8.128903 C 8.906171,16.845538 8.728878,16.109872 8.76787,16.074443 Z m 17.972656,0.927734 c -0.06751,-2.62e-4 -0.138822,0.01396 -0.210937,0.04687 -0.323218,0.147248 -0.297885,0.682385 0.03906,0.828125 0.154619,0.06687 0.40539,0.0081 0.517578,-0.121094 0.27759,-0.319486 0.01906,-0.752522 -0.345703,-0.753906 z m -19.46875,0.767578 c -0.224658,0.0073 -0.673588,0.126493 -1.621094,0.367188 -1.7912,0.455037 -1.67142,0.389786 -1.541015,0.871094 0.09884,0.366015 0.0058,0.366022 1.435547,-0.002 0.627024,-0.161211 1.343957,-0.340748 1.59375,-0.40039 0.526733,-0.125792 0.524027,-0.120585 0.414062,-0.533203 -0.05503,-0.206262 -0.05663,-0.31045 -0.28125,-0.302735 z m 20.724609,0.470703 c -0.420533,0 -0.635122,0.45474 -0.349609,0.740235 0.302989,0.302988 0.740229,0.108737 0.740235,-0.328125 0,-0.182689 -0.218125,-0.41211 -0.390626,-0.41211 z m -1.523437,0.773438 c -0.16686,-0.0073 -0.337298,0.08306 -0.416016,0.271484 -0.08113,0.194198 -0.02171,0.433381 0.134766,0.542969 0.342725,0.240034 0.807538,-0.110461 0.675781,-0.509766 -0.06425,-0.194522 -0.227671,-0.29757 -0.394531,-0.304687 z m -18.65625,0.181641 c -0.0391,-0.0435 -3.374403,0.789785 -3.416016,0.853515 v 0.002 0.002 c -0.01396,0.06542 0.08379,0.491781 0.166016,0.708985 0.02757,0.07275 3.292054,-0.712505 3.402344,-0.81836 h 0.002 v -0.002 -0.002 l 0.002,-0.002 c 0.02883,-0.07272 -0.09588,-0.675168 -0.15625,-0.742187 z m 0.246094,1.542968 c -0.203139,0.0023 -0.627047,0.119429 -1.566407,0.355465 -0.906627,0.22779 -1.652819,0.41407 -1.660156,0.41407 h -0.002 l -0.002,0.002 v 0.002 l -0.002,0.002 0.203125,0.82226 0.697266,-0.17969 c 0.236817,-0.0654 0.569577,-0.15162 1.023437,-0.26562 1.789345,-0.44944 1.651065,-0.37648 1.546875,-0.81836 -0.05278,-0.223855 -0.03514,-0.336309 -0.238281,-0.333984 z m 18.123047,0.140625 c -0.407597,0.01426 -0.595803,0.58609 -0.22461,0.81836 0.308837,0.19324 0.677735,-0.01 0.677735,-0.37305 0,-0.23011 -0.150165,-0.407271 -0.369141,-0.43945 -0.02903,-0.0042 -0.05683,-0.007 -0.08398,-0.0059 z m -17.583985,1.48437 c -0.01907,-0.0119 -0.70208,0.14797 -1.517578,0.35547 l -0.742187,0.1875 -0.117188,0.0312 -0.974609,0.25782 -0.002,0.002 0.195312,0.79296 0.400391,-0.10937 c 0.0081,-0.003 0.0164,-0.006 0.02539,-0.008 0.692442,-0.15919 2.851892,-0.72372 2.882813,-0.75391 l 0.002,-0.002 v -0.002 -0.002 c 0.03017,-0.0756 -0.09147,-0.68045 -0.150391,-0.75 z m 17.369141,0.38672 c -0.383908,0 -0.593798,0.50659 -0.316406,0.76368 0.417272,0.3867 1.021244,-0.22682 0.61914,-0.62891 -0.09958,-0.0996 -0.178241,-0.13477 -0.302734,-0.13477 z m 1.24414,1.11524 c -0.344633,0.0154 -0.54174,0.48953 -0.279296,0.75195 0.314655,0.31467 0.85575,-0.036 0.714843,-0.46289 -0.06541,-0.19795 -0.13786,-0.25497 -0.363281,-0.28516 -0.02422,-0.003 -0.04932,-0.005 -0.07227,-0.004 z m -18.216796,0.0527 c -0.02568,-0.0257 -0.06829,-0.016 -1.833985,0.4375 -0.07608,0.0195 -0.148982,0.0388 -0.21875,0.0566 l -0.04883,0.0117 -1.263672,0.32422 0.183594,0.74218 c 0,0 3.250751,-0.76258 3.318359,-0.82421 l 0.002,-0.002 v -0.002 l 0.002,-0.002 c 0.03935,-0.079 -0.06997,-0.67152 -0.140625,-0.74219 z m 16.751953,0.71679 c -0.349926,0.003 -0.623367,0.47626 -0.333985,0.76563 0.243577,0.24358 0.761719,0.0548 0.761719,-0.27734 0,-0.15633 -0.115705,-0.37713 -0.228515,-0.4375 -0.06687,-0.0358 -0.13441,-0.0513 -0.199219,-0.0508 z m -16.501953,0.82227 c -0.174669,-0.002 -0.522716,0.0957 -1.277344,0.28906 -0.706613,0.18111 -1.419452,0.3629 -1.583984,0.4043 l -0.298829,0.0762 0.0039,0.18359 c 0,0 0.03058,0.27132 0.06055,0.37891 h -0.002 c 0.07012,0.25169 -0.0256,0.2624 1.601563,-0.1543 0.754536,-0.19322 1.460996,-0.37217 1.570312,-0.39648 0.250957,-0.056 0.262494,-0.0884 0.15625,-0.47656 -0.05524,-0.20181 -0.05442,-0.30262 -0.228515,-0.30469 z m 17.757812,0.28516 c -0.445478,0 -0.618818,0.59769 -0.234375,0.80664 0.312557,0.16988 0.648438,-0.025 0.648438,-0.375 0,-0.27695 -0.147929,-0.43164 -0.414063,-0.43164 z m -1.519531,0.7832 c -0.403855,0 -0.600411,0.53676 -0.287109,0.7832 0.228379,0.17966 0.58977,0.0834 0.701171,-0.18554 0.112658,-0.27196 -0.11338,-0.59766 -0.414062,-0.59766 z m -15.84375,0.41992 c -0.179575,-0.003 -0.547529,0.10314 -1.355469,0.3125 -0.779441,0.20205 -1.491783,0.38055 -1.582031,0.39649 -0.304068,0.0536 -0.332457,0.21333 -0.130859,0.74609 0.05241,0.13844 -0.04572,0.15615 1.722656,-0.29102 1.819679,-0.46016 1.674082,-0.38433 1.570312,-0.82422 -0.05293,-0.22463 -0.04504,-0.33667 -0.224609,-0.33984 z m 17.087891,0.67969 c -0.09203,-0.004 -0.184995,0.0191 -0.263672,0.0742 -0.243535,0.17054 -0.227696,0.64378 0.02539,0.78125 0.364747,0.19809 0.754776,-0.091 0.677735,-0.50195 -0.03846,-0.20506 -0.237076,-0.34251 -0.439453,-0.35157 z m -16.69336,0.82422 c -0.168841,-0.005 -0.506648,0.089 -1.238281,0.27734 -0.680816,0.17526 -1.388614,0.35633 -1.572266,0.40234 -0.46467,0.11635 -0.447946,0.0931 -0.359375,0.48243 0.04214,0.18494 0.08683,0.35424 0.09961,0.375 0.0035,0.006 0.009,0.0133 0.01367,0.0176 h 0.002 v 0.002 h 0.002 0.002 c 0.05677,0.0304 0.272298,-0.0228 1.677734,-0.38086 1.832193,-0.46673 1.711234,-0.40244 1.595703,-0.84766 -0.05576,-0.21513 -0.05375,-0.32238 -0.222656,-0.32812 z m 17.447458,-6.5918 c -0.383908,0 -0.593798,0.50659 -0.316406,0.76368 0.417272,0.3867 1.021244,-0.22682 0.61914,-0.62891 -0.09958,-0.0996 -0.178241,-0.13477 -0.302734,-0.13477 z m 0.171253,-1.853602 c -0.383908,0 -0.593798,0.506584 -0.316406,0.763672 0.417272,0.38671 1.021244,-0.226812 0.61914,-0.628906 -0.09958,-0.09958 -0.178241,-0.134766 -0.302734,-0.134766 z"
     sodipodi:nodetypes="sccccscccccccccccsccccccsccccccccccccccccccccscccccccccccccccscccccccscccccccsccccccccccccccccscccscccccccccccccsccscccccscccccccccsccccccccccccccsccccccscccccccscccsccssccccccccccssccsscccccccscccccssccssscccccccccccccccscccscccccccccccccccccccsccsccscsccsccccscsssscscccccscccsccccscscccsccsccssccsccccsssccscccscsscccccsscccccsccscsscccccccccsscccscccsccscccccccccccccccccsccccccccccsccsccccccccsssssscssc" />
  <path
     id="path63-6"
     style="display:inline;fill:#ffffff;stroke:none;stroke-width:0.0460255"
     d="m 18.416915,-1.33e-4 v 0.002 c -0.04802,0.002 -0.09783,0.0114 -0.148438,0.0293 -0.674748,0.23807 -2.333206,2.052334 -2.595703,2.839844 v 0.002 h -0.002 v 0.0059 h -0.002 c -0.04023,0.0182 -0.326139,0.01027 -0.6875,-0.01953 -1.454743,-0.12037 -3.150484,0.18392 -4.353516,0.78125 -0.234406,0.1167 -0.353614,0.153757 -0.396484,0.123047 C 10.197414,3.739478 9.954257,3.54674 9.692211,3.33399 8.218328,2.13743 6.649988,1.423426 6.211743,1.750006 5.552414,2.241376 5.747182,5.151903 6.559399,6.935553 l 0.164062,0.359375 -0.09766,0.375 c -0.314759,1.20987 -0.301201,2.993787 0.03125,4.117187 l 0.04492,0.152344 -0.279297,0.492188 c -0.153475,0.27131 -0.449118,0.784271 -0.65625,1.138671 -1.08497,1.856274 -1.448196,2.637593 -1.722656,3.304688 l 0.0059,-0.002 0.5625,-0.140625 c 0,-0.13746 0.996224,-2.004185 1.564453,-2.984375 1.091254,-1.88237 0.998854,-1.576177 0.804688,-2.623047 C 6.781648,10.048389 6.807674,8.766453 7.051619,7.746053 L 7.17076,7.248006 6.987166,6.804647 C 6.35422,5.279825 6.067563,3.307387 6.350447,2.392537 L 6.432477,2.126912 H 6.59068 c 0.56994,0 2.229765,0.991738 3.324218,1.986328 0.236286,0.21476 0.349408,0.221386 0.669922,0.04102 1.225662,-0.69019 3.677919,-1.066516 5.107422,-0.785156 0.358196,0.0705 0.471119,0.0127 0.433594,-0.21875 -0.08039,-0.49494 1.795283,-2.679618 2.300781,-2.679688 h 0.002 l 0.002,0.002 c 0.312325,0 0.566972,1.208716 0.601562,2.853516 l 0.02148,1.080078 0.400391,0.417969 c 0.768707,0.80406 1.322582,1.851607 1.585937,2.998047 0.07672,0.3339 0.105356,0.29743 -0.43164,0.55664 -0.413645,0.19968 -0.838318,0.46552 -1.105469,0.69336 l -0.160156,0.136718 0.07031,0.07422 0.07227,0.07227 0.410156,-0.257813 c 0.477425,-0.29976 1.14075,-0.638792 1.230469,-0.632812 h 0.002 0.002 l 0.002,0.0039 h 0.002 v 0.002 l 0.002,0.002 c 0.0143,0.0349 0.02539,0.220288 0.02539,0.429688 v 0.40625 l -0.126953,0.02734 c -0.653617,0.14476 -1.315421,0.364843 -1.398437,0.464843 -0.03859,0.0465 -0.05071,0.08311 -0.03711,0.103516 l 0.002,0.002 0.002,0.0039 c 0.05065,0.041 0.263016,0.007 0.667969,-0.105468 0.981782,-0.271761 0.907344,-0.293027 0.802735,0.220703 l -0.07422,0.36914 -0.644531,0.02148 -0.642578,0.02148 v 0.09375 0.08984 l 0.589843,0.01367 0.591797,0.01367 -0.03125,0.125 c -0.03711,0.150159 -0.365648,0.80164 -0.595703,1.18164 -0.213851,0.35326 -0.223502,0.314775 0.207031,0.740234 0.587545,0.580641 1.710734,1.905329 1.736328,2.042969 v 0.002 0.0039 0.002 l -0.002,0.002 c -0.0032,0.006 -0.0094,0.01324 -0.01953,0.02344 0.137016,-0.10588 0.271499,-0.216474 0.400391,-0.333984 0.20161,0.2327 0.407217,0.462095 0.576171,0.640625 -0.289682,-0.3076 -0.691628,-0.766452 -0.986328,-1.132813 -0.259939,-0.323138 -0.720785,-0.843148 -1.023437,-1.15625 l -0.548828,-0.568359 0.185547,-0.308594 c 0.160717,-0.26453 0.423859,-0.816622 0.523437,-1.101562 1.02e-4,-3e-4 0.0015,-0.0047 0.002,-0.0059 v -0.002 -0.002 l 0.002,-0.002 c 0.09263,-0.13116 1.047936,0.0244 1.978516,0.326172 0.385679,0.12518 0.548282,0.159665 0.599609,0.109375 0.01723,-0.02 0.01994,-0.0522 0.01367,-0.0957 -0.026,-0.18148 -1.094096,-0.530172 -1.958984,-0.638672 -0.546419,-0.0685 -0.524975,-0.0497 -0.445313,-0.386719 0.03595,-0.15188 0.06445,-0.344614 0.06445,-0.427734 3.66e-4,-0.0727 0.02452,-0.142756 0.05078,-0.166016 l 0.002,-0.002 h 0.002 v -0.002 h 0.002 0.002 c 0.199878,-0.0696 1.137886,-0.102766 1.88086,-0.06641 0.879772,0.043 0.986086,0.0278 0.886718,-0.13086 -0.100311,-0.16026 -1.599127,-0.251204 -2.40625,-0.146484 -0.187887,0.0247 -0.346321,0.03755 -0.351562,0.03125 -0.0052,-0.006 -0.02108,-0.221136 -0.03711,-0.478516 l -0.0293,-0.46875 0.425781,-0.140625 C 22.546531,7.934198 23.128791,7.79904 23.655776,7.7285 24.090018,7.6703 24.238575,7.582782 24.116713,7.460922 l -0.002,-0.002 -0.002,-0.002 c -0.133875,-0.0901 -1.334927,0.115457 -2.160156,0.373047 l -0.425781,0.134766 -0.0293,-0.123047 C 21.188238,6.510578 20.614321,5.389514 19.804116,4.538953 L 19.45793,4.177601 V 3.394398 c -0.0032,-2.08366 -0.386591,-3.362241 -0.99414,-3.394531 -0.01572,-8e-4 -0.03088,-8.2e-4 -0.04687,0 z m 0.01563,7.394531 c -0.707346,-0.007 -1.631625,0.573843 -1.44336,1.064453 0.05335,0.13895 0.203233,0.0697 0.394531,-0.183593 0.340839,-0.45145 0.907563,-0.646142 1.316407,-0.451172 0.311824,0.14869 0.468193,-0.148066 0.169922,-0.322266 -0.123812,-0.0723 -0.274256,-0.105852 -0.4375,-0.107422 z m -6.230469,1.072266 v 0.002 c -0.04099,0.002 -0.08134,0.0031 -0.119141,0.0098 -0.548609,0.0905 -1.06056,0.438079 -0.974609,0.662109 0.0435,0.11331 0.20207,0.0906 0.427734,-0.0625 0.47293,-0.32053 1.118405,-0.310319 1.626953,0.02539 0.199239,0.13154 0.277512,0.139595 0.359375,0.04102 0.213629,-0.25736 -0.705699,-0.704914 -1.320312,-0.677734 z m 4.341797,1.207031 v 0.002 c -0.114001,0.002 -0.254372,0.01948 -0.419922,0.05078 -0.911701,0.172371 -0.974026,0.498832 -0.175781,0.925782 0.775446,0.41473 -0.412194,1.589127 -1.22461,1.210937 -0.189806,-0.0884 -0.262226,-0.10265 -0.310547,-0.0625 -0.148706,0.1234 -0.0095,0.285889 0.361329,0.417969 0.55081,0.19627 1.101955,-0.0311 1.537109,-0.630859 l 0.101562,-0.136719 0.08398,0.07617 c 0.55558,0.50279 1.586535,0.323302 1.74414,-0.304688 0.06257,-0.24938 -0.106308,-0.281924 -0.28125,-0.05273 -0.06656,0.0873 -0.207233,0.202026 -0.314453,0.253906 -0.667839,0.32329 -1.474146,-0.37078 -1.052734,-0.90625 0.455363,-0.57863 0.445304,-0.85138 -0.04883,-0.84375 z m -4.820313,0.88086 v 0.002 c -1.433066,-0.006 -3.438264,0.527083 -3.173828,0.845703 0.03742,0.0451 0.182175,0.01544 0.666016,-0.140625 1.007399,-0.32483 1.465564,-0.398543 2.55664,-0.414063 l 0.94336,-0.01563 v -0.105469 c 0,-0.13942 -0.176784,-0.168734 -0.992188,-0.171874 z m 0.861328,0.779296 c -1.005995,0.003 -3.937131,1.360068 -3.550781,1.642578 0.03935,0.0288 0.08326,0.04437 0.103516,0.04297 h 0.002 0.002 l 0.002,-0.002 c 0.01531,-0.008 0.204132,-0.119237 0.419922,-0.248047 0.890013,-0.53129 2.088662,-1.015863 2.863281,-1.158203 0.448612,-0.0824 0.559919,-0.278384 0.158203,-0.277344 z m 0.310547,0.644532 c -0.0042,-1.13e-4 -0.0092,0.0015 -0.01367,0.002 -0.562103,0.0562 -2.780277,1.858387 -2.552734,2.085937 0.06384,0.0638 0.127237,0.02049 0.537109,-0.367187 0.520664,-0.49253 1.17279,-0.983634 1.699219,-1.277344 0.516724,-0.2883 0.636903,-0.441406 0.341797,-0.441406 -0.0041,0 -0.0075,-0.0018 -0.01172,-0.002 z m 16.773438,7.402343 c -0.975623,0.0091 -1.926485,0.709013 -1.535157,1.464844 v 0.0039 l 0.002,0.002 v 0.002 c 0.0016,0.026 -0.03252,0.0864 -0.101563,0.160157 -0.63497,0.7637 0.112077,1.18388 -0.03711,1.62305 -0.432605,1.26578 2.866263,2.81314 3.357422,-0.57813 0.290414,-2.005205 -0.709924,-2.686833 -1.685547,-2.677734 z M 2.528248,19.484242 2.231373,19.886586 c -1.235159,1.673941 -1.695952,2.790231 -1.63086,3.945311 0.24428,4.33648 5.917017,2.76883 4.904297,0.79883 -0.02976,-0.0579 0.04168,-0.17465 0.123047,-0.33398 0.288344,-0.64334 -0.120537,-1.31754 -0.367187,-1.39844 -0.159715,-2.340372 -3.489876,-1.02412 -3.320313,-0.58203 0.03868,0.10084 0.187805,0.0784 0.486328,-0.0723 0.615999,-0.31095 2.391336,-0.83759 2.417969,0.57617 l -0.345703,0.0293 c -0.562183,0.048 -0.993015,0.2609 -0.839844,0.41406 0.04193,0.0419 0.122867,0.0315 0.355469,-0.0449 0.391015,-0.12842 0.865277,-0.13506 1.064453,-0.0137 0.425856,0.25967 0.367435,1.11287 -0.07813,1.14453 -0.492038,0.0349 -1.007812,0.20926 -1.007812,0.33984 0,0.10954 0.181607,0.11623 0.460937,0.0176 0.324151,-0.1144 0.671956,-0.0931 0.763672,0.0469 0.263713,0.4025 -0.272411,1.06082 -1.085938,1.33007 h -0.002 c -2.085374,0.69012 -3.683876,-1.27088 -2.90625,-3.5625 0.213505,-0.62919 1.276366,-2.442146 1.433594,-2.462886 h 0.002 c 5e-4,2e-5 0.0027,3e-5 0.0039,0 h 0.002 z m 27.005859,0.273437 c 0.385532,-0.01518 0.76809,0.07855 0.953125,0.279297 v 0.002 c 0.91811,0.996091 0.581199,3.057511 -0.478516,3.566411 -0.665176,0.31942 -1.667969,-0.13508 -1.667968,-0.75586 0,-0.32011 0.262847,-0.4067 0.93164,-0.30859 l 0.265625,0.0352 v -0.0977 c 0,-0.15716 -0.269202,-0.24867 -0.751953,-0.25391 l -0.408203,-0.006 -0.115234,-0.13477 c -0.485327,-0.56421 0.20672,-1.211683 1.091797,-1.02148 0.258714,0.0556 0.361191,0.0769 0.396484,0.0606 h 0.002 l 0.002,-0.002 0.002,-0.002 0.002,-0.002 c 1.31e-4,-1.8e-4 0.0031,-0.005 0.0039,-0.006 v -0.002 c 3.58e-4,-0.001 0.0017,-0.005 0.002,-0.006 0.0029,-0.016 -0.0016,-0.0399 -0.0059,-0.0703 -0.02621,-0.18419 -0.317378,-0.286962 -0.818359,-0.289062 l -0.435547,-0.002 c -0.261662,-0.632088 0.386745,-0.959073 1.029297,-0.984376 z"
     inkscape:label="cat" />
</svg>
