<?xml version="1.0" encoding="UTF-8"?>
<!-- The app icon master. Edit THIS file: `just generate-icons` renders it to appicon.png and
     derives icon.ico and icons.icns from that render. The tile is the frontend's light accent
     (frontend/app/theme/tokens.ts). The accordion is SmeggTunerAccordionFilledIcon.svg (32x32
     units), scaled so its width spans 80% of the canvas: to resize it, change scale() and keep
     the art centred: translate = (1024 - 32*scale)/2  horizontally,
     (1024 - 20.3045*scale)/2 - 5.8475*scale  vertically (its bbox is x 0, y 5.8475, 32x20.3045). -->
<svg xmlns="http://www.w3.org/2000/svg" viewBox="0 0 1024 1024" width="1024" height="1024">
  <rect x="16" y="16" width="992" height="992" rx="225" fill="#2563eb"/>
  <g transform="translate(102.4 102.4) scale(25.6)">
    <path fill="#ffffff" d="M 23.421875 5.8476562 C 23.044656 5.8620868 22.597756 6.5504461 22.125 6.8359375 L 22.123047 6.8359375 L 22.119141 6.8359375 L 22.117188 6.8339844 C 22.074375 6.8207204 21.843016 6.6239159 21.587891 6.3847656 C 20.950824 5.7875982 21.016368 5.7806949 20.083984 6.5292969 L 19.697266 6.8398438 L 19.162109 6.3867188 C 18.487313 5.8146081 18.515833 5.8126063 17.8125 6.4140625 C 17.487796 6.6916695 17.250373 6.8608969 17.189453 6.8613281 L 17.1875 6.8613281 L 17.183594 6.859375 L 17.181641 6.859375 L 17.179688 6.859375 C 17.143708 6.8385276 16.869846 6.6571007 16.568359 6.4570312 C 15.880778 6.0007921 15.925064 5.9966622 15.242188 6.5996094 C 14.562091 7.2000711 14.691091 7.1835498 13.974609 6.7597656 C 13.189525 6.2954011 13.214169 6.2898373 12.521484 6.9648438 L 11.953125 7.5214844 L 11.291016 7.1796875 C 10.431717 6.7378066 10.495526 6.7270901 9.8730469 7.3964844 C 9.2415497 8.0755365 9.4776405 8.0714096 7.9960938 7.4277344 C 7.4251357 7.1798092 7.3488791 7.1704356 7.0546875 7.3125 C 6.7946894 7.4381128 6.3416781 7.567407 4.3085938 8.0859375 C 3.4867708 8.2955299 3.0727814 8.4020062 2.8671875 8.4472656 L 2.8652344 8.4472656 L 1.9941406 8.6660156 L 1.4960938 8.8046875 C 0.16708242 9.1803031 -0.22668158 9.8666755 0.1171875 11.214844 L 0.23632812 11.679688 L 0.39648438 12.349609 L 0.3984375 12.349609 L 0.3984375 12.351562 L 0.3984375 12.355469 C 1.6369498 16.686555 2.6750283 21.071264 3.8964844 25.40625 C 4.3932897 26.376022 4.7467929 26.385413 8.0585938 25.519531 C 9.2537166 25.185944 10.454198 24.889147 11.667969 24.634766 C 12.204368 24.491038 11.920061 24.607716 12.544922 23.943359 C 13.088124 23.288864 13.011972 23.312835 13.431641 23.664062 C 13.935404 24.085688 13.94013 24.088614 14.046875 24.054688 C 14.294938 23.976118 14.56513 23.085476 14.763672 23.0625 C 14.947816 23.04119 15.154297 23.439453 15.154297 23.439453 C 15.548955 24.054688 15.757143 23.920988 16.091797 23.423828 C 16.397934 22.709946 16.504527 22.83358 16.769531 23.263672 C 17.25932 23.773787 17.252535 23.77674 17.705078 23.142578 C 18.005111 22.72219 17.982249 22.719754 18.351562 23.171875 C 18.771636 23.686048 18.870426 23.657543 19.423828 22.865234 C 19.570585 22.655115 19.569536 22.654317 19.941406 23.148438 C 20.314417 23.643988 20.34298 23.640771 20.78125 23.117188 C 21.211924 22.602691 21.152363 22.603133 21.492188 23.119141 C 22.118873 24.450431 22.534665 22.602183 22.794922 22.685547 C 23.055179 22.768907 23.34851 23.659011 23.607422 23.701172 C 23.866334 23.743332 24.273438 23.779297 24.273438 23.779297 C 24.639211 23.821837 25.556629 23.910039 26.3125 23.976562 L 27.6875 24.099609 L 28.570312 24.166016 C 29.295216 24.263226 30.186666 23.673716 30.392578 22.960938 C 30.886788 18.624042 31.397523 14.309141 31.861328 9.9765625 C 32.218361 6.9582099 32.154757 6.8941739 28.232422 6.4570312 C 28.232422 6.4570312 25.951057 6.1936321 25.748047 6.1816406 C 25.498231 6.1668836 24.710094 6.9745039 24.509766 6.9824219 L 24.507812 6.9824219 L 24.505859 6.9804688 C 24.417229 6.9297022 23.819945 5.832428 23.421875 5.8476562 z M 17.210938 7.1816406 A 0.25 0.25 0 0 1 17.472656 7.4179688 L 18.201172 22.087891 A 0.25 0.25 0 0 1 17.962891 22.349609 A 0.25 0.25 0 0 1 17.701172 22.113281 L 16.974609 7.4433594 A 0.25 0.25 0 0 1 17.210938 7.1816406 z M 19.699219 7.1816406 A 0.25 0.25 0 0 1 19.947266 7.4335938 L 19.833984 22.048828 A 0.25 0.25 0 0 1 19.582031 22.296875 A 0.25 0.25 0 0 1 19.333984 22.044922 L 19.447266 7.4296875 A 0.25 0.25 0 0 1 19.699219 7.1816406 z M 22.017578 7.1816406 A 0.25 0.25 0 0 1 22.050781 7.1816406 A 0.25 0.25 0 0 1 22.287109 7.4453125 L 21.513672 22.060547 A 0.25 0.25 0 0 1 21.25 22.296875 A 0.25 0.25 0 0 1 21.013672 22.033203 L 21.787109 7.4179688 A 0.25 0.25 0 0 1 22.017578 7.1816406 z M 24.414062 7.3730469 A 0.25 0.25 0 0 1 24.447266 7.375 A 0.25 0.25 0 0 1 24.669922 7.6503906 L 23.132812 22.027344 A 0.25 0.25 0 0 1 22.857422 22.248047 A 0.25 0.25 0 0 1 22.634766 21.974609 L 24.171875 7.5957031 A 0.25 0.25 0 0 1 24.414062 7.3730469 z M 14.701172 7.4316406 A 0.25 0.25 0 0 1 14.945312 7.6523438 L 16.621094 22.224609 A 0.25 0.25 0 0 1 16.402344 22.5 A 0.25 0.25 0 0 1 16.125 22.28125 L 14.449219 7.7089844 A 0.25 0.25 0 0 1 14.667969 7.4335938 A 0.25 0.25 0 0 1 14.701172 7.4316406 z M 12.097656 7.890625 A 0.25 0.25 0 0 1 12.353516 8.0976562 L 14.873047 22.466797 A 0.25 0.25 0 0 1 14.669922 22.757812 A 0.25 0.25 0 0 1 14.380859 22.554688 L 11.861328 8.1835938 A 0.25 0.25 0 0 1 12.064453 7.8945312 A 0.25 0.25 0 0 1 12.097656 7.890625 z M 9.5351562 8.3808594 A 0.25 0.25 0 0 1 9.7695312 8.5761719 L 13.066406 22.703125 A 0.25 0.25 0 0 1 12.878906 23.003906 A 0.25 0.25 0 0 1 12.580078 22.818359 L 9.2832031 8.6894531 A 0.25 0.25 0 0 1 9.46875 8.3886719 A 0.25 0.25 0 0 1 9.5019531 8.3828125 A 0.25 0.25 0 0 1 9.5351562 8.3808594 z M 28.222656 8.8125 C 28.644305 8.8141 28.943934 9.3142853 28.623047 9.6835938 C 28.493361 9.8329338 28.20217 9.9015178 28.023438 9.8242188 C 27.633945 9.6557486 27.604886 9.0374008 27.978516 8.8671875 C 28.061876 8.8291445 28.144616 8.812197 28.222656 8.8125 z M 5.7167969 9.6992188 C 5.9764494 9.6902988 5.979356 9.8103988 6.0429688 10.048828 C 6.1700842 10.525801 6.1733372 10.520604 5.5644531 10.666016 C 5.2757015 10.734956 4.44552 10.942539 3.7207031 11.128906 C 2.0679634 11.554368 2.1767554 11.553958 2.0625 11.130859 C 1.9117565 10.574484 1.7731882 10.651006 3.84375 10.125 C 4.9390324 9.8467656 5.4571004 9.7076588 5.7167969 9.6992188 z M 29.673828 10.244141 C 29.873233 10.244141 30.125 10.509521 30.125 10.720703 C 30.124993 11.225699 29.619775 11.449852 29.269531 11.099609 C 28.939488 10.769588 29.187711 10.244141 29.673828 10.244141 z M 27.914062 11.138672 C 28.106946 11.146872 28.294871 11.265375 28.369141 11.490234 C 28.521446 11.951816 27.984069 12.357549 27.587891 12.080078 C 27.407018 11.953398 27.337851 11.675658 27.431641 11.451172 C 27.522631 11.233367 27.721178 11.130272 27.914062 11.138672 z M 6.3476562 11.347656 C 6.4174422 11.425126 6.5606706 12.121018 6.5273438 12.205078 L 6.5253906 12.207031 L 6.5253906 12.210938 L 6.5253906 12.212891 L 6.5234375 12.212891 C 6.3959463 12.335257 2.6217136 13.242303 2.5898438 13.158203 C 2.4947937 12.907123 2.3823005 12.415464 2.3984375 12.339844 L 2.3984375 12.335938 L 2.3984375 12.333984 C 2.4465405 12.260314 6.3024584 11.297376 6.3476562 11.347656 z M 29.240234 12.283203 C 29.253704 12.282103 29.26738 12.283203 29.28125 12.283203 C 29.425159 12.283203 29.515748 12.322393 29.630859 12.4375 C 30.095676 12.902305 29.398367 13.613038 28.916016 13.166016 C 28.605381 12.878118 28.822836 12.317832 29.240234 12.283203 z M 6.6308594 13.130859 C 6.8656825 13.128159 6.8471811 13.258648 6.9082031 13.517578 C 7.028643 14.028378 7.1875581 13.943355 5.1191406 14.462891 C 4.594495 14.59467 4.2092987 14.695884 3.9355469 14.771484 L 3.1308594 14.978516 L 2.8945312 14.027344 L 2.8984375 14.025391 L 2.8984375 14.023438 L 2.9003906 14.021484 L 2.9023438 14.021484 C 2.9108238 14.021484 3.7722848 13.806286 4.8203125 13.542969 C 5.9061782 13.27012 6.3960381 13.133559 6.6308594 13.130859 z M 27.582031 13.292969 C 27.613421 13.291669 27.644174 13.295881 27.677734 13.300781 C 27.930863 13.337981 28.105469 13.542594 28.105469 13.808594 C 28.105469 14.228261 27.67927 14.463612 27.322266 14.240234 C 26.893179 13.971739 27.110863 13.311412 27.582031 13.294922 L 27.582031 13.292969 z M 29.082031 14.425781 C 29.22594 14.425781 29.318483 14.464941 29.433594 14.580078 C 29.898411 15.044879 29.199149 15.755605 28.716797 15.308594 C 28.396143 15.011407 28.638247 14.425781 29.082031 14.425781 z M 7.2558594 15.009766 L 7.2578125 15.009766 C 7.3259225 15.090166 7.4665156 15.789503 7.4316406 15.876953 L 7.4316406 15.878906 L 7.4316406 15.880859 L 7.4296875 15.882812 C 7.3939445 15.917713 4.8961408 16.571841 4.0957031 16.755859 C 4.0853111 16.758159 4.0757662 16.760172 4.0664062 16.763672 L 3.6035156 16.890625 L 3.3789062 15.974609 L 3.3808594 15.970703 L 4.5078125 15.673828 L 4.6425781 15.636719 L 5.5 15.419922 C 6.4426859 15.18006 7.2338154 14.996006 7.2558594 15.009766 z M 27.333984 15.457031 C 27.477893 15.457031 27.568483 15.498151 27.683594 15.613281 C 28.148411 16.078084 27.449148 16.786855 26.966797 16.339844 C 26.646142 16.042657 26.890197 15.457031 27.333984 15.457031 z M 28.771484 16.746094 C 28.798014 16.744894 28.827469 16.746506 28.855469 16.75 C 29.116048 16.7849 29.199781 16.851255 29.275391 17.080078 C 29.438275 17.573542 28.812949 17.978981 28.449219 17.615234 C 28.145843 17.311886 28.373099 16.763894 28.771484 16.746094 z M 7.7128906 16.806641 C 7.7945656 16.888331 7.920487 17.572743 7.875 17.664062 L 7.8730469 17.667969 L 7.8730469 17.669922 L 7.8710938 17.671875 C 7.7929348 17.743031 4.0351564 18.625 4.0351562 18.625 L 3.8222656 17.765625 L 5.2832031 17.392578 L 5.3398438 17.378906 C 5.4204928 17.358334 5.505804 17.33504 5.59375 17.3125 C 7.63483 16.788265 7.6832056 16.776931 7.7128906 16.806641 z M 27.078125 17.634766 C 27.153045 17.634196 27.231294 17.651979 27.308594 17.693359 C 27.438998 17.763139 27.572266 18.018508 27.572266 18.199219 C 27.572266 18.58317 26.972973 18.803053 26.691406 18.521484 C 26.356891 18.186982 26.673626 17.638266 27.078125 17.634766 z M 8.0019531 18.585938 L 8.0039062 18.585938 C 8.2051536 18.588338 8.2056634 18.704216 8.2695312 18.9375 C 8.3923458 19.386201 8.3779877 19.423541 8.0878906 19.488281 C 7.9615253 19.516381 7.1456535 19.723906 6.2734375 19.947266 C 4.3924999 20.428958 4.502931 20.415945 4.421875 20.125 L 4.4238281 20.125 C 4.3891841 20.00063 4.3535156 19.6875 4.3535156 19.6875 L 4.3496094 19.476562 L 4.6953125 19.386719 C 4.8855053 19.338859 5.7085718 19.129279 6.5253906 18.919922 C 7.397713 18.696402 7.8000421 18.583636 8.0019531 18.585938 z M 28.529297 18.916016 C 28.836938 18.916016 29.007812 19.093918 29.007812 19.414062 C 29.007814 19.818648 28.619118 20.044031 28.257812 19.847656 C 27.813412 19.606118 28.014341 18.916016 28.529297 18.916016 z M 26.773438 19.820312 C 27.121015 19.820312 27.382182 20.197343 27.251953 20.511719 C 27.123178 20.822594 26.705404 20.934245 26.441406 20.726562 C 26.07924 20.441689 26.306597 19.820312 26.773438 19.820312 z M 8.4589844 20.306641 C 8.6665597 20.310341 8.657564 20.439554 8.71875 20.699219 C 8.8387043 21.207716 9.0058263 21.120415 6.9023438 21.652344 C 4.8581651 22.169256 4.9726934 22.148311 4.9121094 21.988281 C 4.6790694 21.372429 4.7110085 21.188913 5.0625 21.126953 C 5.1668234 21.108523 5.9896197 20.901532 6.890625 20.667969 C 7.8245741 20.425957 8.2514022 20.303141 8.4589844 20.306641 z M 28.210938 21.091797 L 28.210938 21.09375 C 28.444876 21.10422 28.6743 21.262958 28.71875 21.5 C 28.80781 21.975048 28.357181 22.311016 27.935547 22.082031 C 27.642989 21.923121 27.624735 21.374873 27.90625 21.177734 C 27.9972 21.114044 28.104554 21.087097 28.210938 21.091797 z M 8.9140625 22.044922 C 9.1093123 22.051522 9.1074189 22.175145 9.171875 22.423828 C 9.3054247 22.938485 9.4460742 22.864757 7.328125 23.404297 C 5.7034923 23.818205 5.4542959 23.87889 5.3886719 23.84375 L 5.3847656 23.84375 L 5.3828125 23.84375 L 5.3828125 23.841797 L 5.3808594 23.841797 C 5.3754594 23.836797 5.3692744 23.829166 5.3652344 23.822266 C 5.3504587 23.798314 5.298712 23.602455 5.25 23.388672 C 5.1476152 22.938618 5.1288741 22.964575 5.6660156 22.830078 C 5.8783106 22.776898 6.6954235 22.567827 7.4824219 22.365234 C 8.3281629 22.147516 8.7188894 22.039122 8.9140625 22.044922 z "/>
  </g>
</svg>
