<?xml version="1.0" encoding="UTF-8" standalone="no"?>
<!-- Created with Inkscape (http://www.inkscape.org/) -->

<svg
   width="2048"
   height="2048"
   viewBox="0 0 541.86664 541.86667"
   version="1.1"
   id="svg1"
   inkscape:version="1.4.4 (dcaf3e7d9e, 2026-05-05)"
   sodipodi:docname="SmeggTuner.svg"
   xml:space="preserve"
   inkscape:export-filename="appicon.png"
   inkscape:export-xdpi="96"
   inkscape:export-ydpi="96"
   xmlns:inkscape="http://www.inkscape.org/namespaces/inkscape"
   xmlns:sodipodi="http://sodipodi.sourceforge.net/DTD/sodipodi-0.dtd"
   xmlns="http://www.w3.org/2000/svg"
   xmlns:svg="http://www.w3.org/2000/svg">
  <sodipodi:namedview
   id="namedview1"
   pagecolor="#505050"
   bordercolor="#f4f4f4fff"
   borderopacity="1"
   inkscape:showpageshadow="0"
   inkscape:pageopacity="0"
   inkscape:pagecheckerboard="1"
   inkscape:deskcolor="#505050"
   inkscape:document-units="mm"
   inkscape:zoom="0.13196996"
   inkscape:cx="935.81907"
   inkscape:cy="916.87536"
   inkscape:window-width="1920"
   inkscape:window-height="1044"
   inkscape:window-x="0"
   inkscape:window-y="0"
   inkscape:window-maximized="1"
   inkscape:current-layer="layer1" />
  <defs
   id="defs1" />
  <g
   inkscape:label="Layer 1"
   inkscape:groupmode="layer"
   id="layer1"
   transform="translate(7.7642878e-6,-2.4270643)">



    
  <path
   id="path43"
   style="baseline-shift:baseline;display:inline;overflow:visible;vector-effect:none;fill:#ffffff;stroke-width:16.9333;enable-background:accumulate;stop-color:#000000"
   d="m 396.61716,101.45192 c -6.38719,0.2432 -13.95519,11.9006 -21.96029,16.73489 h -0.0339 -0.064 l -0.0339,-0.0331 c -0.72319,-0.224 -4.63998,-3.55712 -8.96126,-7.60677 -10.78783,-10.11205 -9.67807,-10.22892 -25.46621,2.44736 l -6.54847,5.25887 -9.0624,-7.67295 c -11.42654,-9.68773 -10.94334,-9.7216 -22.85309,0.4608 -5.49759,4.70079 -9.5187,7.56639 -10.55038,7.57368 h -0.0339 l -0.064,-0.0331 h -0.0339 -0.0339 c -0.576,-0.35199 -5.24159,-3.42527 -10.34942,-6.81305 -11.64287,-7.72562 -10.89279,-7.79557 -22.4563,2.41408 -11.51614,10.1678 -9.33182,9.88805 -21.46429,2.71168 -13.29407,-7.86322 -12.87679,-7.95743 -24.60605,3.47263 l -9.62432,9.42573 -11.21214,-5.78751 c -14.55038,-7.48256 -13.47006,-7.664 -24.01085,3.67103 -10.69311,11.49861 -6.69503,11.42872 -31.783,0.5312 -9.66783,-4.1984 -10.95934,-4.35712 -15.9411,-1.95136 -4.4032,2.12672 -12.07359,4.31616 -46.500432,13.09682 -13.916149,3.54943 -20.926057,5.35231 -24.407655,6.11839 h -0.03327 l -14.750057,3.70431 -8.43392,2.34816 c -22.5043573,6.3603 -29.1725113,17.98294 -23.3491635,40.81191 l 2.0160044,7.87135 2.713592,11.34398 h 0.033269 v 0.0339 0.064 C 27.730541,284.98858 45.308765,359.23623 65.991624,432.6419 c 8.41279,16.42142 14.398697,16.58047 70.478636,1.91809 20.23742,-5.64864 40.56572,-10.67449 61.11865,-14.982 9.08287,-2.43393 4.26879,-0.46081 14.8499,-11.70783 9.19807,-11.08274 7.90847,-10.67685 15.01502,-4.72959 8.53055,7.13951 8.61055,7.18904 10.41791,6.61458 4.1984,-1.33056 8.77568,-16.41195 12.13759,-16.801 3.11679,-0.3584 6.61439,6.38335 6.61439,6.38335 6.68287,10.41797 10.20862,8.15397 15.87518,-0.26241 5.18399,-12.08843 6.9888,-9.99486 11.47647,-2.71167 8.29375,8.63795 8.17855,8.68792 15.8419,-2.05055 5.08159,-7.11858 4.69119,-7.15986 10.94718,0.4992 7.11295,8.70667 8.78591,8.22399 18.15678,-5.19232 2.4832,-3.55775 2.464,-3.57119 8.76415,4.79552 6.31679,8.39128 6.8,8.33681 14.22142,-0.5312 7.2928,-8.71218 6.2848,-8.70469 12.03839,0.0339 10.61247,22.54315 17.6531,-8.75384 22.06013,-7.3422 4.4096,1.41184 9.37407,16.48395 13.75806,17.19794 4.384,0.71359 11.27807,1.32288 11.27807,1.32288 6.1952,0.72063 21.72861,2.21375 34.52796,3.34015 l 23.28317,2.08384 14.9491,1.12447 c 12.27519,1.64608 27.37021,-8.33631 30.85693,-20.40598 8.36862,-73.43799 17.01694,-146.50357 24.871,-219.86846 6.048,-51.11073 4.9664,-52.19508 -61.44952,-59.59738 0,0 -38.631,-4.46015 -42.06907,-4.66303 -4.2304,-0.24961 -17.57566,13.42578 -20.96765,13.55985 h -0.0339 l -0.0339,-0.0331 c -1.49759,-0.86141 -11.61342,-19.44174 -18.35389,-19.18388 z m -105.17171,22.58877 a 4.233328,4.233328 0 0 1 4.42879,4.00193 l 12.33663,248.41037 a 4.233328,4.233328 0 0 1 -4.03839,4.432 4.233328,4.233328 0 0 1 -4.4288,-4.00192 L 287.44033,128.47269 a 4.233328,4.233328 0 0 1 4,-4.432 z m 42.13435,0 a 4.233328,4.233328 0 0 1 4.19839,4.26624 l -1.92,247.48431 a 4.233328,4.233328 0 0 1 -4.26879,4.20031 4.233328,4.233328 0 0 1 -4.1984,-4.26624 l 1.92,-247.48436 a 4.233328,4.233328 0 0 1 4.2688,-4.20026 z m 39.25755,0 a 4.233328,4.233328 0 0 1 0.57599,0 4.233328,4.233328 0 0 1 4.00001,4.46464 l -13.09695,247.4843 a 4.233328,4.233328 0 0 1 -4.4672,4.00192 4.233328,4.233328 0 0 1 -3.99999,-4.46464 l 13.09695,-247.48429 a 4.233328,4.233328 0 0 1 3.90399,-4.00193 z m 40.58043,3.24096 a 4.233328,4.233328 0 0 1 0.576,0.0331 4.233328,4.233328 0 0 1 3.7696,4.66304 L 391.73524,375.4272 a 4.233328,4.233328 0 0 1 -4.66559,3.73696 4.233328,4.233328 0 0 1 -3.7696,-4.63039 l 26.02878,-243.48245 a 4.233328,4.233328 0 0 1 4.10239,-3.77024 z m -164.47084,0.992 a 4.233328,4.233328 0 0 1 4.13439,3.73696 l 28.37629,246.75668 a 4.233328,4.233328 0 0 1 -3.70559,4.66304 4.233328,4.233328 0 0 1 -4.6976,-3.70432 L 244.67751,132.96932 a 4.233328,4.233328 0 0 1 3.70559,-4.66303 4.233328,4.233328 0 0 1 0.576,-0.0331 z m -44.08635,7.77215 a 4.233328,4.233328 0 0 1 4.3328,3.50592 l 42.66426,243.31714 a 4.233328,4.233328 0 0 1 -3.43679,4.92799 4.233328,4.233328 0 0 1 -4.896,-3.43936 L 200.8606,141.00727 a 4.233328,4.233328 0 0 1 3.43679,-4.89471 4.233328,4.233328 0 0 1 0.57601,-0.064 z m -43.39194,8.3013 a 4.233328,4.233328 0 0 1 3.96799,3.30751 l 55.82649,239.2161 a 4.233328,4.233328 0 0 1 -3.1744,5.09312 4.233328,4.233328 0 0 1 -5.06239,-3.14177 L 157.19921,149.57289 a 4.233328,4.233328 0 0 1 3.1424,-5.09312 4.233328,4.233328 0 0 1 0.576,-0.10241 4.233328,4.233328 0 0 1 0.57599,-0.0331 z m 316.44121,7.30911 c 7.14048,0.0271 12.21374,8.49689 6.78016,14.75046 -2.1952,2.52863 -7.12704,3.69023 -10.15359,2.38143 -6.59519,-2.85248 -7.08736,-13.32344 -0.7616,-16.20574 1.41439,-0.64449 2.80959,-0.93121 4.13439,-0.92609 z M 96.811442,166.6713 c 4.396798,-0.1536 4.447988,1.88288 5.523188,5.91999 2.15041,8.07673 2.20801,7.98873 -8.103025,10.45106 -4.889608,1.16736 -18.947186,4.68224 -31.220456,7.83827 -27.986526,7.20446 -26.144605,7.19756 -28.079324,0.0331 -2.553598,-9.4213 -4.895995,-8.1255 30.162523,-17.03256 18.547179,-4.71168 27.319651,-7.06693 31.717094,-7.20985 z m 405.671828,9.22732 c 3.37919,0 7.63967,4.49343 7.63967,8.06975 0,8.55128 -8.55486,12.34693 -14.48575,6.41618 -5.58718,-5.58847 -1.38879,-14.48593 6.84608,-14.48593 z m -29.79837,15.14737 c 3.26401,0.1408 6.448,2.14528 7.7056,5.95328 2.57919,7.81611 -6.52031,14.6865 -13.22878,9.98801 -3.0656,-2.14527 -4.2368,-6.84818 -2.6496,-10.64945 1.54239,-3.68832 4.9024,-5.4336 8.16959,-5.29152 z m -365.19123,3.53856 c 1.184,1.312 3.6096,13.09553 3.0464,14.51895 l -0.0333,0.0339 v 0.064 0.0339 h -0.0333 c -2.1568,2.07232 -66.069049,17.4314 -66.608572,16.00727 -1.606397,-4.25151 -3.513594,-12.57701 -3.238399,-13.85751 v -0.064 -0.0339 c 0.812799,-1.24736 66.108101,-17.5532 66.873541,-16.70181 z m 387.64753,15.84189 c 0.256,-0.0187 0.448,0 0.6976,0 2.4384,0 3.968,0.66369 5.92,2.61249 7.87134,7.87071 -3.936,19.90576 -12.10431,12.33617 -5.2608,-4.87487 -1.58081,-14.36255 5.49119,-14.94891 z m -382.85202,14.35359 c 3.9744,-0.0457 3.6608,2.16383 4.6976,6.54847 2.0416,8.64953 4.7296,7.20979 -30.295017,16.00728 -8.883824,2.23168 -15.406699,3.94559 -20.042214,5.22559 l -13.626228,3.50592 -3.999991,-16.10654 0.06403,-0.0339 v -0.0339 l 0.03327,-0.0339 h 0.03264 c 0.128008,0 14.730867,-3.64416 32.477407,-8.10283 18.387823,-4.62016 26.682223,-6.93267 30.658523,-6.97843 z m 354.77334,2.74496 c 0.512,-0.022 1.04959,0.0491 1.61919,0.1344 4.28799,0.6272 7.24287,4.09471 7.24287,8.59896 0,7.10636 -7.21727,11.09157 -13.26206,7.30905 -7.26591,-4.54655 -3.5776,-15.72798 4.39679,-16.00721 z m 25.39964,19.18224 c 2.4384,0 4.0064,0.66305 5.95199,2.61248 7.87072,7.87058 -3.96799,19.90551 -12.13758,12.33618 -5.4272,-5.03231 -1.33119,-14.94897 6.18239,-14.94897 z m -369.58931,9.88883 h 0.0333 c 1.152,1.36128 3.53279,13.2035 2.944,14.68433 v 0.0339 0.0339 l -0.0333,0.0339 c -0.576,0.58879 -42.90108,11.6675 -56.455628,14.78354 -0.192001,0.039 -0.319998,0.0704 -0.512,0.13439 l -7.838069,2.14976 -3.801596,-15.51121 0.03327,-0.064 19.082864,-5.02719 2.284796,-0.62719 14.519024,-3.6736 c 15.962859,-4.06143 29.359339,-7.17829 29.732449,-6.94527 z m 339.98935,7.57368 c 2.4384,0 3.96799,0.69632 5.92,2.64575 7.87071,7.87065 -3.968,19.87249 -12.13824,12.30309 -5.42718,-5.03231 -1.29919,-14.9489 6.2208,-14.9489 z m 24.34173,21.82807 c 0.448,-0.0203 0.9472,0.007 1.4208,0.064 4.40959,0.5888 5.83039,1.71456 7.11103,5.58912 2.7584,8.35601 -7.83103,15.22141 -13.98975,9.06199 -5.13919,-5.13662 -1.2864,-14.41604 5.4592,-14.71741 z m -356.5922,1.02527 c 1.3824,1.38304 3.51359,12.97267 2.74558,14.51896 l -0.0326,0.064 v 0.0339 l -0.0333,0.0339 c -1.3248,1.2032 -64.954814,16.13809 -64.954814,16.13809 l -3.603192,-14.55211 24.73853,-6.31679 0.959997,-0.2304 c 1.363199,-0.3456 2.809599,-0.74304 4.300796,-1.12448 34.562533,-8.87704 35.381723,-9.06898 35.884133,-8.56588 z m 327.91767,14.0229 c 1.2672,-0.009 2.592,0.2944 3.904,0.992 2.208,1.18144 4.46719,5.50591 4.46719,8.56588 0,6.50156 -10.14782,10.22488 -14.91582,5.45727 -5.66399,-5.664 -0.32,-14.95582 6.54847,-15.01509 z m -323.02296,16.10641 h 0.0333 c 3.40479,0.0407 3.41759,2.0032 4.49919,5.95328 2.08,7.59801 1.8368,8.23025 -3.07839,9.32651 -2.1376,0.4736 -15.95518,3.98976 -30.72445,7.77215 -31.850846,8.15666 -29.980777,7.93632 -31.353572,3.00992 h 0.03327 c -0.575993,-2.10624 -1.190398,-7.40837 -1.190398,-7.40837 l -0.06404,-3.57185 5.856001,-1.52127 c 3.219188,-0.81023 17.157745,-4.35904 30.989419,-7.90438 14.77117,-3.78495 21.58397,-5.69471 25.00285,-5.65567 z m 347.59638,5.58912 c 5.20959,0 8.10239,3.01247 8.10239,8.43352 0,6.851 -6.58175,10.66745 -12.6995,7.34221 -7.52512,-4.09024 -4.1216,-15.77573 4.59518,-15.77573 z m -29.73245,15.31268 c 5.88799,0 10.30783,6.38464 8.10239,11.70783 -2.1824,5.26399 -9.25503,7.15474 -13.72478,3.63775 -6.1312,-4.82367 -2.2848,-15.34583 5.62559,-15.34583 z m -310.12442,8.23519 c 3.51359,0.0627 3.35999,2.25088 4.39679,6.64761 2.0288,8.61055 4.85759,7.13228 -30.75772,16.13956 -34.615015,8.75308 -32.675812,8.3984 -33.701731,5.68832 -3.948793,-10.42847 -3.404796,-13.53598 2.547194,-14.58514 1.766403,-0.3136 15.699197,-3.81695 30.956137,-7.77215 15.81502,-4.09792 23.04253,-6.17791 26.55805,-6.11839 z m 334.46551,13.29528 v 0.0339 c 3.9616,0.1792 7.84639,2.86528 8.59903,6.87916 1.5104,8.04415 -6.12479,13.73316 -13.26207,9.85573 -4.95358,-2.6912 -5.26078,-11.97451 -0.51199,-15.31275 1.5424,-1.0784 3.36,-1.53472 5.1584,-1.45536 z m -326.75992,16.13957 c 3.30879,0.1088 3.2768,2.20543 4.36479,6.41611 2.2592,8.71487 4.64,7.46643 -31.22108,16.60261 -27.510372,7.00882 -31.729893,8.03641 -32.841572,7.4414 h -0.06404 -0.03327 v -0.0339 h -0.03264 c -0.06404,-0.0832 -0.192002,-0.21121 -0.256006,-0.33281 -0.255995,-0.4032 -1.126394,-3.72159 -1.952,-7.34137 -1.734395,-7.62091 -2.054394,-7.18136 7.044487,-9.45887 3.596788,-0.90048 17.431661,-4.44095 30.757731,-7.87135 14.32126,-3.68639 20.93757,-5.52191 24.24252,-5.42399 z" /></g>
</svg>
