<?xml version="1.0" encoding="UTF-8" standalone="no"?>
<svg viewBox="0 0 31.999999 31.999999" version="1.1" id="svg8" sodipodi:docname="smeggtuner-logo-tray-dark-badge.svg" width="32" height="32" inkscape:version="1.4.4 (dcaf3e7d9e, 2026-05-05)" xmlns:inkscape="http://www.inkscape.org/namespaces/inkscape" xmlns:sodipodi="http://sodipodi.sourceforge.net/DTD/sodipodi-0.dtd" xmlns="http://www.w3.org/2000/svg" xmlns:svg="http://www.w3.org/2000/svg">
  <defs id="defs8"/>
  <sodipodi:namedview id="namedview8" pagecolor="#505050" bordercolor="#f4f4f4fff" borderopacity="1" inkscape:showpageshadow="0" inkscape:pageopacity="0" inkscape:pagecheckerboard="1" inkscape:deskcolor="#505050" inkscape:zoom="11.313709" inkscape:cx="11.711456" inkscape:cy="21.478368" inkscape:window-width="1920" inkscape:window-height="1044" inkscape:window-x="0" inkscape:window-y="0" inkscape:window-maximized="1" inkscape:current-layer="svg8"/>
  <path id="path43" style="baseline-shift:baseline;display:inline;overflow:visible;vector-effect:none;fill:#ffffff;enable-background:accumulate;stop-color:#000000" d="m 23.422574,5.8478967 c -0.377219,0.014431 -0.824119,0.7027899 -1.296875,0.9882813 h -0.002 -0.0039 l -0.002,-0.00195 C 22.075074,6.8209609 21.843715,6.6241564 21.58859,6.3850061 20.951523,5.7878387 21.017067,5.7809354 20.084683,6.5295374 l -0.386718,0.3105469 -0.535157,-0.453125 c -0.674796,-0.5721107 -0.646276,-0.5741125 -1.349609,0.027344 -0.324704,0.277607 -0.562127,0.4468344 -0.623047,0.4472654 h -0.002 l -0.0039,-0.0019 h -0.002 -0.002 C 17.144407,6.8387681 16.870545,6.6573412 16.569058,6.4572717 15.881477,6.0010326 15.925763,5.9969027 15.242887,6.5998499 14.56279,7.2003117 14.69179,7.1837907 13.975308,6.7600061 13.190224,6.2956416 13.214868,6.2900778 12.522183,6.9650847 l -0.568359,0.55664 -0.662109,-0.341797 c -0.859299,-0.4418806 -0.79549,-0.4525971 -1.4179689,0.216797 -0.631498,0.679052 -0.395407,0.674925 -1.876953,0.03125 -0.570959,-0.247925 -0.647215,-0.257299 -0.941407,-0.115234 -0.259998,0.125613 -0.713009,0.254907 -2.746093,0.773437 -0.821823,0.209593 -1.235813,0.316069 -1.441407,0.361328 h -0.002 l -0.871097,0.21875 -0.498047,0.138672 c -1.32901103,0.375616 -1.72277503,1.061988 -1.37890603,2.4101563 l 0.119141,0.464844 0.160156,0.669921 h 0.002 v 0.002 0.0039 c 1.23851203,4.331087 2.27659103,8.715796 3.49804703,13.050782 0.496805,0.969772 0.850309,0.979163 4.162109,0.113281 1.195123,-0.333587 2.3956049,-0.630384 3.6093759,-0.884765 0.536399,-0.143728 0.252092,-0.02705 0.876953,-0.691407 0.543202,-0.654495 0.46705,-0.630524 0.886719,-0.279297 0.503763,0.421626 0.508489,0.424552 0.615234,0.390626 0.248063,-0.07857 0.518255,-0.969212 0.716797,-0.992188 0.184144,-0.02131 0.390625,0.376953 0.390625,0.376953 0.394658,0.615235 0.602846,0.481535 0.9375,-0.01563 0.306137,-0.713882 0.41273,-0.590248 0.677734,-0.160156 0.489789,0.510115 0.483004,0.513068 0.935547,-0.121094 0.300033,-0.420388 0.277171,-0.422824 0.646484,0.0293 0.420074,0.514173 0.518864,0.485668 1.072266,-0.306641 0.146757,-0.210119 0.145708,-0.210917 0.517578,0.283204 0.373011,0.49555 0.401574,0.492333 0.839844,-0.03125 0.430674,-0.514497 0.371113,-0.514055 0.710938,0.002 0.626685,1.33129 1.042477,-0.516958 1.302734,-0.433594 0.260257,0.08336 0.553588,0.973464 0.8125,1.015625 0.258912,0.04216 0.666016,0.07813 0.666016,0.07813 0.365773,0.04254 1.283191,0.130742 2.039062,0.197265 l 1.375,0.123047 0.882812,0.06641 c 0.724904,0.09721 1.616354,-0.4923 1.822266,-1.205078 0.49421,-4.336896 1.004945,-8.651798 1.46875,-12.9843763 0.357033,-3.018352 0.293429,-3.082388 -3.628906,-3.519531 0,0 -2.281365,-0.2633991 -2.484375,-0.2753906 -0.249816,-0.014757 -1.037953,0.7928636 -1.238281,0.8007816 h -0.002 l -0.002,-0.002 c -0.08853,-0.05086 -0.685818,-1.1481372 -1.083888,-1.132909 z m -6.210937,1.333984 a 0.25,0.25 0 0 1 0.261718,0.236329 L 18.201871,22.088132 A 0.25,0.25 0 0 1 17.96359,22.34985 0.25,0.25 0 0 1 17.701871,22.113522 L 16.975308,7.4435997 a 0.25,0.25 0 0 1 0.236329,-0.261719 z m 2.488281,0 a 0.25,0.25 0 0 1 0.248047,0.251954 L 19.834683,22.049069 A 0.25,0.25 0 0 1 19.58273,22.297116 0.25,0.25 0 0 1 19.334683,22.045163 L 19.447965,7.4299277 a 0.25,0.25 0 0 1 0.251953,-0.248047 z m 2.318359,0 a 0.25,0.25 0 0 1 0.0332,0 0.25,0.25 0 0 1 0.236328,0.263672 L 21.514371,22.060788 a 0.25,0.25 0 0 1 -0.263672,0.236328 0.25,0.25 0 0 1 -0.236328,-0.263672 L 21.787808,7.4182097 a 0.25,0.25 0 0 1 0.230469,-0.236329 z m 2.396484,0.191407 a 0.25,0.25 0 0 1 0.0332,0.0019 0.25,0.25 0 0 1 0.222656,0.27539 l -1.53711,14.3769543 a 0.25,0.25 0 0 1 -0.27539,0.220703 0.25,0.25 0 0 1 -0.222656,-0.273438 L 24.172574,7.5958937 a 0.25,0.25 0 0 1 0.242187,-0.222656 z m -9.71289,0.05859 a 0.25,0.25 0 0 1 0.24414,0.220703 l 1.675782,14.5722653 a 0.25,0.25 0 0 1 -0.21875,0.275391 0.25,0.25 0 0 1 -0.277344,-0.21875 L 14.449918,7.7092247 a 0.25,0.25 0 0 1 0.21875,-0.27539 0.25,0.25 0 0 1 0.0332,-0.002 z m -2.603516,0.458984 a 0.25,0.25 0 0 1 0.25586,0.207031 l 2.519531,14.3691413 a 0.25,0.25 0 0 1 -0.203125,0.291015 0.25,0.25 0 0 1 -0.289063,-0.203124 L 11.862027,8.1838347 a 0.25,0.25 0 0 1 0.203125,-0.289063 0.25,0.25 0 0 1 0.0332,-0.0039 z m -2.5624999,0.490234 a 0.25,0.25 0 0 1 0.234375,0.195313 L 13.067105,22.703362 a 0.25,0.25 0 0 1 -0.1875,0.300781 0.25,0.25 0 0 1 -0.298828,-0.185547 L 9.2839021,8.6896937 a 0.25,0.25 0 0 1 0.185547,-0.300781 0.25,0.25 0 0 1 0.0332,-0.0059 0.25,0.25 0 0 1 0.0332,-0.002 z m 18.6874999,0.431641 c 0.421649,0.0016 0.721278,0.501785 0.400391,0.871094 -0.129686,0.14934 -0.420877,0.217924 -0.599609,0.140625 -0.389493,-0.168471 -0.418552,-0.786818 -0.04492,-0.957032 0.08336,-0.03804 0.1661,-0.05499 0.24414,-0.05469 z M 5.7174961,9.6994597 c 0.259652,-0.0089 0.262559,0.11118 0.326172,0.3496083 0.127115,0.476973 0.130368,0.471776 -0.478516,0.617188 -0.288752,0.06894 -1.118933,0.276523 -1.84375,0.46289 -1.65274,0.425462 -1.543948,0.425052 -1.658203,0.002 -0.150744,-0.556425 -0.289312,-0.479903 1.78125,-1.005909 1.095282,-0.2782343 1.61335,-0.4173403 1.873047,-0.4257803 z M 29.674527,10.244381 c 0.199405,0 0.451172,0.26538 0.451172,0.476562 -7e-6,0.504996 -0.505225,0.729149 -0.855469,0.378906 -0.330043,-0.330021 -0.08182,-0.855468 0.404297,-0.855468 z m -1.759766,0.894531 c 0.192884,0.0082 0.380809,0.126703 0.455079,0.351562 0.152305,0.461582 -0.385072,0.867315 -0.78125,0.589844 -0.180873,-0.12668 -0.25004,-0.40442 -0.15625,-0.628906 0.09099,-0.217805 0.289537,-0.3209 0.482421,-0.3125 z M 6.3483551,11.347896 c 0.06979,0.07747 0.213014,0.773362 0.179688,0.857422 l -0.002,0.002 v 0.0039 0.002 h -0.0019 c -0.127492,0.122366 -3.901724,1.029412 -3.933594,0.945312 -0.09505,-0.25108 -0.207544,-0.742739 -0.191407,-0.818359 v -0.0039 -0.002 c 0.0481,-0.07367 3.904021,-1.036608 3.949219,-0.986328 z m 22.8925779,0.935547 c 0.01347,-0.0011 0.02715,0 0.04102,0 0.143909,0 0.234498,0.03919 0.349609,0.154297 0.464817,0.464805 -0.232492,1.175538 -0.714843,0.728516 -0.310635,-0.287898 -0.09318,-0.848184 0.324218,-0.882813 z M 6.6315581,13.131099 c 0.234823,-0.0027 0.216322,0.127789 0.277344,0.386719 0.12044,0.5108 0.279355,0.425777 -1.789063,0.945313 -0.524645,0.131779 -0.909842,0.232993 -1.183593,0.308593 l -0.804688,0.207033 -0.236328,-0.951173 0.0039,-0.002 v -0.002 l 0.0019,-0.002 h 0.002 c 0.0085,0 0.869941,-0.215198 1.917969,-0.478515 1.085865,-0.272849 1.575725,-0.40941 1.810546,-0.41211 z m 20.9511719,0.16211 c 0.03139,-0.0013 0.06214,0.0029 0.0957,0.0078 0.253129,0.0372 0.427735,0.241813 0.427735,0.507813 0,0.419667 -0.426199,0.655018 -0.783203,0.43164 -0.429087,-0.268495 -0.211403,-0.928822 0.259765,-0.945312 z m 1.5,1.132812 c 0.143909,0 0.236452,0.03916 0.351563,0.154297 0.464817,0.464802 -0.234445,1.175528 -0.716797,0.728517 -0.320654,-0.297187 -0.07855,-0.882814 0.365234,-0.882814 z M 7.2565581,15.010007 h 0.0019 c 0.06811,0.0804 0.208703,0.779737 0.173828,0.867187 v 0.002 0.002 l -0.0019,0.002 c -0.03574,0.0349 -2.533546,0.689029 -3.333984,0.873047 -0.01039,0.0023 -0.01994,0.0043 -0.0293,0.0078 l -0.462891,0.126953 -0.224609,-0.916016 0.002,-0.0039 1.126953,-0.296875 0.134766,-0.03711 0.857425,-0.21693 c 0.942686,-0.239862 1.733815,-0.423916 1.755859,-0.410156 z m 20.0781249,0.447265 c 0.143909,0 0.234499,0.04112 0.34961,0.15625 0.464817,0.464803 -0.234446,1.173574 -0.716797,0.726563 -0.320655,-0.297187 -0.0766,-0.882813 0.367187,-0.882813 z m 1.4375,1.289063 c 0.02653,-0.0012 0.05598,4.12e-4 0.08398,0.0039 0.260579,0.0349 0.344312,0.101255 0.419922,0.330078 0.162884,0.493464 -0.462442,0.898903 -0.826172,0.535156 -0.303376,-0.303348 -0.07612,-0.85134 0.322265,-0.86914 z m -21.0585939,0.06055 c 0.08167,0.08169 0.207597,0.766102 0.16211,0.857421 l -0.0019,0.0039 v 0.002 l -0.002,0.002 c -0.07817,0.07107 -3.835944,0.953035 -3.835944,0.953035 l -0.212891,-0.859375 1.460938,-0.373047 0.05664,-0.01367 c 0.08065,-0.02057 0.16596,-0.04387 0.253906,-0.06641 2.04108,-0.524235 2.089455,-0.535569 2.11914,-0.505859 z M 27.078824,17.63501 c 0.07492,-5.7e-4 0.153169,0.01721 0.230469,0.05859 0.130404,0.06978 0.263672,0.325149 0.263672,0.50586 0,0.383951 -0.599293,0.603834 -0.88086,0.322265 -0.334515,-0.334502 -0.01778,-0.883218 0.386719,-0.886718 z M 8.0026521,18.586179 h 0.002 c 0.201247,0.0024 0.201757,0.118278 0.265625,0.351562 0.122814,0.448701 0.108456,0.486041 -0.181641,0.550781 -0.126365,0.0281 -0.942237,0.235625 -1.814453,0.458985 -1.880934,0.481692 -1.770503,0.468679 -1.851559,0.177734 h 0.002 c -0.03464,-0.12437 -0.07031,-0.4375 -0.07031,-0.4375 l -0.0039,-0.210938 0.345703,-0.08984 c 0.190193,-0.04786 1.013259,-0.25744 1.830078,-0.466797 0.872322,-0.22352 1.274651,-0.336286 1.476562,-0.333984 z m 20.5273439,0.330078 c 0.307641,0 0.478515,0.177902 0.478515,0.498046 2e-6,0.404586 -0.388694,0.629969 -0.75,0.433594 -0.4444,-0.241538 -0.243471,-0.93164 0.271485,-0.93164 z m -1.755859,0.904296 c 0.347577,0 0.608744,0.377031 0.478515,0.691407 -0.128775,0.310875 -0.546549,0.422526 -0.810547,0.214843 -0.362166,-0.284873 -0.134809,-0.90625 0.332032,-0.90625 z M 8.4596831,20.306882 c 0.207575,0.0037 0.19858,0.132913 0.259766,0.392578 0.119954,0.508497 0.287076,0.421196 -1.816406,0.953125 -2.044179,0.516912 -1.929651,0.495967 -1.990235,0.335937 -0.23304,-0.615852 -0.201101,-0.799368 0.150391,-0.861328 0.104323,-0.01843 0.927119,-0.225421 1.828125,-0.458984 0.933949,-0.242012 1.360777,-0.364828 1.568359,-0.361328 z m 19.7519539,0.785156 v 0.002 c 0.233938,0.01047 0.463362,0.169208 0.507812,0.40625 0.08906,0.475048 -0.361569,0.811016 -0.783203,0.582031 -0.292558,-0.15891 -0.310812,-0.707158 -0.0293,-0.904297 0.09095,-0.06369 0.198304,-0.09064 0.304688,-0.08594 z M 8.9147611,22.045163 c 0.19525,0.0066 0.193357,0.130223 0.257813,0.378906 0.133549,0.514657 0.274199,0.440929 -1.84375,0.980469 -1.624633,0.413908 -1.873829,0.474593 -1.939453,0.439453 h -0.0039 -0.0019 v -0.002 h -0.002 c -0.0054,-0.005 -0.01159,-0.01263 -0.01563,-0.01953 -0.01478,-0.02391 -0.06653,-0.219765 -0.115237,-0.433548 -0.102385,-0.450054 -0.121126,-0.424097 0.416015,-0.558594 0.212295,-0.05318 1.029408,-0.262251 1.816407,-0.464844 0.845741,-0.217718 1.236467,-0.326112 1.43164,-0.320312 z" inkscape:label="badge"/>
</svg>
